<?xml version="1.0" encoding="utf-8"?>
<svg xmlns="http://www.w3.org/2000/svg" xmlns:xlink="http://www.w3.org/1999/xlink" width="600" height="400" viewBox="0 0 2400 1600">
<defs>
  <clipPath id="clip500">
    <rect x="0" y="0" width="2400" height="1600"/>
  </clipPath>
</defs>
<path clip-path="url(#clip500)" d="M0 1600 L2400 1600 L2400 0 L0 0  Z" fill="#282a36" fill-rule="evenodd" fill-opacity="1"/>
<defs>
  <clipPath id="clip501">
    <rect x="480" y="0" width="1681" height="1600"/>
  </clipPath>
</defs>
<path clip-path="url(#clip500)" d="M169.121 1486.45 L2352.76 1486.45 L2352.76 47.2441 L169.121 47.2441  Z" fill="#30343b" fill-rule="evenodd" fill-opacity="1"/>
<defs>
  <clipPath id="clip502">
    <rect x="169" y="47" width="2185" height="1440"/>
  </clipPath>
</defs>
<polyline clip-path="url(#clip502)" style="stroke:#f8f8f2; stroke-linecap:round; stroke-linejoin:round; stroke-width:2; stroke-opacity:0.1; fill:none" points="381.769,1486.45 381.769,47.2441 "/>
<polyline clip-path="url(#clip502)" style="stroke:#f8f8f2; stroke-linecap:round; stroke-linejoin:round; stroke-width:2; stroke-opacity:0.1; fill:none" points="844.49,1486.45 844.49,47.2441 "/>
<polyline clip-path="url(#clip502)" style="stroke:#f8f8f2; stroke-linecap:round; stroke-linejoin:round; stroke-width:2; stroke-opacity:0.1; fill:none" points="1307.21,1486.45 1307.21,47.2441 "/>
<polyline clip-path="url(#clip502)" style="stroke:#f8f8f2; stroke-linecap:round; stroke-linejoin:round; stroke-width:2; stroke-opacity:0.1; fill:none" points="1769.93,1486.45 1769.93,47.2441 "/>
<polyline clip-path="url(#clip502)" style="stroke:#f8f8f2; stroke-linecap:round; stroke-linejoin:round; stroke-width:2; stroke-opacity:0.1; fill:none" points="2232.65,1486.45 2232.65,47.2441 "/>
<polyline clip-path="url(#clip500)" style="stroke:#f8f8f2; stroke-linecap:round; stroke-linejoin:round; stroke-width:4; stroke-opacity:1; fill:none" points="169.121,1486.45 2352.76,1486.45 "/>
<polyline clip-path="url(#clip500)" style="stroke:#f8f8f2; stroke-linecap:round; stroke-linejoin:round; stroke-width:4; stroke-opacity:1; fill:none" points="381.769,1486.45 381.769,1467.55 "/>
<polyline clip-path="url(#clip500)" style="stroke:#f8f8f2; stroke-linecap:round; stroke-linejoin:round; stroke-width:4; stroke-opacity:1; fill:none" points="844.49,1486.45 844.49,1467.55 "/>
<polyline clip-path="url(#clip500)" style="stroke:#f8f8f2; stroke-linecap:round; stroke-linejoin:round; stroke-width:4; stroke-opacity:1; fill:none" points="1307.21,1486.45 1307.21,1467.55 "/>
<polyline clip-path="url(#clip500)" style="stroke:#f8f8f2; stroke-linecap:round; stroke-linejoin:round; stroke-width:4; stroke-opacity:1; fill:none" points="1769.93,1486.45 1769.93,1467.55 "/>
<polyline clip-path="url(#clip500)" style="stroke:#f8f8f2; stroke-linecap:round; stroke-linejoin:round; stroke-width:4; stroke-opacity:1; fill:none" points="2232.65,1486.45 2232.65,1467.55 "/>
<path clip-path="url(#clip500)" d="M359.154 1517.37 Q355.543 1517.37 353.714 1520.93 Q351.908 1524.47 351.908 1531.6 Q351.908 1538.71 353.714 1542.27 Q355.543 1545.82 359.154 1545.82 Q362.788 1545.82 364.593 1542.27 Q366.422 1538.71 366.422 1531.6 Q366.422 1524.47 364.593 1520.93 Q362.788 1517.37 359.154 1517.37 M359.154 1513.66 Q364.964 1513.66 368.019 1518.27 Q371.098 1522.85 371.098 1531.6 Q371.098 1540.33 368.019 1544.94 Q364.964 1549.52 359.154 1549.52 Q353.343 1549.52 350.265 1544.94 Q347.209 1540.33 347.209 1531.6 Q347.209 1522.85 350.265 1518.27 Q353.343 1513.66 359.154 1513.66 Z" fill="#f8f8f2" fill-rule="evenodd" fill-opacity="1" /><path clip-path="url(#clip500)" d="M379.316 1542.97 L384.2 1542.97 L384.2 1548.85 L379.316 1548.85 L379.316 1542.97 Z" fill="#f8f8f2" fill-rule="evenodd" fill-opacity="1" /><path clip-path="url(#clip500)" d="M404.385 1517.37 Q400.774 1517.37 398.945 1520.93 Q397.14 1524.47 397.14 1531.6 Q397.14 1538.71 398.945 1542.27 Q400.774 1545.82 404.385 1545.82 Q408.019 1545.82 409.825 1542.27 Q411.653 1538.71 411.653 1531.6 Q411.653 1524.47 409.825 1520.93 Q408.019 1517.37 404.385 1517.37 M404.385 1513.66 Q410.195 1513.66 413.251 1518.27 Q416.329 1522.85 416.329 1531.6 Q416.329 1540.33 413.251 1544.94 Q410.195 1549.52 404.385 1549.52 Q398.575 1549.52 395.496 1544.94 Q392.44 1540.33 392.44 1531.6 Q392.44 1522.85 395.496 1518.27 Q398.575 1513.66 404.385 1513.66 Z" fill="#f8f8f2" fill-rule="evenodd" fill-opacity="1" /><path clip-path="url(#clip500)" d="M816.226 1544.91 L832.546 1544.91 L832.546 1548.85 L810.601 1548.85 L810.601 1544.91 Q813.263 1542.16 817.847 1537.53 Q822.453 1532.88 823.634 1531.53 Q825.879 1529.01 826.759 1527.27 Q827.661 1525.51 827.661 1523.82 Q827.661 1521.07 825.717 1519.33 Q823.796 1517.6 820.694 1517.6 Q818.495 1517.6 816.041 1518.36 Q813.611 1519.13 810.833 1520.68 L810.833 1515.95 Q813.657 1514.82 816.11 1514.24 Q818.564 1513.66 820.601 1513.66 Q825.972 1513.66 829.166 1516.35 Q832.36 1519.03 832.36 1523.52 Q832.36 1525.65 831.55 1527.57 Q830.763 1529.47 828.657 1532.07 Q828.078 1532.74 824.976 1535.95 Q821.874 1539.15 816.226 1544.91 Z" fill="#f8f8f2" fill-rule="evenodd" fill-opacity="1" /><path clip-path="url(#clip500)" d="M842.36 1542.97 L847.245 1542.97 L847.245 1548.85 L842.36 1548.85 L842.36 1542.97 Z" fill="#f8f8f2" fill-rule="evenodd" fill-opacity="1" /><path clip-path="url(#clip500)" d="M857.476 1514.29 L875.832 1514.29 L875.832 1518.22 L861.758 1518.22 L861.758 1526.7 Q862.777 1526.35 863.795 1526.19 Q864.814 1526 865.832 1526 Q871.619 1526 874.999 1529.17 Q878.379 1532.34 878.379 1537.76 Q878.379 1543.34 874.906 1546.44 Q871.434 1549.52 865.115 1549.52 Q862.939 1549.52 860.67 1549.15 Q858.425 1548.78 856.018 1548.04 L856.018 1543.34 Q858.101 1544.47 860.323 1545.03 Q862.545 1545.58 865.022 1545.58 Q869.027 1545.58 871.365 1543.48 Q873.703 1541.37 873.703 1537.76 Q873.703 1534.15 871.365 1532.04 Q869.027 1529.94 865.022 1529.94 Q863.147 1529.94 861.272 1530.35 Q859.42 1530.77 857.476 1531.65 L857.476 1514.29 Z" fill="#f8f8f2" fill-rule="evenodd" fill-opacity="1" /><path clip-path="url(#clip500)" d="M1274.38 1514.29 L1292.73 1514.29 L1292.73 1518.22 L1278.66 1518.22 L1278.66 1526.7 Q1279.68 1526.35 1280.69 1526.19 Q1281.71 1526 1282.73 1526 Q1288.52 1526 1291.9 1529.17 Q1295.28 1532.34 1295.28 1537.76 Q1295.28 1543.34 1291.81 1546.44 Q1288.33 1549.52 1282.01 1549.52 Q1279.84 1549.52 1277.57 1549.15 Q1275.32 1548.78 1272.92 1548.04 L1272.92 1543.34 Q1275 1544.47 1277.22 1545.03 Q1279.44 1545.58 1281.92 1545.58 Q1285.93 1545.58 1288.26 1543.48 Q1290.6 1541.37 1290.6 1537.76 Q1290.6 1534.15 1288.26 1532.04 Q1285.93 1529.94 1281.92 1529.94 Q1280.05 1529.94 1278.17 1530.35 Q1276.32 1530.77 1274.38 1531.65 L1274.38 1514.29 Z" fill="#f8f8f2" fill-rule="evenodd" fill-opacity="1" /><path clip-path="url(#clip500)" d="M1304.49 1542.97 L1309.38 1542.97 L1309.38 1548.85 L1304.49 1548.85 L1304.49 1542.97 Z" fill="#f8f8f2" fill-rule="evenodd" fill-opacity="1" /><path clip-path="url(#clip500)" d="M1329.56 1517.37 Q1325.95 1517.37 1324.12 1520.93 Q1322.31 1524.47 1322.31 1531.6 Q1322.31 1538.71 1324.12 1542.27 Q1325.95 1545.82 1329.56 1545.82 Q1333.19 1545.82 1335 1542.27 Q1336.83 1538.71 1336.83 1531.6 Q1336.83 1524.47 1335 1520.93 Q1333.19 1517.37 1329.56 1517.37 M1329.56 1513.66 Q1335.37 1513.66 1338.43 1518.27 Q1341.5 1522.85 1341.5 1531.6 Q1341.5 1540.33 1338.43 1544.94 Q1335.37 1549.52 1329.56 1549.52 Q1323.75 1549.52 1320.67 1544.94 Q1317.62 1540.33 1317.62 1531.6 Q1317.62 1522.85 1320.67 1518.27 Q1323.75 1513.66 1329.56 1513.66 Z" fill="#f8f8f2" fill-rule="evenodd" fill-opacity="1" /><path clip-path="url(#clip500)" d="M1736.25 1514.29 L1758.47 1514.29 L1758.47 1516.28 L1745.93 1548.85 L1741.04 1548.85 L1752.85 1518.22 L1736.25 1518.22 L1736.25 1514.29 Z" fill="#f8f8f2" fill-rule="evenodd" fill-opacity="1" /><path clip-path="url(#clip500)" d="M1767.59 1542.97 L1772.48 1542.97 L1772.48 1548.85 L1767.59 1548.85 L1767.59 1542.97 Z" fill="#f8f8f2" fill-rule="evenodd" fill-opacity="1" /><path clip-path="url(#clip500)" d="M1782.71 1514.29 L1801.07 1514.29 L1801.07 1518.22 L1786.99 1518.22 L1786.99 1526.7 Q1788.01 1526.35 1789.03 1526.19 Q1790.05 1526 1791.07 1526 Q1796.85 1526 1800.23 1529.17 Q1803.61 1532.34 1803.61 1537.76 Q1803.61 1543.34 1800.14 1546.44 Q1796.67 1549.52 1790.35 1549.52 Q1788.17 1549.52 1785.9 1549.15 Q1783.66 1548.78 1781.25 1548.04 L1781.25 1543.34 Q1783.33 1544.47 1785.56 1545.03 Q1787.78 1545.58 1790.26 1545.58 Q1794.26 1545.58 1796.6 1543.48 Q1798.94 1541.37 1798.94 1537.76 Q1798.94 1534.15 1796.6 1532.04 Q1794.26 1529.94 1790.26 1529.94 Q1788.38 1529.94 1786.51 1530.35 Q1784.65 1530.77 1782.71 1531.65 L1782.71 1514.29 Z" fill="#f8f8f2" fill-rule="evenodd" fill-opacity="1" /><path clip-path="url(#clip500)" d="M2184.72 1544.91 L2192.36 1544.91 L2192.36 1518.55 L2184.05 1520.21 L2184.05 1515.95 L2192.32 1514.29 L2196.99 1514.29 L2196.99 1544.91 L2204.63 1544.91 L2204.63 1548.85 L2184.72 1548.85 L2184.72 1544.91 Z" fill="#f8f8f2" fill-rule="evenodd" fill-opacity="1" /><path clip-path="url(#clip500)" d="M2224.08 1517.37 Q2220.46 1517.37 2218.64 1520.93 Q2216.83 1524.47 2216.83 1531.6 Q2216.83 1538.71 2218.64 1542.27 Q2220.46 1545.82 2224.08 1545.82 Q2227.71 1545.82 2229.52 1542.27 Q2231.34 1538.71 2231.34 1531.6 Q2231.34 1524.47 2229.52 1520.93 Q2227.71 1517.37 2224.08 1517.37 M2224.08 1513.66 Q2229.89 1513.66 2232.94 1518.27 Q2236.02 1522.85 2236.02 1531.6 Q2236.02 1540.33 2232.94 1544.94 Q2229.89 1549.52 2224.08 1549.52 Q2218.27 1549.52 2215.19 1544.94 Q2212.13 1540.33 2212.13 1531.6 Q2212.13 1522.85 2215.19 1518.27 Q2218.27 1513.66 2224.08 1513.66 Z" fill="#f8f8f2" fill-rule="evenodd" fill-opacity="1" /><path clip-path="url(#clip500)" d="M2244.24 1542.97 L2249.12 1542.97 L2249.12 1548.85 L2244.24 1548.85 L2244.24 1542.97 Z" fill="#f8f8f2" fill-rule="evenodd" fill-opacity="1" /><path clip-path="url(#clip500)" d="M2269.31 1517.37 Q2265.7 1517.37 2263.87 1520.93 Q2262.06 1524.47 2262.06 1531.6 Q2262.06 1538.71 2263.87 1542.27 Q2265.7 1545.82 2269.31 1545.82 Q2272.94 1545.82 2274.75 1542.27 Q2276.58 1538.71 2276.58 1531.6 Q2276.58 1524.47 2274.75 1520.93 Q2272.94 1517.37 2269.31 1517.37 M2269.31 1513.66 Q2275.12 1513.66 2278.17 1518.27 Q2281.25 1522.85 2281.25 1531.6 Q2281.25 1540.33 2278.17 1544.94 Q2275.12 1549.52 2269.31 1549.52 Q2263.5 1549.52 2260.42 1544.94 Q2257.36 1540.33 2257.36 1531.6 Q2257.36 1522.85 2260.42 1518.27 Q2263.5 1513.66 2269.31 1513.66 Z" fill="#f8f8f2" fill-rule="evenodd" fill-opacity="1" /><polyline clip-path="url(#clip502)" style="stroke:#f8f8f2; stroke-linecap:round; stroke-linejoin:round; stroke-width:2; stroke-opacity:0.1; fill:none" points="169.121,1445.72 2352.76,1445.72 "/>
<polyline clip-path="url(#clip502)" style="stroke:#f8f8f2; stroke-linecap:round; stroke-linejoin:round; stroke-width:2; stroke-opacity:0.1; fill:none" points="169.121,996.133 2352.76,996.133 "/>
<polyline clip-path="url(#clip502)" style="stroke:#f8f8f2; stroke-linecap:round; stroke-linejoin:round; stroke-width:2; stroke-opacity:0.1; fill:none" points="169.121,546.551 2352.76,546.551 "/>
<polyline clip-path="url(#clip502)" style="stroke:#f8f8f2; stroke-linecap:round; stroke-linejoin:round; stroke-width:2; stroke-opacity:0.1; fill:none" points="169.121,96.9679 2352.76,96.9679 "/>
<polyline clip-path="url(#clip500)" style="stroke:#f8f8f2; stroke-linecap:round; stroke-linejoin:round; stroke-width:4; stroke-opacity:1; fill:none" points="169.121,1486.45 169.121,47.2441 "/>
<polyline clip-path="url(#clip500)" style="stroke:#f8f8f2; stroke-linecap:round; stroke-linejoin:round; stroke-width:4; stroke-opacity:1; fill:none" points="169.121,1445.72 188.019,1445.72 "/>
<polyline clip-path="url(#clip500)" style="stroke:#f8f8f2; stroke-linecap:round; stroke-linejoin:round; stroke-width:4; stroke-opacity:1; fill:none" points="169.121,996.133 188.019,996.133 "/>
<polyline clip-path="url(#clip500)" style="stroke:#f8f8f2; stroke-linecap:round; stroke-linejoin:round; stroke-width:4; stroke-opacity:1; fill:none" points="169.121,546.551 188.019,546.551 "/>
<polyline clip-path="url(#clip500)" style="stroke:#f8f8f2; stroke-linecap:round; stroke-linejoin:round; stroke-width:4; stroke-opacity:1; fill:none" points="169.121,96.9679 188.019,96.9679 "/>
<path clip-path="url(#clip500)" d="M121.177 1431.51 Q117.566 1431.51 115.737 1435.08 Q113.932 1438.62 113.932 1445.75 Q113.932 1452.86 115.737 1456.42 Q117.566 1459.96 121.177 1459.96 Q124.811 1459.96 126.617 1456.42 Q128.445 1452.86 128.445 1445.75 Q128.445 1438.62 126.617 1435.08 Q124.811 1431.51 121.177 1431.51 M121.177 1427.81 Q126.987 1427.81 130.043 1432.42 Q133.121 1437 133.121 1445.75 Q133.121 1454.48 130.043 1459.08 Q126.987 1463.67 121.177 1463.67 Q115.367 1463.67 112.288 1459.08 Q109.233 1454.48 109.233 1445.75 Q109.233 1437 112.288 1432.42 Q115.367 1427.81 121.177 1427.81 Z" fill="#f8f8f2" fill-rule="evenodd" fill-opacity="1" /><path clip-path="url(#clip500)" d="M81.0614 978.853 L99.4178 978.853 L99.4178 982.788 L85.3438 982.788 L85.3438 991.26 Q86.3623 990.913 87.3808 990.751 Q88.3993 990.566 89.4178 990.566 Q95.2049 990.566 98.5845 993.737 Q101.964 996.909 101.964 1002.33 Q101.964 1007.9 98.4919 1011.01 Q95.0197 1014.08 88.7003 1014.08 Q86.5243 1014.08 84.2558 1013.71 Q82.0105 1013.34 79.6031 1012.6 L79.6031 1007.9 Q81.6864 1009.04 83.9086 1009.59 Q86.1308 1010.15 88.6077 1010.15 Q92.6123 1010.15 94.9502 1008.04 Q97.2882 1005.94 97.2882 1002.33 Q97.2882 998.714 94.9502 996.608 Q92.6123 994.501 88.6077 994.501 Q86.7327 994.501 84.8577 994.918 Q83.0058 995.334 81.0614 996.214 L81.0614 978.853 Z" fill="#f8f8f2" fill-rule="evenodd" fill-opacity="1" /><path clip-path="url(#clip500)" d="M121.177 981.932 Q117.566 981.932 115.737 985.497 Q113.932 989.038 113.932 996.168 Q113.932 1003.27 115.737 1006.84 Q117.566 1010.38 121.177 1010.38 Q124.811 1010.38 126.617 1006.84 Q128.445 1003.27 128.445 996.168 Q128.445 989.038 126.617 985.497 Q124.811 981.932 121.177 981.932 M121.177 978.228 Q126.987 978.228 130.043 982.835 Q133.121 987.418 133.121 996.168 Q133.121 1004.89 130.043 1009.5 Q126.987 1014.08 121.177 1014.08 Q115.367 1014.08 112.288 1009.5 Q109.233 1004.89 109.233 996.168 Q109.233 987.418 112.288 982.835 Q115.367 978.228 121.177 978.228 Z" fill="#f8f8f2" fill-rule="evenodd" fill-opacity="1" /><path clip-path="url(#clip500)" d="M51.6634 559.895 L59.3023 559.895 L59.3023 533.53 L50.9921 535.196 L50.9921 530.937 L59.256 529.271 L63.9319 529.271 L63.9319 559.895 L71.5707 559.895 L71.5707 563.831 L51.6634 563.831 L51.6634 559.895 Z" fill="#f8f8f2" fill-rule="evenodd" fill-opacity="1" /><path clip-path="url(#clip500)" d="M91.0151 532.349 Q87.404 532.349 85.5753 535.914 Q83.7697 539.456 83.7697 546.585 Q83.7697 553.692 85.5753 557.256 Q87.404 560.798 91.0151 560.798 Q94.6493 560.798 96.4548 557.256 Q98.2835 553.692 98.2835 546.585 Q98.2835 539.456 96.4548 535.914 Q94.6493 532.349 91.0151 532.349 M91.0151 528.646 Q96.8252 528.646 99.8808 533.252 Q102.959 537.835 102.959 546.585 Q102.959 555.312 99.8808 559.919 Q96.8252 564.502 91.0151 564.502 Q85.2049 564.502 82.1262 559.919 Q79.0707 555.312 79.0707 546.585 Q79.0707 537.835 82.1262 533.252 Q85.2049 528.646 91.0151 528.646 Z" fill="#f8f8f2" fill-rule="evenodd" fill-opacity="1" /><path clip-path="url(#clip500)" d="M121.177 532.349 Q117.566 532.349 115.737 535.914 Q113.932 539.456 113.932 546.585 Q113.932 553.692 115.737 557.256 Q117.566 560.798 121.177 560.798 Q124.811 560.798 126.617 557.256 Q128.445 553.692 128.445 546.585 Q128.445 539.456 126.617 535.914 Q124.811 532.349 121.177 532.349 M121.177 528.646 Q126.987 528.646 130.043 533.252 Q133.121 537.835 133.121 546.585 Q133.121 555.312 130.043 559.919 Q126.987 564.502 121.177 564.502 Q115.367 564.502 112.288 559.919 Q109.233 555.312 109.233 546.585 Q109.233 537.835 112.288 533.252 Q115.367 528.646 121.177 528.646 Z" fill="#f8f8f2" fill-rule="evenodd" fill-opacity="1" /><path clip-path="url(#clip500)" d="M51.6634 110.313 L59.3023 110.313 L59.3023 83.9472 L50.9921 85.6138 L50.9921 81.3546 L59.256 79.6879 L63.9319 79.6879 L63.9319 110.313 L71.5707 110.313 L71.5707 114.248 L51.6634 114.248 L51.6634 110.313 Z" fill="#f8f8f2" fill-rule="evenodd" fill-opacity="1" /><path clip-path="url(#clip500)" d="M81.0614 79.6879 L99.4178 79.6879 L99.4178 83.6231 L85.3438 83.6231 L85.3438 92.0953 Q86.3623 91.748 87.3808 91.586 Q88.3993 91.4008 89.4178 91.4008 Q95.2049 91.4008 98.5845 94.5721 Q101.964 97.7434 101.964 103.16 Q101.964 108.739 98.4919 111.841 Q95.0197 114.919 88.7003 114.919 Q86.5243 114.919 84.2558 114.549 Q82.0105 114.178 79.6031 113.438 L79.6031 108.739 Q81.6864 109.873 83.9086 110.429 Q86.1308 110.984 88.6077 110.984 Q92.6123 110.984 94.9502 108.878 Q97.2882 106.771 97.2882 103.16 Q97.2882 99.5489 94.9502 97.4425 Q92.6123 95.336 88.6077 95.336 Q86.7327 95.336 84.8577 95.7527 Q83.0058 96.1693 81.0614 97.0489 L81.0614 79.6879 Z" fill="#f8f8f2" fill-rule="evenodd" fill-opacity="1" /><path clip-path="url(#clip500)" d="M121.177 82.7666 Q117.566 82.7666 115.737 86.3314 Q113.932 89.8731 113.932 97.0027 Q113.932 104.109 115.737 107.674 Q117.566 111.216 121.177 111.216 Q124.811 111.216 126.617 107.674 Q128.445 104.109 128.445 97.0027 Q128.445 89.8731 126.617 86.3314 Q124.811 82.7666 121.177 82.7666 M121.177 79.0629 Q126.987 79.0629 130.043 83.6694 Q133.121 88.2527 133.121 97.0027 Q133.121 105.729 130.043 110.336 Q126.987 114.919 121.177 114.919 Q115.367 114.919 112.288 110.336 Q109.233 105.729 109.233 97.0027 Q109.233 88.2527 112.288 83.6694 Q115.367 79.0629 121.177 79.0629 Z" fill="#f8f8f2" fill-rule="evenodd" fill-opacity="1" /><path clip-path="url(#clip502)" d="M289.225 1436.72 L289.225 1445.72 L381.769 1445.72 L381.769 1436.72 L289.225 1436.72 L289.225 1436.72  Z" fill="#8be9fd" fill-rule="evenodd" fill-opacity="1"/>
<polyline clip-path="url(#clip502)" style="stroke:#f8f8f2; stroke-linecap:round; stroke-linejoin:round; stroke-width:4; stroke-opacity:1; fill:none" points="289.225,1436.72 289.225,1445.72 381.769,1445.72 381.769,1436.72 289.225,1436.72 "/>
<path clip-path="url(#clip502)" d="M381.769 1427.73 L381.769 1445.72 L474.313 1445.72 L474.313 1427.73 L381.769 1427.73 L381.769 1427.73  Z" fill="#8be9fd" fill-rule="evenodd" fill-opacity="1"/>
<polyline clip-path="url(#clip502)" style="stroke:#f8f8f2; stroke-linecap:round; stroke-linejoin:round; stroke-width:4; stroke-opacity:1; fill:none" points="381.769,1427.73 381.769,1445.72 474.313,1445.72 474.313,1427.73 381.769,1427.73 "/>
<path clip-path="url(#clip502)" d="M474.313 1427.73 L474.313 1445.72 L566.858 1445.72 L566.858 1427.73 L474.313 1427.73 L474.313 1427.73  Z" fill="#8be9fd" fill-rule="evenodd" fill-opacity="1"/>
<polyline clip-path="url(#clip502)" style="stroke:#f8f8f2; stroke-linecap:round; stroke-linejoin:round; stroke-width:4; stroke-opacity:1; fill:none" points="474.313,1427.73 474.313,1445.72 566.858,1445.72 566.858,1427.73 474.313,1427.73 "/>
<path clip-path="url(#clip502)" d="M566.858 1409.75 L566.858 1445.72 L659.402 1445.72 L659.402 1409.75 L566.858 1409.75 L566.858 1409.75  Z" fill="#8be9fd" fill-rule="evenodd" fill-opacity="1"/>
<polyline clip-path="url(#clip502)" style="stroke:#f8f8f2; stroke-linecap:round; stroke-linejoin:round; stroke-width:4; stroke-opacity:1; fill:none" points="566.858,1409.75 566.858,1445.72 659.402,1445.72 659.402,1409.75 566.858,1409.75 "/>
<path clip-path="url(#clip502)" d="M659.402 1301.85 L659.402 1445.72 L751.946 1445.72 L751.946 1301.85 L659.402 1301.85 L659.402 1301.85  Z" fill="#8be9fd" fill-rule="evenodd" fill-opacity="1"/>
<polyline clip-path="url(#clip502)" style="stroke:#f8f8f2; stroke-linecap:round; stroke-linejoin:round; stroke-width:4; stroke-opacity:1; fill:none" points="659.402,1301.85 659.402,1445.72 751.946,1445.72 751.946,1301.85 659.402,1301.85 "/>
<path clip-path="url(#clip502)" d="M751.946 1211.93 L751.946 1445.72 L844.49 1445.72 L844.49 1211.93 L751.946 1211.93 L751.946 1211.93  Z" fill="#8be9fd" fill-rule="evenodd" fill-opacity="1"/>
<polyline clip-path="url(#clip502)" style="stroke:#f8f8f2; stroke-linecap:round; stroke-linejoin:round; stroke-width:4; stroke-opacity:1; fill:none" points="751.946,1211.93 751.946,1445.72 844.49,1445.72 844.49,1211.93 751.946,1211.93 "/>
<path clip-path="url(#clip502)" d="M844.49 1041.09 L844.49 1445.72 L937.034 1445.72 L937.034 1041.09 L844.49 1041.09 L844.49 1041.09  Z" fill="#8be9fd" fill-rule="evenodd" fill-opacity="1"/>
<polyline clip-path="url(#clip502)" style="stroke:#f8f8f2; stroke-linecap:round; stroke-linejoin:round; stroke-width:4; stroke-opacity:1; fill:none" points="844.49,1041.09 844.49,1445.72 937.034,1445.72 937.034,1041.09 844.49,1041.09 "/>
<path clip-path="url(#clip502)" d="M937.034 843.275 L937.034 1445.72 L1029.58 1445.72 L1029.58 843.275 L937.034 843.275 L937.034 843.275  Z" fill="#8be9fd" fill-rule="evenodd" fill-opacity="1"/>
<polyline clip-path="url(#clip502)" style="stroke:#f8f8f2; stroke-linecap:round; stroke-linejoin:round; stroke-width:4; stroke-opacity:1; fill:none" points="937.034,843.275 937.034,1445.72 1029.58,1445.72 1029.58,843.275 937.034,843.275 "/>
<path clip-path="url(#clip502)" d="M1029.58 636.467 L1029.58 1445.72 L1122.12 1445.72 L1122.12 636.467 L1029.58 636.467 L1029.58 636.467  Z" fill="#8be9fd" fill-rule="evenodd" fill-opacity="1"/>
<polyline clip-path="url(#clip502)" style="stroke:#f8f8f2; stroke-linecap:round; stroke-linejoin:round; stroke-width:4; stroke-opacity:1; fill:none" points="1029.58,636.467 1029.58,1445.72 1122.12,1445.72 1122.12,636.467 1029.58,636.467 "/>
<path clip-path="url(#clip502)" d="M1122.12 474.617 L1122.12 1445.72 L1214.67 1445.72 L1214.67 474.617 L1122.12 474.617 L1122.12 474.617  Z" fill="#8be9fd" fill-rule="evenodd" fill-opacity="1"/>
<polyline clip-path="url(#clip502)" style="stroke:#f8f8f2; stroke-linecap:round; stroke-linejoin:round; stroke-width:4; stroke-opacity:1; fill:none" points="1122.12,474.617 1122.12,1445.72 1214.67,1445.72 1214.67,474.617 1122.12,474.617 "/>
<path clip-path="url(#clip502)" d="M1214.67 258.818 L1214.67 1445.72 L1307.21 1445.72 L1307.21 258.818 L1214.67 258.818 L1214.67 258.818  Z" fill="#8be9fd" fill-rule="evenodd" fill-opacity="1"/>
<polyline clip-path="url(#clip502)" style="stroke:#f8f8f2; stroke-linecap:round; stroke-linejoin:round; stroke-width:4; stroke-opacity:1; fill:none" points="1214.67,258.818 1214.67,1445.72 1307.21,1445.72 1307.21,258.818 1214.67,258.818 "/>
<path clip-path="url(#clip502)" d="M1307.21 87.9763 L1307.21 1445.72 L1399.75 1445.72 L1399.75 87.9763 L1307.21 87.9763 L1307.21 87.9763  Z" fill="#8be9fd" fill-rule="evenodd" fill-opacity="1"/>
<polyline clip-path="url(#clip502)" style="stroke:#f8f8f2; stroke-linecap:round; stroke-linejoin:round; stroke-width:4; stroke-opacity:1; fill:none" points="1307.21,87.9763 1307.21,1445.72 1399.75,1445.72 1399.75,87.9763 1307.21,87.9763 "/>
<path clip-path="url(#clip502)" d="M1399.75 258.818 L1399.75 1445.72 L1492.3 1445.72 L1492.3 258.818 L1399.75 258.818 L1399.75 258.818  Z" fill="#8be9fd" fill-rule="evenodd" fill-opacity="1"/>
<polyline clip-path="url(#clip502)" style="stroke:#f8f8f2; stroke-linecap:round; stroke-linejoin:round; stroke-width:4; stroke-opacity:1; fill:none" points="1399.75,258.818 1399.75,1445.72 1492.3,1445.72 1492.3,258.818 1399.75,258.818 "/>
<path clip-path="url(#clip502)" d="M1492.3 771.342 L1492.3 1445.72 L1584.84 1445.72 L1584.84 771.342 L1492.3 771.342 L1492.3 771.342  Z" fill="#8be9fd" fill-rule="evenodd" fill-opacity="1"/>
<polyline clip-path="url(#clip502)" style="stroke:#f8f8f2; stroke-linecap:round; stroke-linejoin:round; stroke-width:4; stroke-opacity:1; fill:none" points="1492.3,771.342 1492.3,1445.72 1584.84,1445.72 1584.84,771.342 1492.3,771.342 "/>
<path clip-path="url(#clip502)" d="M1584.84 942.183 L1584.84 1445.72 L1677.39 1445.72 L1677.39 942.183 L1584.84 942.183 L1584.84 942.183  Z" fill="#8be9fd" fill-rule="evenodd" fill-opacity="1"/>
<polyline clip-path="url(#clip502)" style="stroke:#f8f8f2; stroke-linecap:round; stroke-linejoin:round; stroke-width:4; stroke-opacity:1; fill:none" points="1584.84,942.183 1584.84,1445.72 1677.39,1445.72 1677.39,942.183 1584.84,942.183 "/>
<path clip-path="url(#clip502)" d="M1677.39 1032.1 L1677.39 1445.72 L1769.93 1445.72 L1769.93 1032.1 L1677.39 1032.1 L1677.39 1032.1  Z" fill="#8be9fd" fill-rule="evenodd" fill-opacity="1"/>
<polyline clip-path="url(#clip502)" style="stroke:#f8f8f2; stroke-linecap:round; stroke-linejoin:round; stroke-width:4; stroke-opacity:1; fill:none" points="1677.39,1032.1 1677.39,1445.72 1769.93,1445.72 1769.93,1032.1 1677.39,1032.1 "/>
<path clip-path="url(#clip502)" d="M1769.93 1202.94 L1769.93 1445.72 L1862.48 1445.72 L1862.48 1202.94 L1769.93 1202.94 L1769.93 1202.94  Z" fill="#8be9fd" fill-rule="evenodd" fill-opacity="1"/>
<polyline clip-path="url(#clip502)" style="stroke:#f8f8f2; stroke-linecap:round; stroke-linejoin:round; stroke-width:4; stroke-opacity:1; fill:none" points="1769.93,1202.94 1769.93,1445.72 1862.48,1445.72 1862.48,1202.94 1769.93,1202.94 "/>
<path clip-path="url(#clip502)" d="M1862.48 1355.8 L1862.48 1445.72 L1955.02 1445.72 L1955.02 1355.8 L1862.48 1355.8 L1862.48 1355.8  Z" fill="#8be9fd" fill-rule="evenodd" fill-opacity="1"/>
<polyline clip-path="url(#clip502)" style="stroke:#f8f8f2; stroke-linecap:round; stroke-linejoin:round; stroke-width:4; stroke-opacity:1; fill:none" points="1862.48,1355.8 1862.48,1445.72 1955.02,1445.72 1955.02,1355.8 1862.48,1355.8 "/>
<path clip-path="url(#clip502)" d="M1955.02 1373.78 L1955.02 1445.72 L2047.56 1445.72 L2047.56 1373.78 L1955.02 1373.78 L1955.02 1373.78  Z" fill="#8be9fd" fill-rule="evenodd" fill-opacity="1"/>
<polyline clip-path="url(#clip502)" style="stroke:#f8f8f2; stroke-linecap:round; stroke-linejoin:round; stroke-width:4; stroke-opacity:1; fill:none" points="1955.02,1373.78 1955.02,1445.72 2047.56,1445.72 2047.56,1373.78 1955.02,1373.78 "/>
<path clip-path="url(#clip502)" d="M2047.56 1436.72 L2047.56 1445.72 L2140.11 1445.72 L2140.11 1436.72 L2047.56 1436.72 L2047.56 1436.72  Z" fill="#8be9fd" fill-rule="evenodd" fill-opacity="1"/>
<polyline clip-path="url(#clip502)" style="stroke:#f8f8f2; stroke-linecap:round; stroke-linejoin:round; stroke-width:4; stroke-opacity:1; fill:none" points="2047.56,1436.72 2047.56,1445.72 2140.11,1445.72 2140.11,1436.72 2047.56,1436.72 "/>
<path clip-path="url(#clip502)" d="M2140.11 1436.72 L2140.11 1445.72 L2232.65 1445.72 L2232.65 1436.72 L2140.11 1436.72 L2140.11 1436.72  Z" fill="#8be9fd" fill-rule="evenodd" fill-opacity="1"/>
<polyline clip-path="url(#clip502)" style="stroke:#f8f8f2; stroke-linecap:round; stroke-linejoin:round; stroke-width:4; stroke-opacity:1; fill:none" points="2140.11,1436.72 2140.11,1445.72 2232.65,1445.72 2232.65,1436.72 2140.11,1436.72 "/>
<circle clip-path="url(#clip502)" style="fill:#8be9fd; stroke:none; fill-opacity:0" cx="335.497" cy="1436.72" r="2"/>
<circle clip-path="url(#clip502)" style="fill:#8be9fd; stroke:none; fill-opacity:0" cx="428.041" cy="1427.73" r="2"/>
<circle clip-path="url(#clip502)" style="fill:#8be9fd; stroke:none; fill-opacity:0" cx="520.585" cy="1427.73" r="2"/>
<circle clip-path="url(#clip502)" style="fill:#8be9fd; stroke:none; fill-opacity:0" cx="613.13" cy="1409.75" r="2"/>
<circle clip-path="url(#clip502)" style="fill:#8be9fd; stroke:none; fill-opacity:0" cx="705.674" cy="1301.85" r="2"/>
<circle clip-path="url(#clip502)" style="fill:#8be9fd; stroke:none; fill-opacity:0" cx="798.218" cy="1211.93" r="2"/>
<circle clip-path="url(#clip502)" style="fill:#8be9fd; stroke:none; fill-opacity:0" cx="890.762" cy="1041.09" r="2"/>
<circle clip-path="url(#clip502)" style="fill:#8be9fd; stroke:none; fill-opacity:0" cx="983.306" cy="843.275" r="2"/>
<circle clip-path="url(#clip502)" style="fill:#8be9fd; stroke:none; fill-opacity:0" cx="1075.85" cy="636.467" r="2"/>
<circle clip-path="url(#clip502)" style="fill:#8be9fd; stroke:none; fill-opacity:0" cx="1168.39" cy="474.617" r="2"/>
<circle clip-path="url(#clip502)" style="fill:#8be9fd; stroke:none; fill-opacity:0" cx="1260.94" cy="258.818" r="2"/>
<circle clip-path="url(#clip502)" style="fill:#8be9fd; stroke:none; fill-opacity:0" cx="1353.48" cy="87.9763" r="2"/>
<circle clip-path="url(#clip502)" style="fill:#8be9fd; stroke:none; fill-opacity:0" cx="1446.03" cy="258.818" r="2"/>
<circle clip-path="url(#clip502)" style="fill:#8be9fd; stroke:none; fill-opacity:0" cx="1538.57" cy="771.342" r="2"/>
<circle clip-path="url(#clip502)" style="fill:#8be9fd; stroke:none; fill-opacity:0" cx="1631.12" cy="942.183" r="2"/>
<circle clip-path="url(#clip502)" style="fill:#8be9fd; stroke:none; fill-opacity:0" cx="1723.66" cy="1032.1" r="2"/>
<circle clip-path="url(#clip502)" style="fill:#8be9fd; stroke:none; fill-opacity:0" cx="1816.2" cy="1202.94" r="2"/>
<circle clip-path="url(#clip502)" style="fill:#8be9fd; stroke:none; fill-opacity:0" cx="1908.75" cy="1355.8" r="2"/>
<circle clip-path="url(#clip502)" style="fill:#8be9fd; stroke:none; fill-opacity:0" cx="2001.29" cy="1373.78" r="2"/>
<circle clip-path="url(#clip502)" style="fill:#8be9fd; stroke:none; fill-opacity:0" cx="2093.84" cy="1436.72" r="2"/>
<circle clip-path="url(#clip502)" style="fill:#8be9fd; stroke:none; fill-opacity:0" cx="2186.38" cy="1436.72" r="2"/>
<path clip-path="url(#clip500)" d="M2009.17 198.898 L2279.97 198.898 L2279.97 95.2176 L2009.17 95.2176  Z" fill="#282a36" fill-rule="evenodd" fill-opacity="1"/>
<polyline clip-path="url(#clip500)" style="stroke:#f8f8f2; stroke-linecap:round; stroke-linejoin:round; stroke-width:4; stroke-opacity:1; fill:none" points="2009.17,198.898 2279.97,198.898 2279.97,95.2176 2009.17,95.2176 2009.17,198.898 "/>
<path clip-path="url(#clip500)" d="M2033.44 167.794 L2179.01 167.794 L2179.01 126.322 L2033.44 126.322 L2033.44 167.794  Z" fill="#8be9fd" fill-rule="evenodd" fill-opacity="1"/>
<polyline clip-path="url(#clip500)" style="stroke:#f8f8f2; stroke-linecap:round; stroke-linejoin:round; stroke-width:4; stroke-opacity:1; fill:none" points="2033.44,167.794 2179.01,167.794 2179.01,126.322 2033.44,126.322 2033.44,167.794 "/>
<path clip-path="url(#clip500)" d="M2217.12 166.745 Q2215.31 171.375 2213.6 172.787 Q2211.89 174.199 2209.02 174.199 L2205.61 174.199 L2205.61 170.634 L2208.11 170.634 Q2209.87 170.634 2210.84 169.8 Q2211.82 168.967 2213 165.865 L2213.76 163.921 L2203.28 138.412 L2207.79 138.412 L2215.89 158.689 L2223.99 138.412 L2228.51 138.412 L2217.12 166.745 Z" fill="#f8f8f2" fill-rule="evenodd" fill-opacity="1" /><path clip-path="url(#clip500)" d="M2235.8 160.402 L2243.44 160.402 L2243.44 134.037 L2235.13 135.703 L2235.13 131.444 L2243.39 129.778 L2248.07 129.778 L2248.07 160.402 L2255.71 160.402 L2255.71 164.338 L2235.8 164.338 L2235.8 160.402 Z" fill="#f8f8f2" fill-rule="evenodd" fill-opacity="1" /></svg>
