<?xml version="1.0" encoding="utf-8"?>
<svg xmlns="http://www.w3.org/2000/svg" xmlns:xlink="http://www.w3.org/1999/xlink" width="672" height="480" viewBox="0 0 2688 1920">
<defs>
  <clipPath id="clip780">
    <rect x="0" y="0" width="2688" height="1920"/>
  </clipPath>
</defs>
<path clip-path="url(#clip780)" d="M0 1920 L2688 1920 L2688 0 L0 0  Z" fill="#282a36" fill-rule="evenodd" fill-opacity="1"/>
<defs>
  <clipPath id="clip781">
    <rect x="537" y="0" width="1883" height="1883"/>
  </clipPath>
</defs>
<path clip-path="url(#clip780)" d="M143.576 1800.78 L2640.76 1800.78 L2640.76 47.2441 L143.576 47.2441  Z" fill="#30343b" fill-rule="evenodd" fill-opacity="1"/>
<defs>
  <clipPath id="clip782">
    <rect x="143" y="47" width="2498" height="1755"/>
  </clipPath>
</defs>
<polyline clip-path="url(#clip782)" style="stroke:#f8f8f2; stroke-linecap:round; stroke-linejoin:round; stroke-width:2; stroke-opacity:0.1; fill:none" points="558.735,1800.78 558.735,47.2441 "/>
<polyline clip-path="url(#clip782)" style="stroke:#f8f8f2; stroke-linecap:round; stroke-linejoin:round; stroke-width:2; stroke-opacity:0.1; fill:none" points="1114.36,1800.78 1114.36,47.2441 "/>
<polyline clip-path="url(#clip782)" style="stroke:#f8f8f2; stroke-linecap:round; stroke-linejoin:round; stroke-width:2; stroke-opacity:0.1; fill:none" points="1669.98,1800.78 1669.98,47.2441 "/>
<polyline clip-path="url(#clip782)" style="stroke:#f8f8f2; stroke-linecap:round; stroke-linejoin:round; stroke-width:2; stroke-opacity:0.1; fill:none" points="2225.6,1800.78 2225.6,47.2441 "/>
<polyline clip-path="url(#clip780)" style="stroke:#f8f8f2; stroke-linecap:round; stroke-linejoin:round; stroke-width:4; stroke-opacity:1; fill:none" points="143.576,1800.78 2640.76,1800.78 "/>
<polyline clip-path="url(#clip780)" style="stroke:#f8f8f2; stroke-linecap:round; stroke-linejoin:round; stroke-width:4; stroke-opacity:1; fill:none" points="558.735,1800.78 558.735,1781.88 "/>
<polyline clip-path="url(#clip780)" style="stroke:#f8f8f2; stroke-linecap:round; stroke-linejoin:round; stroke-width:4; stroke-opacity:1; fill:none" points="1114.36,1800.78 1114.36,1781.88 "/>
<polyline clip-path="url(#clip780)" style="stroke:#f8f8f2; stroke-linecap:round; stroke-linejoin:round; stroke-width:4; stroke-opacity:1; fill:none" points="1669.98,1800.78 1669.98,1781.88 "/>
<polyline clip-path="url(#clip780)" style="stroke:#f8f8f2; stroke-linecap:round; stroke-linejoin:round; stroke-width:4; stroke-opacity:1; fill:none" points="2225.6,1800.78 2225.6,1781.88 "/>
<path clip-path="url(#clip780)" d="M553.388 1861.55 L569.707 1861.55 L569.707 1865.48 L547.763 1865.48 L547.763 1861.55 Q550.425 1858.79 555.008 1854.16 Q559.615 1849.51 560.795 1848.17 Q563.041 1845.65 563.92 1843.91 Q564.823 1842.15 564.823 1840.46 Q564.823 1837.71 562.879 1835.97 Q560.957 1834.23 557.855 1834.23 Q555.656 1834.23 553.203 1835 Q550.772 1835.76 547.994 1837.31 L547.994 1832.59 Q550.818 1831.46 553.272 1830.88 Q555.726 1830.3 557.763 1830.3 Q563.133 1830.3 566.328 1832.98 Q569.522 1835.67 569.522 1840.16 Q569.522 1842.29 568.712 1844.21 Q567.925 1846.11 565.818 1848.7 Q565.24 1849.37 562.138 1852.59 Q559.036 1855.78 553.388 1861.55 Z" fill="#f8f8f2" fill-rule="evenodd" fill-opacity="1" /><path clip-path="url(#clip780)" d="M1117.36 1835 L1105.56 1853.45 L1117.36 1853.45 L1117.36 1835 M1116.14 1830.92 L1122.02 1830.92 L1122.02 1853.45 L1126.95 1853.45 L1126.95 1857.34 L1122.02 1857.34 L1122.02 1865.48 L1117.36 1865.48 L1117.36 1857.34 L1101.76 1857.34 L1101.76 1852.82 L1116.14 1830.92 Z" fill="#f8f8f2" fill-rule="evenodd" fill-opacity="1" /><path clip-path="url(#clip780)" d="M1670.38 1846.34 Q1667.23 1846.34 1665.38 1848.49 Q1663.55 1850.65 1663.55 1854.4 Q1663.55 1858.12 1665.38 1860.3 Q1667.23 1862.45 1670.38 1862.45 Q1673.53 1862.45 1675.36 1860.3 Q1677.21 1858.12 1677.21 1854.4 Q1677.21 1850.65 1675.36 1848.49 Q1673.53 1846.34 1670.38 1846.34 M1679.66 1831.69 L1679.66 1835.95 Q1677.9 1835.11 1676.1 1834.67 Q1674.32 1834.23 1672.56 1834.23 Q1667.93 1834.23 1665.47 1837.36 Q1663.04 1840.48 1662.7 1846.8 Q1664.06 1844.79 1666.12 1843.72 Q1668.18 1842.64 1670.66 1842.64 Q1675.87 1842.64 1678.88 1845.81 Q1681.91 1848.96 1681.91 1854.4 Q1681.91 1859.72 1678.76 1862.94 Q1675.61 1866.15 1670.38 1866.15 Q1664.39 1866.15 1661.21 1861.57 Q1658.04 1856.96 1658.04 1848.24 Q1658.04 1840.04 1661.93 1835.18 Q1665.82 1830.3 1672.37 1830.3 Q1674.13 1830.3 1675.91 1830.65 Q1677.72 1830.99 1679.66 1831.69 Z" fill="#f8f8f2" fill-rule="evenodd" fill-opacity="1" /><path clip-path="url(#clip780)" d="M2225.6 1849.07 Q2222.26 1849.07 2220.34 1850.85 Q2218.44 1852.64 2218.44 1855.76 Q2218.44 1858.89 2220.34 1860.67 Q2222.26 1862.45 2225.6 1862.45 Q2228.93 1862.45 2230.85 1860.67 Q2232.77 1858.86 2232.77 1855.76 Q2232.77 1852.64 2230.85 1850.85 Q2228.95 1849.07 2225.6 1849.07 M2220.92 1847.08 Q2217.91 1846.34 2216.22 1844.28 Q2214.55 1842.22 2214.55 1839.26 Q2214.55 1835.11 2217.49 1832.71 Q2220.46 1830.3 2225.6 1830.3 Q2230.76 1830.3 2233.7 1832.71 Q2236.64 1835.11 2236.64 1839.26 Q2236.64 1842.22 2234.95 1844.28 Q2233.28 1846.34 2230.3 1847.08 Q2233.67 1847.87 2235.55 1850.16 Q2237.45 1852.45 2237.45 1855.76 Q2237.45 1860.78 2234.37 1863.47 Q2231.31 1866.15 2225.6 1866.15 Q2219.88 1866.15 2216.8 1863.47 Q2213.74 1860.78 2213.74 1855.76 Q2213.74 1852.45 2215.64 1850.16 Q2217.54 1847.87 2220.92 1847.08 M2219.21 1839.7 Q2219.21 1842.38 2220.87 1843.89 Q2222.56 1845.39 2225.6 1845.39 Q2228.61 1845.39 2230.3 1843.89 Q2232.01 1842.38 2232.01 1839.7 Q2232.01 1837.01 2230.3 1835.51 Q2228.61 1834 2225.6 1834 Q2222.56 1834 2220.87 1835.51 Q2219.21 1837.01 2219.21 1839.7 Z" fill="#f8f8f2" fill-rule="evenodd" fill-opacity="1" /><polyline clip-path="url(#clip782)" style="stroke:#f8f8f2; stroke-linecap:round; stroke-linejoin:round; stroke-width:2; stroke-opacity:0.1; fill:none" points="143.576,1751.15 2640.76,1751.15 "/>
<polyline clip-path="url(#clip782)" style="stroke:#f8f8f2; stroke-linecap:round; stroke-linejoin:round; stroke-width:2; stroke-opacity:0.1; fill:none" points="143.576,1217.51 2640.76,1217.51 "/>
<polyline clip-path="url(#clip782)" style="stroke:#f8f8f2; stroke-linecap:round; stroke-linejoin:round; stroke-width:2; stroke-opacity:0.1; fill:none" points="143.576,683.874 2640.76,683.874 "/>
<polyline clip-path="url(#clip782)" style="stroke:#f8f8f2; stroke-linecap:round; stroke-linejoin:round; stroke-width:2; stroke-opacity:0.1; fill:none" points="143.576,150.236 2640.76,150.236 "/>
<polyline clip-path="url(#clip780)" style="stroke:#f8f8f2; stroke-linecap:round; stroke-linejoin:round; stroke-width:4; stroke-opacity:1; fill:none" points="143.576,1800.78 143.576,47.2441 "/>
<polyline clip-path="url(#clip780)" style="stroke:#f8f8f2; stroke-linecap:round; stroke-linejoin:round; stroke-width:4; stroke-opacity:1; fill:none" points="143.576,1751.15 162.473,1751.15 "/>
<polyline clip-path="url(#clip780)" style="stroke:#f8f8f2; stroke-linecap:round; stroke-linejoin:round; stroke-width:4; stroke-opacity:1; fill:none" points="143.576,1217.51 162.473,1217.51 "/>
<polyline clip-path="url(#clip780)" style="stroke:#f8f8f2; stroke-linecap:round; stroke-linejoin:round; stroke-width:4; stroke-opacity:1; fill:none" points="143.576,683.874 162.473,683.874 "/>
<polyline clip-path="url(#clip780)" style="stroke:#f8f8f2; stroke-linecap:round; stroke-linejoin:round; stroke-width:4; stroke-opacity:1; fill:none" points="143.576,150.236 162.473,150.236 "/>
<path clip-path="url(#clip780)" d="M91.3112 1736.95 Q87.7001 1736.95 85.8714 1740.51 Q84.0658 1744.06 84.0658 1751.19 Q84.0658 1758.29 85.8714 1761.86 Q87.7001 1765.4 91.3112 1765.4 Q94.9454 1765.4 96.7509 1761.86 Q98.5796 1758.29 98.5796 1751.19 Q98.5796 1744.06 96.7509 1740.51 Q94.9454 1736.95 91.3112 1736.95 M91.3112 1733.25 Q97.1213 1733.25 100.177 1737.85 Q103.256 1742.44 103.256 1751.19 Q103.256 1759.91 100.177 1764.52 Q97.1213 1769.1 91.3112 1769.1 Q85.501 1769.1 82.4223 1764.52 Q79.3668 1759.91 79.3668 1751.19 Q79.3668 1742.44 82.4223 1737.85 Q85.501 1733.25 91.3112 1733.25 Z" fill="#f8f8f2" fill-rule="evenodd" fill-opacity="1" /><path clip-path="url(#clip780)" d="M51.9595 1230.86 L59.5984 1230.86 L59.5984 1204.49 L51.2882 1206.16 L51.2882 1201.9 L59.5521 1200.23 L64.228 1200.23 L64.228 1230.86 L71.8668 1230.86 L71.8668 1234.79 L51.9595 1234.79 L51.9595 1230.86 Z" fill="#f8f8f2" fill-rule="evenodd" fill-opacity="1" /><path clip-path="url(#clip780)" d="M91.3112 1203.31 Q87.7001 1203.31 85.8714 1206.88 Q84.0658 1210.42 84.0658 1217.55 Q84.0658 1224.65 85.8714 1228.22 Q87.7001 1231.76 91.3112 1231.76 Q94.9454 1231.76 96.7509 1228.22 Q98.5796 1224.65 98.5796 1217.55 Q98.5796 1210.42 96.7509 1206.88 Q94.9454 1203.31 91.3112 1203.31 M91.3112 1199.61 Q97.1213 1199.61 100.177 1204.21 Q103.256 1208.8 103.256 1217.55 Q103.256 1226.27 100.177 1230.88 Q97.1213 1235.46 91.3112 1235.46 Q85.501 1235.46 82.4223 1230.88 Q79.3668 1226.27 79.3668 1217.55 Q79.3668 1208.8 82.4223 1204.21 Q85.501 1199.61 91.3112 1199.61 Z" fill="#f8f8f2" fill-rule="evenodd" fill-opacity="1" /><path clip-path="url(#clip780)" d="M55.1771 697.219 L71.4965 697.219 L71.4965 701.154 L49.5521 701.154 L49.5521 697.219 Q52.2141 694.465 56.7975 689.835 Q61.4039 685.182 62.5845 683.84 Q64.8298 681.317 65.7094 679.581 Q66.6122 677.821 66.6122 676.131 Q66.6122 673.377 64.6678 671.641 Q62.7465 669.905 59.6447 669.905 Q57.4456 669.905 54.9919 670.669 Q52.5614 671.432 49.7836 672.983 L49.7836 668.261 Q52.6077 667.127 55.0614 666.548 Q57.515 665.97 59.5521 665.97 Q64.9224 665.97 68.1168 668.655 Q71.3113 671.34 71.3113 675.831 Q71.3113 677.96 70.5011 679.881 Q69.7141 681.78 67.6076 684.372 Q67.0289 685.043 63.927 688.261 Q60.8252 691.455 55.1771 697.219 Z" fill="#f8f8f2" fill-rule="evenodd" fill-opacity="1" /><path clip-path="url(#clip780)" d="M91.3112 669.673 Q87.7001 669.673 85.8714 673.238 Q84.0658 676.78 84.0658 683.909 Q84.0658 691.016 85.8714 694.58 Q87.7001 698.122 91.3112 698.122 Q94.9454 698.122 96.7509 694.58 Q98.5796 691.016 98.5796 683.909 Q98.5796 676.78 96.7509 673.238 Q94.9454 669.673 91.3112 669.673 M91.3112 665.97 Q97.1213 665.97 100.177 670.576 Q103.256 675.159 103.256 683.909 Q103.256 692.636 100.177 697.242 Q97.1213 701.826 91.3112 701.826 Q85.501 701.826 82.4223 697.242 Q79.3668 692.636 79.3668 683.909 Q79.3668 675.159 82.4223 670.576 Q85.501 665.97 91.3112 665.97 Z" fill="#f8f8f2" fill-rule="evenodd" fill-opacity="1" /><path clip-path="url(#clip780)" d="M65.3159 148.882 Q68.6724 149.6 70.5474 151.868 Q72.4455 154.137 72.4455 157.47 Q72.4455 162.586 68.927 165.387 Q65.4085 168.188 58.9271 168.188 Q56.7512 168.188 54.4364 167.748 Q52.1447 167.331 49.691 166.475 L49.691 161.961 Q51.6354 163.095 53.9503 163.674 Q56.2651 164.252 58.7882 164.252 Q63.1863 164.252 65.478 162.516 Q67.7928 160.78 67.7928 157.47 Q67.7928 154.414 65.64 152.702 Q63.5104 150.965 59.691 150.965 L55.6632 150.965 L55.6632 147.123 L59.8761 147.123 Q63.3252 147.123 65.1539 145.757 Q66.9826 144.368 66.9826 141.776 Q66.9826 139.114 65.0845 137.702 Q63.2095 136.266 59.691 136.266 Q57.7697 136.266 55.5706 136.683 Q53.3715 137.1 50.7327 137.979 L50.7327 133.813 Q53.3947 133.072 55.7095 132.702 Q58.0475 132.331 60.1076 132.331 Q65.4317 132.331 68.5335 134.762 Q71.6353 137.169 71.6353 141.29 Q71.6353 144.16 69.9918 146.151 Q68.3483 148.118 65.3159 148.882 Z" fill="#f8f8f2" fill-rule="evenodd" fill-opacity="1" /><path clip-path="url(#clip780)" d="M91.3112 136.035 Q87.7001 136.035 85.8714 139.6 Q84.0658 143.141 84.0658 150.271 Q84.0658 157.377 85.8714 160.942 Q87.7001 164.484 91.3112 164.484 Q94.9454 164.484 96.7509 160.942 Q98.5796 157.377 98.5796 150.271 Q98.5796 143.141 96.7509 139.6 Q94.9454 136.035 91.3112 136.035 M91.3112 132.331 Q97.1213 132.331 100.177 136.938 Q103.256 141.521 103.256 150.271 Q103.256 158.998 100.177 163.604 Q97.1213 168.188 91.3112 168.188 Q85.501 168.188 82.4223 163.604 Q79.3668 158.998 79.3668 150.271 Q79.3668 141.521 82.4223 136.938 Q85.501 132.331 91.3112 132.331 Z" fill="#f8f8f2" fill-rule="evenodd" fill-opacity="1" /><path clip-path="url(#clip782)" d="M280.925 1644.42 L280.925 1751.15 L558.735 1751.15 L558.735 1644.42 L280.925 1644.42 L280.925 1644.42  Z" fill="#8be9fd" fill-rule="evenodd" fill-opacity="1"/>
<polyline clip-path="url(#clip782)" style="stroke:#f8f8f2; stroke-linecap:round; stroke-linejoin:round; stroke-width:4; stroke-opacity:1; fill:none" points="280.925,1644.42 280.925,1751.15 558.735,1751.15 558.735,1644.42 280.925,1644.42 "/>
<path clip-path="url(#clip782)" d="M558.735 1377.6 L558.735 1751.15 L836.545 1751.15 L836.545 1377.6 L558.735 1377.6 L558.735 1377.6  Z" fill="#8be9fd" fill-rule="evenodd" fill-opacity="1"/>
<polyline clip-path="url(#clip782)" style="stroke:#f8f8f2; stroke-linecap:round; stroke-linejoin:round; stroke-width:4; stroke-opacity:1; fill:none" points="558.735,1377.6 558.735,1751.15 836.545,1751.15 836.545,1377.6 558.735,1377.6 "/>
<path clip-path="url(#clip782)" d="M836.545 1110.79 L836.545 1751.15 L1114.36 1751.15 L1114.36 1110.79 L836.545 1110.79 L836.545 1110.79  Z" fill="#8be9fd" fill-rule="evenodd" fill-opacity="1"/>
<polyline clip-path="url(#clip782)" style="stroke:#f8f8f2; stroke-linecap:round; stroke-linejoin:round; stroke-width:4; stroke-opacity:1; fill:none" points="836.545,1110.79 836.545,1751.15 1114.36,1751.15 1114.36,1110.79 836.545,1110.79 "/>
<path clip-path="url(#clip782)" d="M1114.36 96.8724 L1114.36 1751.15 L1392.17 1751.15 L1392.17 96.8724 L1114.36 96.8724 L1114.36 96.8724  Z" fill="#8be9fd" fill-rule="evenodd" fill-opacity="1"/>
<polyline clip-path="url(#clip782)" style="stroke:#f8f8f2; stroke-linecap:round; stroke-linejoin:round; stroke-width:4; stroke-opacity:1; fill:none" points="1114.36,96.8724 1114.36,1751.15 1392.17,1751.15 1392.17,96.8724 1114.36,96.8724 "/>
<path clip-path="url(#clip782)" d="M1392.17 417.055 L1392.17 1751.15 L1669.98 1751.15 L1669.98 417.055 L1392.17 417.055 L1392.17 417.055  Z" fill="#8be9fd" fill-rule="evenodd" fill-opacity="1"/>
<polyline clip-path="url(#clip782)" style="stroke:#f8f8f2; stroke-linecap:round; stroke-linejoin:round; stroke-width:4; stroke-opacity:1; fill:none" points="1392.17,417.055 1392.17,1751.15 1669.98,1751.15 1669.98,417.055 1392.17,417.055 "/>
<path clip-path="url(#clip782)" d="M1669.98 1057.42 L1669.98 1751.15 L1947.79 1751.15 L1947.79 1057.42 L1669.98 1057.42 L1669.98 1057.42  Z" fill="#8be9fd" fill-rule="evenodd" fill-opacity="1"/>
<polyline clip-path="url(#clip782)" style="stroke:#f8f8f2; stroke-linecap:round; stroke-linejoin:round; stroke-width:4; stroke-opacity:1; fill:none" points="1669.98,1057.42 1669.98,1751.15 1947.79,1751.15 1947.79,1057.42 1669.98,1057.42 "/>
<path clip-path="url(#clip782)" d="M1947.79 1324.24 L1947.79 1751.15 L2225.6 1751.15 L2225.6 1324.24 L1947.79 1324.24 L1947.79 1324.24  Z" fill="#8be9fd" fill-rule="evenodd" fill-opacity="1"/>
<polyline clip-path="url(#clip782)" style="stroke:#f8f8f2; stroke-linecap:round; stroke-linejoin:round; stroke-width:4; stroke-opacity:1; fill:none" points="1947.79,1324.24 1947.79,1751.15 2225.6,1751.15 2225.6,1324.24 1947.79,1324.24 "/>
<path clip-path="url(#clip782)" d="M2225.6 1644.42 L2225.6 1751.15 L2503.41 1751.15 L2503.41 1644.42 L2225.6 1644.42 L2225.6 1644.42  Z" fill="#8be9fd" fill-rule="evenodd" fill-opacity="1"/>
<polyline clip-path="url(#clip782)" style="stroke:#f8f8f2; stroke-linecap:round; stroke-linejoin:round; stroke-width:4; stroke-opacity:1; fill:none" points="2225.6,1644.42 2225.6,1751.15 2503.41,1751.15 2503.41,1644.42 2225.6,1644.42 "/>
<circle clip-path="url(#clip782)" style="fill:#8be9fd; stroke:none; fill-opacity:0" cx="419.83" cy="1644.42" r="2"/>
<circle clip-path="url(#clip782)" style="fill:#8be9fd; stroke:none; fill-opacity:0" cx="697.64" cy="1377.6" r="2"/>
<circle clip-path="url(#clip782)" style="fill:#8be9fd; stroke:none; fill-opacity:0" cx="975.45" cy="1110.79" r="2"/>
<circle clip-path="url(#clip782)" style="fill:#8be9fd; stroke:none; fill-opacity:0" cx="1253.26" cy="96.8724" r="2"/>
<circle clip-path="url(#clip782)" style="fill:#8be9fd; stroke:none; fill-opacity:0" cx="1531.07" cy="417.055" r="2"/>
<circle clip-path="url(#clip782)" style="fill:#8be9fd; stroke:none; fill-opacity:0" cx="1808.88" cy="1057.42" r="2"/>
<circle clip-path="url(#clip782)" style="fill:#8be9fd; stroke:none; fill-opacity:0" cx="2086.69" cy="1324.24" r="2"/>
<circle clip-path="url(#clip782)" style="fill:#8be9fd; stroke:none; fill-opacity:0" cx="2364.5" cy="1644.42" r="2"/>
<path clip-path="url(#clip780)" d="M2255.37 209.375 L2557.52 209.375 L2557.52 105.695 L2255.37 105.695  Z" fill="#282a36" fill-rule="evenodd" fill-opacity="1"/>
<polyline clip-path="url(#clip780)" style="stroke:#f8f8f2; stroke-linecap:round; stroke-linejoin:round; stroke-width:4; stroke-opacity:1; fill:none" points="2255.37,209.375 2557.52,209.375 2557.52,105.695 2255.37,105.695 2255.37,209.375 "/>
<path clip-path="url(#clip780)" d="M2283.11 178.271 L2449.59 178.271 L2449.59 136.799 L2283.11 136.799 L2283.11 178.271  Z" fill="#8be9fd" fill-rule="evenodd" fill-opacity="1"/>
<polyline clip-path="url(#clip780)" style="stroke:#f8f8f2; stroke-linecap:round; stroke-linejoin:round; stroke-width:4; stroke-opacity:1; fill:none" points="2283.11,178.271 2449.59,178.271 2449.59,136.799 2283.11,136.799 2283.11,178.271 "/>
<path clip-path="url(#clip780)" d="M2491.18 177.223 Q2489.38 181.852 2487.66 183.264 Q2485.95 184.676 2483.08 184.676 L2479.68 184.676 L2479.68 181.112 L2482.18 181.112 Q2483.94 181.112 2484.91 180.278 Q2485.88 179.445 2487.06 176.343 L2487.83 174.399 L2477.34 148.889 L2481.85 148.889 L2489.96 169.167 L2498.06 148.889 L2502.57 148.889 L2491.18 177.223 Z" fill="#f8f8f2" fill-rule="evenodd" fill-opacity="1" /><path clip-path="url(#clip780)" d="M2509.86 170.88 L2517.5 170.88 L2517.5 144.515 L2509.19 146.181 L2509.19 141.922 L2517.46 140.255 L2522.13 140.255 L2522.13 170.88 L2529.77 170.88 L2529.77 174.815 L2509.86 174.815 L2509.86 170.88 Z" fill="#f8f8f2" fill-rule="evenodd" fill-opacity="1" /></svg>
