<?xml version="1.0" encoding="utf-8"?>
<svg xmlns="http://www.w3.org/2000/svg" xmlns:xlink="http://www.w3.org/1999/xlink" width="672" height="480" viewBox="0 0 2688 1920">
<defs>
  <clipPath id="clip980">
    <rect x="0" y="0" width="2688" height="1920"/>
  </clipPath>
</defs>
<path clip-path="url(#clip980)" d="M0 1920 L2688 1920 L2688 0 L0 0  Z" fill="#282a36" fill-rule="evenodd" fill-opacity="1"/>
<defs>
  <clipPath id="clip981">
    <rect x="537" y="0" width="1883" height="1883"/>
  </clipPath>
</defs>
<path clip-path="url(#clip980)" d="M172.001 1800.78 L2640.76 1800.78 L2640.76 47.2441 L172.001 47.2441  Z" fill="#30343b" fill-rule="evenodd" fill-opacity="1"/>
<defs>
  <clipPath id="clip982">
    <rect x="172" y="47" width="2470" height="1755"/>
  </clipPath>
</defs>
<polyline clip-path="url(#clip982)" style="stroke:#f8f8f2; stroke-linecap:round; stroke-linejoin:round; stroke-width:2; stroke-opacity:0.1; fill:none" points="192.146,1800.78 192.146,47.2441 "/>
<polyline clip-path="url(#clip982)" style="stroke:#f8f8f2; stroke-linecap:round; stroke-linejoin:round; stroke-width:2; stroke-opacity:0.1; fill:none" points="770.352,1800.78 770.352,47.2441 "/>
<polyline clip-path="url(#clip982)" style="stroke:#f8f8f2; stroke-linecap:round; stroke-linejoin:round; stroke-width:2; stroke-opacity:0.1; fill:none" points="1348.56,1800.78 1348.56,47.2441 "/>
<polyline clip-path="url(#clip982)" style="stroke:#f8f8f2; stroke-linecap:round; stroke-linejoin:round; stroke-width:2; stroke-opacity:0.1; fill:none" points="1926.76,1800.78 1926.76,47.2441 "/>
<polyline clip-path="url(#clip982)" style="stroke:#f8f8f2; stroke-linecap:round; stroke-linejoin:round; stroke-width:2; stroke-opacity:0.1; fill:none" points="2504.97,1800.78 2504.97,47.2441 "/>
<polyline clip-path="url(#clip980)" style="stroke:#f8f8f2; stroke-linecap:round; stroke-linejoin:round; stroke-width:4; stroke-opacity:1; fill:none" points="172.001,1800.78 2640.76,1800.78 "/>
<polyline clip-path="url(#clip980)" style="stroke:#f8f8f2; stroke-linecap:round; stroke-linejoin:round; stroke-width:4; stroke-opacity:1; fill:none" points="192.146,1800.78 192.146,1781.88 "/>
<polyline clip-path="url(#clip980)" style="stroke:#f8f8f2; stroke-linecap:round; stroke-linejoin:round; stroke-width:4; stroke-opacity:1; fill:none" points="770.352,1800.78 770.352,1781.88 "/>
<polyline clip-path="url(#clip980)" style="stroke:#f8f8f2; stroke-linecap:round; stroke-linejoin:round; stroke-width:4; stroke-opacity:1; fill:none" points="1348.56,1800.78 1348.56,1781.88 "/>
<polyline clip-path="url(#clip980)" style="stroke:#f8f8f2; stroke-linecap:round; stroke-linejoin:round; stroke-width:4; stroke-opacity:1; fill:none" points="1926.76,1800.78 1926.76,1781.88 "/>
<polyline clip-path="url(#clip980)" style="stroke:#f8f8f2; stroke-linecap:round; stroke-linejoin:round; stroke-width:4; stroke-opacity:1; fill:none" points="2504.97,1800.78 2504.97,1781.88 "/>
<path clip-path="url(#clip980)" d="M169.53 1834 Q165.919 1834 164.091 1837.57 Q162.285 1841.11 162.285 1848.24 Q162.285 1855.34 164.091 1858.91 Q165.919 1862.45 169.53 1862.45 Q173.165 1862.45 174.97 1858.91 Q176.799 1855.34 176.799 1848.24 Q176.799 1841.11 174.97 1837.57 Q173.165 1834 169.53 1834 M169.53 1830.3 Q175.341 1830.3 178.396 1834.9 Q181.475 1839.49 181.475 1848.24 Q181.475 1856.96 178.396 1861.57 Q175.341 1866.15 169.53 1866.15 Q163.72 1866.15 160.642 1861.57 Q157.586 1856.96 157.586 1848.24 Q157.586 1839.49 160.642 1834.9 Q163.72 1830.3 169.53 1830.3 Z" fill="#f8f8f2" fill-rule="evenodd" fill-opacity="1" /><path clip-path="url(#clip980)" d="M189.692 1859.6 L194.577 1859.6 L194.577 1865.48 L189.692 1865.48 L189.692 1859.6 Z" fill="#f8f8f2" fill-rule="evenodd" fill-opacity="1" /><path clip-path="url(#clip980)" d="M214.762 1834 Q211.151 1834 209.322 1837.57 Q207.516 1841.11 207.516 1848.24 Q207.516 1855.34 209.322 1858.91 Q211.151 1862.45 214.762 1862.45 Q218.396 1862.45 220.201 1858.91 Q222.03 1855.34 222.03 1848.24 Q222.03 1841.11 220.201 1837.57 Q218.396 1834 214.762 1834 M214.762 1830.3 Q220.572 1830.3 223.627 1834.9 Q226.706 1839.49 226.706 1848.24 Q226.706 1856.96 223.627 1861.57 Q220.572 1866.15 214.762 1866.15 Q208.951 1866.15 205.873 1861.57 Q202.817 1856.96 202.817 1848.24 Q202.817 1839.49 205.873 1834.9 Q208.951 1830.3 214.762 1830.3 Z" fill="#f8f8f2" fill-rule="evenodd" fill-opacity="1" /><path clip-path="url(#clip980)" d="M742.088 1861.55 L758.408 1861.55 L758.408 1865.48 L736.463 1865.48 L736.463 1861.55 Q739.125 1858.79 743.709 1854.16 Q748.315 1849.51 749.496 1848.17 Q751.741 1845.65 752.621 1843.91 Q753.523 1842.15 753.523 1840.46 Q753.523 1837.71 751.579 1835.97 Q749.658 1834.23 746.556 1834.23 Q744.357 1834.23 741.903 1835 Q739.473 1835.76 736.695 1837.31 L736.695 1832.59 Q739.519 1831.46 741.973 1830.88 Q744.426 1830.3 746.463 1830.3 Q751.834 1830.3 755.028 1832.98 Q758.222 1835.67 758.222 1840.16 Q758.222 1842.29 757.412 1844.21 Q756.625 1846.11 754.519 1848.7 Q753.94 1849.37 750.838 1852.59 Q747.736 1855.78 742.088 1861.55 Z" fill="#f8f8f2" fill-rule="evenodd" fill-opacity="1" /><path clip-path="url(#clip980)" d="M768.222 1859.6 L773.107 1859.6 L773.107 1865.48 L768.222 1865.48 L768.222 1859.6 Z" fill="#f8f8f2" fill-rule="evenodd" fill-opacity="1" /><path clip-path="url(#clip980)" d="M783.338 1830.92 L801.694 1830.92 L801.694 1834.86 L787.62 1834.86 L787.62 1843.33 Q788.639 1842.98 789.657 1842.82 Q790.676 1842.64 791.694 1842.64 Q797.481 1842.64 800.861 1845.81 Q804.241 1848.98 804.241 1854.4 Q804.241 1859.97 800.769 1863.08 Q797.296 1866.15 790.977 1866.15 Q788.801 1866.15 786.532 1865.78 Q784.287 1865.41 781.88 1864.67 L781.88 1859.97 Q783.963 1861.11 786.185 1861.66 Q788.407 1862.22 790.884 1862.22 Q794.889 1862.22 797.227 1860.11 Q799.565 1858.01 799.565 1854.4 Q799.565 1850.78 797.227 1848.68 Q794.889 1846.57 790.884 1846.57 Q789.009 1846.57 787.134 1846.99 Q785.282 1847.4 783.338 1848.28 L783.338 1830.92 Z" fill="#f8f8f2" fill-rule="evenodd" fill-opacity="1" /><path clip-path="url(#clip980)" d="M1315.72 1830.92 L1334.08 1830.92 L1334.08 1834.86 L1320 1834.86 L1320 1843.33 Q1321.02 1842.98 1322.04 1842.82 Q1323.06 1842.64 1324.08 1842.64 Q1329.87 1842.64 1333.25 1845.81 Q1336.63 1848.98 1336.63 1854.4 Q1336.63 1859.97 1333.15 1863.08 Q1329.68 1866.15 1323.36 1866.15 Q1321.19 1866.15 1318.92 1865.78 Q1316.67 1865.41 1314.26 1864.67 L1314.26 1859.97 Q1316.35 1861.11 1318.57 1861.66 Q1320.79 1862.22 1323.27 1862.22 Q1327.27 1862.22 1329.61 1860.11 Q1331.95 1858.01 1331.95 1854.4 Q1331.95 1850.78 1329.61 1848.68 Q1327.27 1846.57 1323.27 1846.57 Q1321.39 1846.57 1319.52 1846.99 Q1317.67 1847.4 1315.72 1848.28 L1315.72 1830.92 Z" fill="#f8f8f2" fill-rule="evenodd" fill-opacity="1" /><path clip-path="url(#clip980)" d="M1345.84 1859.6 L1350.72 1859.6 L1350.72 1865.48 L1345.84 1865.48 L1345.84 1859.6 Z" fill="#f8f8f2" fill-rule="evenodd" fill-opacity="1" /><path clip-path="url(#clip980)" d="M1370.91 1834 Q1367.3 1834 1365.47 1837.57 Q1363.66 1841.11 1363.66 1848.24 Q1363.66 1855.34 1365.47 1858.91 Q1367.3 1862.45 1370.91 1862.45 Q1374.54 1862.45 1376.35 1858.91 Q1378.18 1855.34 1378.18 1848.24 Q1378.18 1841.11 1376.35 1837.57 Q1374.54 1834 1370.91 1834 M1370.91 1830.3 Q1376.72 1830.3 1379.77 1834.9 Q1382.85 1839.49 1382.85 1848.24 Q1382.85 1856.96 1379.77 1861.57 Q1376.72 1866.15 1370.91 1866.15 Q1365.1 1866.15 1362.02 1861.57 Q1358.96 1856.96 1358.96 1848.24 Q1358.96 1839.49 1362.02 1834.9 Q1365.1 1830.3 1370.91 1830.3 Z" fill="#f8f8f2" fill-rule="evenodd" fill-opacity="1" /><path clip-path="url(#clip980)" d="M1893.08 1830.92 L1915.31 1830.92 L1915.31 1832.91 L1902.76 1865.48 L1897.88 1865.48 L1909.68 1834.86 L1893.08 1834.86 L1893.08 1830.92 Z" fill="#f8f8f2" fill-rule="evenodd" fill-opacity="1" /><path clip-path="url(#clip980)" d="M1924.43 1859.6 L1929.31 1859.6 L1929.31 1865.48 L1924.43 1865.48 L1924.43 1859.6 Z" fill="#f8f8f2" fill-rule="evenodd" fill-opacity="1" /><path clip-path="url(#clip980)" d="M1939.54 1830.92 L1957.9 1830.92 L1957.9 1834.86 L1943.82 1834.86 L1943.82 1843.33 Q1944.84 1842.98 1945.86 1842.82 Q1946.88 1842.64 1947.9 1842.64 Q1953.69 1842.64 1957.06 1845.81 Q1960.44 1848.98 1960.44 1854.4 Q1960.44 1859.97 1956.97 1863.08 Q1953.5 1866.15 1947.18 1866.15 Q1945 1866.15 1942.74 1865.78 Q1940.49 1865.41 1938.08 1864.67 L1938.08 1859.97 Q1940.17 1861.11 1942.39 1861.66 Q1944.61 1862.22 1947.09 1862.22 Q1951.09 1862.22 1953.43 1860.11 Q1955.77 1858.01 1955.77 1854.4 Q1955.77 1850.78 1953.43 1848.68 Q1951.09 1846.57 1947.09 1846.57 Q1945.21 1846.57 1943.34 1846.99 Q1941.49 1847.4 1939.54 1848.28 L1939.54 1830.92 Z" fill="#f8f8f2" fill-rule="evenodd" fill-opacity="1" /><path clip-path="url(#clip980)" d="M2457.04 1861.55 L2464.68 1861.55 L2464.68 1835.18 L2456.37 1836.85 L2456.37 1832.59 L2464.63 1830.92 L2469.31 1830.92 L2469.31 1861.55 L2476.95 1861.55 L2476.95 1865.48 L2457.04 1865.48 L2457.04 1861.55 Z" fill="#f8f8f2" fill-rule="evenodd" fill-opacity="1" /><path clip-path="url(#clip980)" d="M2496.39 1834 Q2492.78 1834 2490.95 1837.57 Q2489.15 1841.11 2489.15 1848.24 Q2489.15 1855.34 2490.95 1858.91 Q2492.78 1862.45 2496.39 1862.45 Q2500.03 1862.45 2501.83 1858.91 Q2503.66 1855.34 2503.66 1848.24 Q2503.66 1841.11 2501.83 1837.57 Q2500.03 1834 2496.39 1834 M2496.39 1830.3 Q2502.2 1830.3 2505.26 1834.9 Q2508.34 1839.49 2508.34 1848.24 Q2508.34 1856.96 2505.26 1861.57 Q2502.2 1866.15 2496.39 1866.15 Q2490.58 1866.15 2487.5 1861.57 Q2484.45 1856.96 2484.45 1848.24 Q2484.45 1839.49 2487.5 1834.9 Q2490.58 1830.3 2496.39 1830.3 Z" fill="#f8f8f2" fill-rule="evenodd" fill-opacity="1" /><path clip-path="url(#clip980)" d="M2516.56 1859.6 L2521.44 1859.6 L2521.44 1865.48 L2516.56 1865.48 L2516.56 1859.6 Z" fill="#f8f8f2" fill-rule="evenodd" fill-opacity="1" /><path clip-path="url(#clip980)" d="M2541.62 1834 Q2538.01 1834 2536.19 1837.57 Q2534.38 1841.11 2534.38 1848.24 Q2534.38 1855.34 2536.19 1858.91 Q2538.01 1862.45 2541.62 1862.45 Q2545.26 1862.45 2547.06 1858.91 Q2548.89 1855.34 2548.89 1848.24 Q2548.89 1841.11 2547.06 1837.57 Q2545.26 1834 2541.62 1834 M2541.62 1830.3 Q2547.44 1830.3 2550.49 1834.9 Q2553.57 1839.49 2553.57 1848.24 Q2553.57 1856.96 2550.49 1861.57 Q2547.44 1866.15 2541.62 1866.15 Q2535.81 1866.15 2532.74 1861.57 Q2529.68 1856.96 2529.68 1848.24 Q2529.68 1839.49 2532.74 1834.9 Q2535.81 1830.3 2541.62 1830.3 Z" fill="#f8f8f2" fill-rule="evenodd" fill-opacity="1" /><polyline clip-path="url(#clip982)" style="stroke:#f8f8f2; stroke-linecap:round; stroke-linejoin:round; stroke-width:2; stroke-opacity:0.1; fill:none" points="172.001,1751.15 2640.76,1751.15 "/>
<polyline clip-path="url(#clip982)" style="stroke:#f8f8f2; stroke-linecap:round; stroke-linejoin:round; stroke-width:2; stroke-opacity:0.1; fill:none" points="172.001,1504.24 2640.76,1504.24 "/>
<polyline clip-path="url(#clip982)" style="stroke:#f8f8f2; stroke-linecap:round; stroke-linejoin:round; stroke-width:2; stroke-opacity:0.1; fill:none" points="172.001,1257.34 2640.76,1257.34 "/>
<polyline clip-path="url(#clip982)" style="stroke:#f8f8f2; stroke-linecap:round; stroke-linejoin:round; stroke-width:2; stroke-opacity:0.1; fill:none" points="172.001,1010.43 2640.76,1010.43 "/>
<polyline clip-path="url(#clip982)" style="stroke:#f8f8f2; stroke-linecap:round; stroke-linejoin:round; stroke-width:2; stroke-opacity:0.1; fill:none" points="172.001,763.522 2640.76,763.522 "/>
<polyline clip-path="url(#clip982)" style="stroke:#f8f8f2; stroke-linecap:round; stroke-linejoin:round; stroke-width:2; stroke-opacity:0.1; fill:none" points="172.001,516.615 2640.76,516.615 "/>
<polyline clip-path="url(#clip982)" style="stroke:#f8f8f2; stroke-linecap:round; stroke-linejoin:round; stroke-width:2; stroke-opacity:0.1; fill:none" points="172.001,269.708 2640.76,269.708 "/>
<polyline clip-path="url(#clip980)" style="stroke:#f8f8f2; stroke-linecap:round; stroke-linejoin:round; stroke-width:4; stroke-opacity:1; fill:none" points="172.001,1800.78 172.001,47.2441 "/>
<polyline clip-path="url(#clip980)" style="stroke:#f8f8f2; stroke-linecap:round; stroke-linejoin:round; stroke-width:4; stroke-opacity:1; fill:none" points="172.001,1751.15 190.899,1751.15 "/>
<polyline clip-path="url(#clip980)" style="stroke:#f8f8f2; stroke-linecap:round; stroke-linejoin:round; stroke-width:4; stroke-opacity:1; fill:none" points="172.001,1504.24 190.899,1504.24 "/>
<polyline clip-path="url(#clip980)" style="stroke:#f8f8f2; stroke-linecap:round; stroke-linejoin:round; stroke-width:4; stroke-opacity:1; fill:none" points="172.001,1257.34 190.899,1257.34 "/>
<polyline clip-path="url(#clip980)" style="stroke:#f8f8f2; stroke-linecap:round; stroke-linejoin:round; stroke-width:4; stroke-opacity:1; fill:none" points="172.001,1010.43 190.899,1010.43 "/>
<polyline clip-path="url(#clip980)" style="stroke:#f8f8f2; stroke-linecap:round; stroke-linejoin:round; stroke-width:4; stroke-opacity:1; fill:none" points="172.001,763.522 190.899,763.522 "/>
<polyline clip-path="url(#clip980)" style="stroke:#f8f8f2; stroke-linecap:round; stroke-linejoin:round; stroke-width:4; stroke-opacity:1; fill:none" points="172.001,516.615 190.899,516.615 "/>
<polyline clip-path="url(#clip980)" style="stroke:#f8f8f2; stroke-linecap:round; stroke-linejoin:round; stroke-width:4; stroke-opacity:1; fill:none" points="172.001,269.708 190.899,269.708 "/>
<path clip-path="url(#clip980)" d="M119.737 1736.95 Q116.126 1736.95 114.297 1740.51 Q112.492 1744.06 112.492 1751.19 Q112.492 1758.29 114.297 1761.86 Q116.126 1765.4 119.737 1765.4 Q123.371 1765.4 125.177 1761.86 Q127.005 1758.29 127.005 1751.19 Q127.005 1744.06 125.177 1740.51 Q123.371 1736.95 119.737 1736.95 M119.737 1733.25 Q125.547 1733.25 128.603 1737.85 Q131.681 1742.44 131.681 1751.19 Q131.681 1759.91 128.603 1764.52 Q125.547 1769.1 119.737 1769.1 Q113.927 1769.1 110.848 1764.52 Q107.793 1759.91 107.793 1751.19 Q107.793 1742.44 110.848 1737.85 Q113.927 1733.25 119.737 1733.25 Z" fill="#f8f8f2" fill-rule="evenodd" fill-opacity="1" /><path clip-path="url(#clip980)" d="M83.6029 1517.59 L99.9222 1517.59 L99.9222 1521.52 L77.9779 1521.52 L77.9779 1517.59 Q80.6399 1514.83 85.2232 1510.2 Q89.8297 1505.55 91.0102 1504.21 Q93.2556 1501.69 94.1352 1499.95 Q95.038 1498.19 95.038 1496.5 Q95.038 1493.75 93.0936 1492.01 Q91.1723 1490.27 88.0704 1490.27 Q85.8714 1490.27 83.4177 1491.04 Q80.9871 1491.8 78.2094 1493.35 L78.2094 1488.63 Q81.0334 1487.5 83.4871 1486.92 Q85.9408 1486.34 87.9778 1486.34 Q93.3482 1486.34 96.5426 1489.02 Q99.737 1491.71 99.737 1496.2 Q99.737 1498.33 98.9269 1500.25 Q98.1398 1502.15 96.0334 1504.74 Q95.4547 1505.41 92.3528 1508.63 Q89.251 1511.82 83.6029 1517.59 Z" fill="#f8f8f2" fill-rule="evenodd" fill-opacity="1" /><path clip-path="url(#clip980)" d="M119.737 1490.04 Q116.126 1490.04 114.297 1493.61 Q112.492 1497.15 112.492 1504.28 Q112.492 1511.38 114.297 1514.95 Q116.126 1518.49 119.737 1518.49 Q123.371 1518.49 125.177 1514.95 Q127.005 1511.38 127.005 1504.28 Q127.005 1497.15 125.177 1493.61 Q123.371 1490.04 119.737 1490.04 M119.737 1486.34 Q125.547 1486.34 128.603 1490.95 Q131.681 1495.53 131.681 1504.28 Q131.681 1513.01 128.603 1517.61 Q125.547 1522.2 119.737 1522.2 Q113.927 1522.2 110.848 1517.61 Q107.793 1513.01 107.793 1504.28 Q107.793 1495.53 110.848 1490.95 Q113.927 1486.34 119.737 1486.34 Z" fill="#f8f8f2" fill-rule="evenodd" fill-opacity="1" /><path clip-path="url(#clip980)" d="M92.4223 1244.13 L80.6168 1262.58 L92.4223 1262.58 L92.4223 1244.13 M91.1954 1240.06 L97.075 1240.06 L97.075 1262.58 L102.006 1262.58 L102.006 1266.47 L97.075 1266.47 L97.075 1274.62 L92.4223 1274.62 L92.4223 1266.47 L76.8205 1266.47 L76.8205 1261.95 L91.1954 1240.06 Z" fill="#f8f8f2" fill-rule="evenodd" fill-opacity="1" /><path clip-path="url(#clip980)" d="M119.737 1243.14 Q116.126 1243.14 114.297 1246.7 Q112.492 1250.24 112.492 1257.37 Q112.492 1264.48 114.297 1268.04 Q116.126 1271.58 119.737 1271.58 Q123.371 1271.58 125.177 1268.04 Q127.005 1264.48 127.005 1257.37 Q127.005 1250.24 125.177 1246.7 Q123.371 1243.14 119.737 1243.14 M119.737 1239.43 Q125.547 1239.43 128.603 1244.04 Q131.681 1248.62 131.681 1257.37 Q131.681 1266.1 128.603 1270.7 Q125.547 1275.29 119.737 1275.29 Q113.927 1275.29 110.848 1270.7 Q107.793 1266.1 107.793 1257.37 Q107.793 1248.62 110.848 1244.04 Q113.927 1239.43 119.737 1239.43 Z" fill="#f8f8f2" fill-rule="evenodd" fill-opacity="1" /><path clip-path="url(#clip980)" d="M90.1538 1008.57 Q87.0056 1008.57 85.1538 1010.72 Q83.3251 1012.87 83.3251 1016.62 Q83.3251 1020.35 85.1538 1022.52 Q87.0056 1024.68 90.1538 1024.68 Q93.3019 1024.68 95.1306 1022.52 Q96.9824 1020.35 96.9824 1016.62 Q96.9824 1012.87 95.1306 1010.72 Q93.3019 1008.57 90.1538 1008.57 M99.4361 993.913 L99.4361 998.172 Q97.6769 997.339 95.8713 996.899 Q94.0889 996.459 92.3297 996.459 Q87.7001 996.459 85.2464 999.584 Q82.8158 1002.71 82.4686 1009.03 Q83.8343 1007.01 85.8945 1005.95 Q87.9547 1004.86 90.4315 1004.86 Q95.6398 1004.86 98.6491 1008.03 Q101.681 1011.18 101.681 1016.62 Q101.681 1021.95 98.5333 1025.16 Q95.3852 1028.38 90.1538 1028.38 Q84.1584 1028.38 80.9871 1023.8 Q77.8159 1019.19 77.8159 1010.46 Q77.8159 1002.27 81.7047 997.408 Q85.5936 992.524 92.1445 992.524 Q93.9037 992.524 95.6861 992.871 Q97.4917 993.219 99.4361 993.913 Z" fill="#f8f8f2" fill-rule="evenodd" fill-opacity="1" /><path clip-path="url(#clip980)" d="M119.737 996.228 Q116.126 996.228 114.297 999.793 Q112.492 1003.33 112.492 1010.46 Q112.492 1017.57 114.297 1021.14 Q116.126 1024.68 119.737 1024.68 Q123.371 1024.68 125.177 1021.14 Q127.005 1017.57 127.005 1010.46 Q127.005 1003.33 125.177 999.793 Q123.371 996.228 119.737 996.228 M119.737 992.524 Q125.547 992.524 128.603 997.131 Q131.681 1001.71 131.681 1010.46 Q131.681 1019.19 128.603 1023.8 Q125.547 1028.38 119.737 1028.38 Q113.927 1028.38 110.848 1023.8 Q107.793 1019.19 107.793 1010.46 Q107.793 1001.71 110.848 997.131 Q113.927 992.524 119.737 992.524 Z" fill="#f8f8f2" fill-rule="evenodd" fill-opacity="1" /><path clip-path="url(#clip980)" d="M89.5751 764.39 Q86.2417 764.39 84.3205 766.172 Q82.4223 767.955 82.4223 771.08 Q82.4223 774.205 84.3205 775.987 Q86.2417 777.77 89.5751 777.77 Q92.9084 777.77 94.8297 775.987 Q96.7509 774.182 96.7509 771.08 Q96.7509 767.955 94.8297 766.172 Q92.9315 764.39 89.5751 764.39 M84.8992 762.399 Q81.8899 761.659 80.2001 759.598 Q78.5335 757.538 78.5335 754.575 Q78.5335 750.432 81.4733 748.024 Q84.4362 745.617 89.5751 745.617 Q94.7371 745.617 97.6769 748.024 Q100.617 750.432 100.617 754.575 Q100.617 757.538 98.9269 759.598 Q97.2602 761.659 94.2741 762.399 Q97.6537 763.186 99.5287 765.478 Q101.427 767.77 101.427 771.08 Q101.427 776.103 98.3482 778.788 Q95.2926 781.473 89.5751 781.473 Q83.8575 781.473 80.7788 778.788 Q77.7233 776.103 77.7233 771.08 Q77.7233 767.77 79.6214 765.478 Q81.5195 763.186 84.8992 762.399 M83.1862 755.015 Q83.1862 757.7 84.8529 759.205 Q86.5427 760.71 89.5751 760.71 Q92.5843 760.71 94.2741 759.205 Q95.9871 757.7 95.9871 755.015 Q95.9871 752.33 94.2741 750.825 Q92.5843 749.321 89.5751 749.321 Q86.5427 749.321 84.8529 750.825 Q83.1862 752.33 83.1862 755.015 Z" fill="#f8f8f2" fill-rule="evenodd" fill-opacity="1" /><path clip-path="url(#clip980)" d="M119.737 749.321 Q116.126 749.321 114.297 752.885 Q112.492 756.427 112.492 763.557 Q112.492 770.663 114.297 774.228 Q116.126 777.77 119.737 777.77 Q123.371 777.77 125.177 774.228 Q127.005 770.663 127.005 763.557 Q127.005 756.427 125.177 752.885 Q123.371 749.321 119.737 749.321 M119.737 745.617 Q125.547 745.617 128.603 750.223 Q131.681 754.807 131.681 763.557 Q131.681 772.284 128.603 776.89 Q125.547 781.473 119.737 781.473 Q113.927 781.473 110.848 776.89 Q107.793 772.284 107.793 763.557 Q107.793 754.807 110.848 750.223 Q113.927 745.617 119.737 745.617 Z" fill="#f8f8f2" fill-rule="evenodd" fill-opacity="1" /><path clip-path="url(#clip980)" d="M50.2234 529.96 L57.8623 529.96 L57.8623 503.594 L49.5521 505.261 L49.5521 501.001 L57.816 499.335 L62.4919 499.335 L62.4919 529.96 L70.1307 529.96 L70.1307 533.895 L50.2234 533.895 L50.2234 529.96 Z" fill="#f8f8f2" fill-rule="evenodd" fill-opacity="1" /><path clip-path="url(#clip980)" d="M89.5751 502.413 Q85.964 502.413 84.1353 505.978 Q82.3297 509.52 82.3297 516.649 Q82.3297 523.756 84.1353 527.321 Q85.964 530.862 89.5751 530.862 Q93.2093 530.862 95.0148 527.321 Q96.8435 523.756 96.8435 516.649 Q96.8435 509.52 95.0148 505.978 Q93.2093 502.413 89.5751 502.413 M89.5751 498.71 Q95.3852 498.71 98.4408 503.316 Q101.519 507.9 101.519 516.649 Q101.519 525.376 98.4408 529.983 Q95.3852 534.566 89.5751 534.566 Q83.7649 534.566 80.6862 529.983 Q77.6307 525.376 77.6307 516.649 Q77.6307 507.9 80.6862 503.316 Q83.7649 498.71 89.5751 498.71 Z" fill="#f8f8f2" fill-rule="evenodd" fill-opacity="1" /><path clip-path="url(#clip980)" d="M119.737 502.413 Q116.126 502.413 114.297 505.978 Q112.492 509.52 112.492 516.649 Q112.492 523.756 114.297 527.321 Q116.126 530.862 119.737 530.862 Q123.371 530.862 125.177 527.321 Q127.005 523.756 127.005 516.649 Q127.005 509.52 125.177 505.978 Q123.371 502.413 119.737 502.413 M119.737 498.71 Q125.547 498.71 128.603 503.316 Q131.681 507.9 131.681 516.649 Q131.681 525.376 128.603 529.983 Q125.547 534.566 119.737 534.566 Q113.927 534.566 110.848 529.983 Q107.793 525.376 107.793 516.649 Q107.793 507.9 110.848 503.316 Q113.927 498.71 119.737 498.71 Z" fill="#f8f8f2" fill-rule="evenodd" fill-opacity="1" /><path clip-path="url(#clip980)" d="M50.2234 283.052 L57.8623 283.052 L57.8623 256.687 L49.5521 258.353 L49.5521 254.094 L57.816 252.428 L62.4919 252.428 L62.4919 283.052 L70.1307 283.052 L70.1307 286.988 L50.2234 286.988 L50.2234 283.052 Z" fill="#f8f8f2" fill-rule="evenodd" fill-opacity="1" /><path clip-path="url(#clip980)" d="M83.6029 283.052 L99.9222 283.052 L99.9222 286.988 L77.9779 286.988 L77.9779 283.052 Q80.6399 280.298 85.2232 275.668 Q89.8297 271.015 91.0102 269.673 Q93.2556 267.15 94.1352 265.414 Q95.038 263.654 95.038 261.965 Q95.038 259.21 93.0936 257.474 Q91.1723 255.738 88.0704 255.738 Q85.8714 255.738 83.4177 256.502 Q80.9871 257.265 78.2094 258.816 L78.2094 254.094 Q81.0334 252.96 83.4871 252.381 Q85.9408 251.803 87.9778 251.803 Q93.3482 251.803 96.5426 254.488 Q99.737 257.173 99.737 261.664 Q99.737 263.793 98.9269 265.714 Q98.1398 267.613 96.0334 270.205 Q95.4547 270.876 92.3528 274.094 Q89.251 277.288 83.6029 283.052 Z" fill="#f8f8f2" fill-rule="evenodd" fill-opacity="1" /><path clip-path="url(#clip980)" d="M119.737 255.506 Q116.126 255.506 114.297 259.071 Q112.492 262.613 112.492 269.742 Q112.492 276.849 114.297 280.413 Q116.126 283.955 119.737 283.955 Q123.371 283.955 125.177 280.413 Q127.005 276.849 127.005 269.742 Q127.005 262.613 125.177 259.071 Q123.371 255.506 119.737 255.506 M119.737 251.803 Q125.547 251.803 128.603 256.409 Q131.681 260.992 131.681 269.742 Q131.681 278.469 128.603 283.076 Q125.547 287.659 119.737 287.659 Q113.927 287.659 110.848 283.076 Q107.793 278.469 107.793 269.742 Q107.793 260.992 110.848 256.409 Q113.927 251.803 119.737 251.803 Z" fill="#f8f8f2" fill-rule="evenodd" fill-opacity="1" /><path clip-path="url(#clip982)" d="M307.787 1701.77 L307.787 1751.15 L423.428 1751.15 L423.428 1701.77 L307.787 1701.77 L307.787 1701.77  Z" fill="#8be9fd" fill-rule="evenodd" fill-opacity="1"/>
<polyline clip-path="url(#clip982)" style="stroke:#f8f8f2; stroke-linecap:round; stroke-linejoin:round; stroke-width:4; stroke-opacity:1; fill:none" points="307.787,1701.77 307.787,1751.15 423.428,1751.15 423.428,1701.77 307.787,1701.77 "/>
<path clip-path="url(#clip982)" d="M423.428 1664.73 L423.428 1751.15 L539.07 1751.15 L539.07 1664.73 L423.428 1664.73 L423.428 1664.73  Z" fill="#8be9fd" fill-rule="evenodd" fill-opacity="1"/>
<polyline clip-path="url(#clip982)" style="stroke:#f8f8f2; stroke-linecap:round; stroke-linejoin:round; stroke-width:4; stroke-opacity:1; fill:none" points="423.428,1664.73 423.428,1751.15 539.07,1751.15 539.07,1664.73 423.428,1664.73 "/>
<path clip-path="url(#clip982)" d="M539.07 1541.28 L539.07 1751.15 L654.711 1751.15 L654.711 1541.28 L539.07 1541.28 L539.07 1541.28  Z" fill="#8be9fd" fill-rule="evenodd" fill-opacity="1"/>
<polyline clip-path="url(#clip982)" style="stroke:#f8f8f2; stroke-linecap:round; stroke-linejoin:round; stroke-width:4; stroke-opacity:1; fill:none" points="539.07,1541.28 539.07,1751.15 654.711,1751.15 654.711,1541.28 539.07,1541.28 "/>
<path clip-path="url(#clip982)" d="M654.711 1442.52 L654.711 1751.15 L770.352 1751.15 L770.352 1442.52 L654.711 1442.52 L654.711 1442.52  Z" fill="#8be9fd" fill-rule="evenodd" fill-opacity="1"/>
<polyline clip-path="url(#clip982)" style="stroke:#f8f8f2; stroke-linecap:round; stroke-linejoin:round; stroke-width:4; stroke-opacity:1; fill:none" points="654.711,1442.52 654.711,1751.15 770.352,1751.15 770.352,1442.52 654.711,1442.52 "/>
<path clip-path="url(#clip982)" d="M770.352 1195.61 L770.352 1751.15 L885.993 1751.15 L885.993 1195.61 L770.352 1195.61 L770.352 1195.61  Z" fill="#8be9fd" fill-rule="evenodd" fill-opacity="1"/>
<polyline clip-path="url(#clip982)" style="stroke:#f8f8f2; stroke-linecap:round; stroke-linejoin:round; stroke-width:4; stroke-opacity:1; fill:none" points="770.352,1195.61 770.352,1751.15 885.993,1751.15 885.993,1195.61 770.352,1195.61 "/>
<path clip-path="url(#clip982)" d="M885.993 998.084 L885.993 1751.15 L1001.63 1751.15 L1001.63 998.084 L885.993 998.084 L885.993 998.084  Z" fill="#8be9fd" fill-rule="evenodd" fill-opacity="1"/>
<polyline clip-path="url(#clip982)" style="stroke:#f8f8f2; stroke-linecap:round; stroke-linejoin:round; stroke-width:4; stroke-opacity:1; fill:none" points="885.993,998.084 885.993,1751.15 1001.63,1751.15 1001.63,998.084 885.993,998.084 "/>
<path clip-path="url(#clip982)" d="M1001.63 738.831 L1001.63 1751.15 L1117.28 1751.15 L1117.28 738.831 L1001.63 738.831 L1001.63 738.831  Z" fill="#8be9fd" fill-rule="evenodd" fill-opacity="1"/>
<polyline clip-path="url(#clip982)" style="stroke:#f8f8f2; stroke-linecap:round; stroke-linejoin:round; stroke-width:4; stroke-opacity:1; fill:none" points="1001.63,738.831 1001.63,1751.15 1117.28,1751.15 1117.28,738.831 1001.63,738.831 "/>
<path clip-path="url(#clip982)" d="M1117.28 96.8724 L1117.28 1751.15 L1232.92 1751.15 L1232.92 96.8724 L1117.28 96.8724 L1117.28 96.8724  Z" fill="#8be9fd" fill-rule="evenodd" fill-opacity="1"/>
<polyline clip-path="url(#clip982)" style="stroke:#f8f8f2; stroke-linecap:round; stroke-linejoin:round; stroke-width:4; stroke-opacity:1; fill:none" points="1117.28,96.8724 1117.28,1751.15 1232.92,1751.15 1232.92,96.8724 1117.28,96.8724 "/>
<path clip-path="url(#clip982)" d="M1232.92 220.326 L1232.92 1751.15 L1348.56 1751.15 L1348.56 220.326 L1232.92 220.326 L1232.92 220.326  Z" fill="#8be9fd" fill-rule="evenodd" fill-opacity="1"/>
<polyline clip-path="url(#clip982)" style="stroke:#f8f8f2; stroke-linecap:round; stroke-linejoin:round; stroke-width:4; stroke-opacity:1; fill:none" points="1232.92,220.326 1232.92,1751.15 1348.56,1751.15 1348.56,220.326 1232.92,220.326 "/>
<path clip-path="url(#clip982)" d="M1348.56 133.909 L1348.56 1751.15 L1464.2 1751.15 L1464.2 133.909 L1348.56 133.909 L1348.56 133.909  Z" fill="#8be9fd" fill-rule="evenodd" fill-opacity="1"/>
<polyline clip-path="url(#clip982)" style="stroke:#f8f8f2; stroke-linecap:round; stroke-linejoin:round; stroke-width:4; stroke-opacity:1; fill:none" points="1348.56,133.909 1348.56,1751.15 1464.2,1751.15 1464.2,133.909 1348.56,133.909 "/>
<path clip-path="url(#clip982)" d="M1464.2 319.089 L1464.2 1751.15 L1579.84 1751.15 L1579.84 319.089 L1464.2 319.089 L1464.2 319.089  Z" fill="#8be9fd" fill-rule="evenodd" fill-opacity="1"/>
<polyline clip-path="url(#clip982)" style="stroke:#f8f8f2; stroke-linecap:round; stroke-linejoin:round; stroke-width:4; stroke-opacity:1; fill:none" points="1464.2,319.089 1464.2,1751.15 1579.84,1751.15 1579.84,319.089 1464.2,319.089 "/>
<path clip-path="url(#clip982)" d="M1579.84 751.177 L1579.84 1751.15 L1695.48 1751.15 L1695.48 751.177 L1579.84 751.177 L1579.84 751.177  Z" fill="#8be9fd" fill-rule="evenodd" fill-opacity="1"/>
<polyline clip-path="url(#clip982)" style="stroke:#f8f8f2; stroke-linecap:round; stroke-linejoin:round; stroke-width:4; stroke-opacity:1; fill:none" points="1579.84,751.177 1579.84,1751.15 1695.48,1751.15 1695.48,751.177 1579.84,751.177 "/>
<path clip-path="url(#clip982)" d="M1695.48 775.867 L1695.48 1751.15 L1811.12 1751.15 L1811.12 775.867 L1695.48 775.867 L1695.48 775.867  Z" fill="#8be9fd" fill-rule="evenodd" fill-opacity="1"/>
<polyline clip-path="url(#clip982)" style="stroke:#f8f8f2; stroke-linecap:round; stroke-linejoin:round; stroke-width:4; stroke-opacity:1; fill:none" points="1695.48,775.867 1695.48,1751.15 1811.12,1751.15 1811.12,775.867 1695.48,775.867 "/>
<path clip-path="url(#clip982)" d="M1811.12 1244.99 L1811.12 1751.15 L1926.76 1751.15 L1926.76 1244.99 L1811.12 1244.99 L1811.12 1244.99  Z" fill="#8be9fd" fill-rule="evenodd" fill-opacity="1"/>
<polyline clip-path="url(#clip982)" style="stroke:#f8f8f2; stroke-linecap:round; stroke-linejoin:round; stroke-width:4; stroke-opacity:1; fill:none" points="1811.12,1244.99 1811.12,1751.15 1926.76,1751.15 1926.76,1244.99 1811.12,1244.99 "/>
<path clip-path="url(#clip982)" d="M1926.76 1467.21 L1926.76 1751.15 L2042.41 1751.15 L2042.41 1467.21 L1926.76 1467.21 L1926.76 1467.21  Z" fill="#8be9fd" fill-rule="evenodd" fill-opacity="1"/>
<polyline clip-path="url(#clip982)" style="stroke:#f8f8f2; stroke-linecap:round; stroke-linejoin:round; stroke-width:4; stroke-opacity:1; fill:none" points="1926.76,1467.21 1926.76,1751.15 2042.41,1751.15 2042.41,1467.21 1926.76,1467.21 "/>
<path clip-path="url(#clip982)" d="M2042.41 1541.28 L2042.41 1751.15 L2158.05 1751.15 L2158.05 1541.28 L2042.41 1541.28 L2042.41 1541.28  Z" fill="#8be9fd" fill-rule="evenodd" fill-opacity="1"/>
<polyline clip-path="url(#clip982)" style="stroke:#f8f8f2; stroke-linecap:round; stroke-linejoin:round; stroke-width:4; stroke-opacity:1; fill:none" points="2042.41,1541.28 2042.41,1751.15 2158.05,1751.15 2158.05,1541.28 2042.41,1541.28 "/>
<path clip-path="url(#clip982)" d="M2158.05 1615.35 L2158.05 1751.15 L2273.69 1751.15 L2273.69 1615.35 L2158.05 1615.35 L2158.05 1615.35  Z" fill="#8be9fd" fill-rule="evenodd" fill-opacity="1"/>
<polyline clip-path="url(#clip982)" style="stroke:#f8f8f2; stroke-linecap:round; stroke-linejoin:round; stroke-width:4; stroke-opacity:1; fill:none" points="2158.05,1615.35 2158.05,1751.15 2273.69,1751.15 2273.69,1615.35 2158.05,1615.35 "/>
<path clip-path="url(#clip982)" d="M2273.69 1738.81 L2273.69 1751.15 L2389.33 1751.15 L2389.33 1738.81 L2273.69 1738.81 L2273.69 1738.81  Z" fill="#8be9fd" fill-rule="evenodd" fill-opacity="1"/>
<polyline clip-path="url(#clip982)" style="stroke:#f8f8f2; stroke-linecap:round; stroke-linejoin:round; stroke-width:4; stroke-opacity:1; fill:none" points="2273.69,1738.81 2273.69,1751.15 2389.33,1751.15 2389.33,1738.81 2273.69,1738.81 "/>
<path clip-path="url(#clip982)" d="M2389.33 1738.81 L2389.33 1751.15 L2504.97 1751.15 L2504.97 1738.81 L2389.33 1738.81 L2389.33 1738.81  Z" fill="#8be9fd" fill-rule="evenodd" fill-opacity="1"/>
<polyline clip-path="url(#clip982)" style="stroke:#f8f8f2; stroke-linecap:round; stroke-linejoin:round; stroke-width:4; stroke-opacity:1; fill:none" points="2389.33,1738.81 2389.33,1751.15 2504.97,1751.15 2504.97,1738.81 2389.33,1738.81 "/>
<circle clip-path="url(#clip982)" style="fill:#8be9fd; stroke:none; fill-opacity:0" cx="365.608" cy="1701.77" r="2"/>
<circle clip-path="url(#clip982)" style="fill:#8be9fd; stroke:none; fill-opacity:0" cx="481.249" cy="1664.73" r="2"/>
<circle clip-path="url(#clip982)" style="fill:#8be9fd; stroke:none; fill-opacity:0" cx="596.89" cy="1541.28" r="2"/>
<circle clip-path="url(#clip982)" style="fill:#8be9fd; stroke:none; fill-opacity:0" cx="712.531" cy="1442.52" r="2"/>
<circle clip-path="url(#clip982)" style="fill:#8be9fd; stroke:none; fill-opacity:0" cx="828.173" cy="1195.61" r="2"/>
<circle clip-path="url(#clip982)" style="fill:#8be9fd; stroke:none; fill-opacity:0" cx="943.814" cy="998.084" r="2"/>
<circle clip-path="url(#clip982)" style="fill:#8be9fd; stroke:none; fill-opacity:0" cx="1059.46" cy="738.831" r="2"/>
<circle clip-path="url(#clip982)" style="fill:#8be9fd; stroke:none; fill-opacity:0" cx="1175.1" cy="96.8724" r="2"/>
<circle clip-path="url(#clip982)" style="fill:#8be9fd; stroke:none; fill-opacity:0" cx="1290.74" cy="220.326" r="2"/>
<circle clip-path="url(#clip982)" style="fill:#8be9fd; stroke:none; fill-opacity:0" cx="1406.38" cy="133.909" r="2"/>
<circle clip-path="url(#clip982)" style="fill:#8be9fd; stroke:none; fill-opacity:0" cx="1522.02" cy="319.089" r="2"/>
<circle clip-path="url(#clip982)" style="fill:#8be9fd; stroke:none; fill-opacity:0" cx="1637.66" cy="751.177" r="2"/>
<circle clip-path="url(#clip982)" style="fill:#8be9fd; stroke:none; fill-opacity:0" cx="1753.3" cy="775.867" r="2"/>
<circle clip-path="url(#clip982)" style="fill:#8be9fd; stroke:none; fill-opacity:0" cx="1868.94" cy="1244.99" r="2"/>
<circle clip-path="url(#clip982)" style="fill:#8be9fd; stroke:none; fill-opacity:0" cx="1984.58" cy="1467.21" r="2"/>
<circle clip-path="url(#clip982)" style="fill:#8be9fd; stroke:none; fill-opacity:0" cx="2100.23" cy="1541.28" r="2"/>
<circle clip-path="url(#clip982)" style="fill:#8be9fd; stroke:none; fill-opacity:0" cx="2215.87" cy="1615.35" r="2"/>
<circle clip-path="url(#clip982)" style="fill:#8be9fd; stroke:none; fill-opacity:0" cx="2331.51" cy="1738.81" r="2"/>
<circle clip-path="url(#clip982)" style="fill:#8be9fd; stroke:none; fill-opacity:0" cx="2447.15" cy="1738.81" r="2"/>
<path clip-path="url(#clip980)" d="M2259.16 209.375 L2558.46 209.375 L2558.46 105.695 L2259.16 105.695  Z" fill="#282a36" fill-rule="evenodd" fill-opacity="1"/>
<polyline clip-path="url(#clip980)" style="stroke:#f8f8f2; stroke-linecap:round; stroke-linejoin:round; stroke-width:4; stroke-opacity:1; fill:none" points="2259.16,209.375 2558.46,209.375 2558.46,105.695 2259.16,105.695 2259.16,209.375 "/>
<path clip-path="url(#clip980)" d="M2286.59 178.271 L2451.17 178.271 L2451.17 136.799 L2286.59 136.799 L2286.59 178.271  Z" fill="#8be9fd" fill-rule="evenodd" fill-opacity="1"/>
<polyline clip-path="url(#clip980)" style="stroke:#f8f8f2; stroke-linecap:round; stroke-linejoin:round; stroke-width:4; stroke-opacity:1; fill:none" points="2286.59,178.271 2451.17,178.271 2451.17,136.799 2286.59,136.799 2286.59,178.271 "/>
<path clip-path="url(#clip980)" d="M2492.45 177.223 Q2490.64 181.852 2488.93 183.264 Q2487.21 184.676 2484.34 184.676 L2480.94 184.676 L2480.94 181.112 L2483.44 181.112 Q2485.2 181.112 2486.17 180.278 Q2487.14 179.445 2488.33 176.343 L2489.09 174.399 L2478.6 148.889 L2483.12 148.889 L2491.22 169.167 L2499.32 148.889 L2503.83 148.889 L2492.45 177.223 Z" fill="#f8f8f2" fill-rule="evenodd" fill-opacity="1" /><path clip-path="url(#clip980)" d="M2511.13 170.88 L2518.77 170.88 L2518.77 144.515 L2510.45 146.181 L2510.45 141.922 L2518.72 140.255 L2523.39 140.255 L2523.39 170.88 L2531.03 170.88 L2531.03 174.815 L2511.13 174.815 L2511.13 170.88 Z" fill="#f8f8f2" fill-rule="evenodd" fill-opacity="1" /></svg>
