<?xml version="1.0" encoding="utf-8"?>
<svg xmlns="http://www.w3.org/2000/svg" xmlns:xlink="http://www.w3.org/1999/xlink" width="672" height="480" viewBox="0 0 2688 1920">
<defs>
  <clipPath id="clip860">
    <rect x="0" y="0" width="2688" height="1920"/>
  </clipPath>
</defs>
<path clip-path="url(#clip860)" d="M0 1920 L2688 1920 L2688 0 L0 0  Z" fill="#282a36" fill-rule="evenodd" fill-opacity="1"/>
<defs>
  <clipPath id="clip861">
    <rect x="537" y="0" width="1883" height="1883"/>
  </clipPath>
</defs>
<path clip-path="url(#clip860)" d="M172.001 1800.78 L2640.76 1800.78 L2640.76 47.2441 L172.001 47.2441  Z" fill="#30343b" fill-rule="evenodd" fill-opacity="1"/>
<defs>
  <clipPath id="clip862">
    <rect x="172" y="47" width="2470" height="1755"/>
  </clipPath>
</defs>
<polyline clip-path="url(#clip862)" style="stroke:#f8f8f2; stroke-linecap:round; stroke-linejoin:round; stroke-width:2; stroke-opacity:0.1; fill:none" points="507.531,1800.78 507.531,47.2441 "/>
<polyline clip-path="url(#clip862)" style="stroke:#f8f8f2; stroke-linecap:round; stroke-linejoin:round; stroke-width:2; stroke-opacity:0.1; fill:none" points="1006.89,1800.78 1006.89,47.2441 "/>
<polyline clip-path="url(#clip862)" style="stroke:#f8f8f2; stroke-linecap:round; stroke-linejoin:round; stroke-width:2; stroke-opacity:0.1; fill:none" points="1506.25,1800.78 1506.25,47.2441 "/>
<polyline clip-path="url(#clip862)" style="stroke:#f8f8f2; stroke-linecap:round; stroke-linejoin:round; stroke-width:2; stroke-opacity:0.1; fill:none" points="2005.61,1800.78 2005.61,47.2441 "/>
<polyline clip-path="url(#clip862)" style="stroke:#f8f8f2; stroke-linecap:round; stroke-linejoin:round; stroke-width:2; stroke-opacity:0.1; fill:none" points="2504.97,1800.78 2504.97,47.2441 "/>
<polyline clip-path="url(#clip860)" style="stroke:#f8f8f2; stroke-linecap:round; stroke-linejoin:round; stroke-width:4; stroke-opacity:1; fill:none" points="172.001,1800.78 2640.76,1800.78 "/>
<polyline clip-path="url(#clip860)" style="stroke:#f8f8f2; stroke-linecap:round; stroke-linejoin:round; stroke-width:4; stroke-opacity:1; fill:none" points="507.531,1800.78 507.531,1781.88 "/>
<polyline clip-path="url(#clip860)" style="stroke:#f8f8f2; stroke-linecap:round; stroke-linejoin:round; stroke-width:4; stroke-opacity:1; fill:none" points="1006.89,1800.78 1006.89,1781.88 "/>
<polyline clip-path="url(#clip860)" style="stroke:#f8f8f2; stroke-linecap:round; stroke-linejoin:round; stroke-width:4; stroke-opacity:1; fill:none" points="1506.25,1800.78 1506.25,1781.88 "/>
<polyline clip-path="url(#clip860)" style="stroke:#f8f8f2; stroke-linecap:round; stroke-linejoin:round; stroke-width:4; stroke-opacity:1; fill:none" points="2005.61,1800.78 2005.61,1781.88 "/>
<polyline clip-path="url(#clip860)" style="stroke:#f8f8f2; stroke-linecap:round; stroke-linejoin:round; stroke-width:4; stroke-opacity:1; fill:none" points="2504.97,1800.78 2504.97,1781.88 "/>
<path clip-path="url(#clip860)" d="M484.915 1834 Q481.304 1834 479.476 1837.57 Q477.67 1841.11 477.67 1848.24 Q477.67 1855.34 479.476 1858.91 Q481.304 1862.45 484.915 1862.45 Q488.55 1862.45 490.355 1858.91 Q492.184 1855.34 492.184 1848.24 Q492.184 1841.11 490.355 1837.57 Q488.55 1834 484.915 1834 M484.915 1830.3 Q490.726 1830.3 493.781 1834.9 Q496.86 1839.49 496.86 1848.24 Q496.86 1856.96 493.781 1861.57 Q490.726 1866.15 484.915 1866.15 Q479.105 1866.15 476.027 1861.57 Q472.971 1856.96 472.971 1848.24 Q472.971 1839.49 476.027 1834.9 Q479.105 1830.3 484.915 1830.3 Z" fill="#f8f8f2" fill-rule="evenodd" fill-opacity="1" /><path clip-path="url(#clip860)" d="M505.077 1859.6 L509.962 1859.6 L509.962 1865.48 L505.077 1865.48 L505.077 1859.6 Z" fill="#f8f8f2" fill-rule="evenodd" fill-opacity="1" /><path clip-path="url(#clip860)" d="M530.147 1834 Q526.536 1834 524.707 1837.57 Q522.901 1841.11 522.901 1848.24 Q522.901 1855.34 524.707 1858.91 Q526.536 1862.45 530.147 1862.45 Q533.781 1862.45 535.587 1858.91 Q537.415 1855.34 537.415 1848.24 Q537.415 1841.11 535.587 1837.57 Q533.781 1834 530.147 1834 M530.147 1830.3 Q535.957 1830.3 539.012 1834.9 Q542.091 1839.49 542.091 1848.24 Q542.091 1856.96 539.012 1861.57 Q535.957 1866.15 530.147 1866.15 Q524.337 1866.15 521.258 1861.57 Q518.202 1856.96 518.202 1848.24 Q518.202 1839.49 521.258 1834.9 Q524.337 1830.3 530.147 1830.3 Z" fill="#f8f8f2" fill-rule="evenodd" fill-opacity="1" /><path clip-path="url(#clip860)" d="M978.627 1861.55 L994.946 1861.55 L994.946 1865.48 L973.002 1865.48 L973.002 1861.55 Q975.664 1858.79 980.247 1854.16 Q984.854 1849.51 986.034 1848.17 Q988.28 1845.65 989.159 1843.91 Q990.062 1842.15 990.062 1840.46 Q990.062 1837.71 988.118 1835.97 Q986.196 1834.23 983.095 1834.23 Q980.896 1834.23 978.442 1835 Q976.011 1835.76 973.234 1837.31 L973.234 1832.59 Q976.058 1831.46 978.511 1830.88 Q980.965 1830.3 983.002 1830.3 Q988.372 1830.3 991.567 1832.98 Q994.761 1835.67 994.761 1840.16 Q994.761 1842.29 993.951 1844.21 Q993.164 1846.11 991.058 1848.7 Q990.479 1849.37 987.377 1852.59 Q984.275 1855.78 978.627 1861.55 Z" fill="#f8f8f2" fill-rule="evenodd" fill-opacity="1" /><path clip-path="url(#clip860)" d="M1004.76 1859.6 L1009.65 1859.6 L1009.65 1865.48 L1004.76 1865.48 L1004.76 1859.6 Z" fill="#f8f8f2" fill-rule="evenodd" fill-opacity="1" /><path clip-path="url(#clip860)" d="M1019.88 1830.92 L1038.23 1830.92 L1038.23 1834.86 L1024.16 1834.86 L1024.16 1843.33 Q1025.18 1842.98 1026.2 1842.82 Q1027.21 1842.64 1028.23 1842.64 Q1034.02 1842.64 1037.4 1845.81 Q1040.78 1848.98 1040.78 1854.4 Q1040.78 1859.97 1037.31 1863.08 Q1033.84 1866.15 1027.52 1866.15 Q1025.34 1866.15 1023.07 1865.78 Q1020.83 1865.41 1018.42 1864.67 L1018.42 1859.97 Q1020.5 1861.11 1022.72 1861.66 Q1024.95 1862.22 1027.42 1862.22 Q1031.43 1862.22 1033.77 1860.11 Q1036.1 1858.01 1036.1 1854.4 Q1036.1 1850.78 1033.77 1848.68 Q1031.43 1846.57 1027.42 1846.57 Q1025.55 1846.57 1023.67 1846.99 Q1021.82 1847.4 1019.88 1848.28 L1019.88 1830.92 Z" fill="#f8f8f2" fill-rule="evenodd" fill-opacity="1" /><path clip-path="url(#clip860)" d="M1473.42 1830.92 L1491.77 1830.92 L1491.77 1834.86 L1477.7 1834.86 L1477.7 1843.33 Q1478.72 1842.98 1479.73 1842.82 Q1480.75 1842.64 1481.77 1842.64 Q1487.56 1842.64 1490.94 1845.81 Q1494.32 1848.98 1494.32 1854.4 Q1494.32 1859.97 1490.85 1863.08 Q1487.37 1866.15 1481.05 1866.15 Q1478.88 1866.15 1476.61 1865.78 Q1474.36 1865.41 1471.96 1864.67 L1471.96 1859.97 Q1474.04 1861.11 1476.26 1861.66 Q1478.48 1862.22 1480.96 1862.22 Q1484.97 1862.22 1487.3 1860.11 Q1489.64 1858.01 1489.64 1854.4 Q1489.64 1850.78 1487.3 1848.68 Q1484.97 1846.57 1480.96 1846.57 Q1479.09 1846.57 1477.21 1846.99 Q1475.36 1847.4 1473.42 1848.28 L1473.42 1830.92 Z" fill="#f8f8f2" fill-rule="evenodd" fill-opacity="1" /><path clip-path="url(#clip860)" d="M1503.53 1859.6 L1508.41 1859.6 L1508.41 1865.48 L1503.53 1865.48 L1503.53 1859.6 Z" fill="#f8f8f2" fill-rule="evenodd" fill-opacity="1" /><path clip-path="url(#clip860)" d="M1528.6 1834 Q1524.99 1834 1523.16 1837.57 Q1521.35 1841.11 1521.35 1848.24 Q1521.35 1855.34 1523.16 1858.91 Q1524.99 1862.45 1528.6 1862.45 Q1532.23 1862.45 1534.04 1858.91 Q1535.87 1855.34 1535.87 1848.24 Q1535.87 1841.11 1534.04 1837.57 Q1532.23 1834 1528.6 1834 M1528.6 1830.3 Q1534.41 1830.3 1537.47 1834.9 Q1540.54 1839.49 1540.54 1848.24 Q1540.54 1856.96 1537.47 1861.57 Q1534.41 1866.15 1528.6 1866.15 Q1522.79 1866.15 1519.71 1861.57 Q1516.66 1856.96 1516.66 1848.24 Q1516.66 1839.49 1519.71 1834.9 Q1522.79 1830.3 1528.6 1830.3 Z" fill="#f8f8f2" fill-rule="evenodd" fill-opacity="1" /><path clip-path="url(#clip860)" d="M1971.93 1830.92 L1994.15 1830.92 L1994.15 1832.91 L1981.61 1865.48 L1976.72 1865.48 L1988.53 1834.86 L1971.93 1834.86 L1971.93 1830.92 Z" fill="#f8f8f2" fill-rule="evenodd" fill-opacity="1" /><path clip-path="url(#clip860)" d="M2003.27 1859.6 L2008.16 1859.6 L2008.16 1865.48 L2003.27 1865.48 L2003.27 1859.6 Z" fill="#f8f8f2" fill-rule="evenodd" fill-opacity="1" /><path clip-path="url(#clip860)" d="M2018.39 1830.92 L2036.74 1830.92 L2036.74 1834.86 L2022.67 1834.86 L2022.67 1843.33 Q2023.69 1842.98 2024.71 1842.82 Q2025.73 1842.64 2026.74 1842.64 Q2032.53 1842.64 2035.91 1845.81 Q2039.29 1848.98 2039.29 1854.4 Q2039.29 1859.97 2035.82 1863.08 Q2032.35 1866.15 2026.03 1866.15 Q2023.85 1866.15 2021.58 1865.78 Q2019.34 1865.41 2016.93 1864.67 L2016.93 1859.97 Q2019.01 1861.11 2021.24 1861.66 Q2023.46 1862.22 2025.93 1862.22 Q2029.94 1862.22 2032.28 1860.11 Q2034.61 1858.01 2034.61 1854.4 Q2034.61 1850.78 2032.28 1848.68 Q2029.94 1846.57 2025.93 1846.57 Q2024.06 1846.57 2022.18 1846.99 Q2020.33 1847.4 2018.39 1848.28 L2018.39 1830.92 Z" fill="#f8f8f2" fill-rule="evenodd" fill-opacity="1" /><path clip-path="url(#clip860)" d="M2457.04 1861.55 L2464.68 1861.55 L2464.68 1835.18 L2456.37 1836.85 L2456.37 1832.59 L2464.63 1830.92 L2469.31 1830.92 L2469.31 1861.55 L2476.95 1861.55 L2476.95 1865.48 L2457.04 1865.48 L2457.04 1861.55 Z" fill="#f8f8f2" fill-rule="evenodd" fill-opacity="1" /><path clip-path="url(#clip860)" d="M2496.39 1834 Q2492.78 1834 2490.95 1837.57 Q2489.15 1841.11 2489.15 1848.24 Q2489.15 1855.34 2490.95 1858.91 Q2492.78 1862.45 2496.39 1862.45 Q2500.03 1862.45 2501.83 1858.91 Q2503.66 1855.34 2503.66 1848.24 Q2503.66 1841.11 2501.83 1837.57 Q2500.03 1834 2496.39 1834 M2496.39 1830.3 Q2502.2 1830.3 2505.26 1834.9 Q2508.34 1839.49 2508.34 1848.24 Q2508.34 1856.96 2505.26 1861.57 Q2502.2 1866.15 2496.39 1866.15 Q2490.58 1866.15 2487.5 1861.57 Q2484.45 1856.96 2484.45 1848.24 Q2484.45 1839.49 2487.5 1834.9 Q2490.58 1830.3 2496.39 1830.3 Z" fill="#f8f8f2" fill-rule="evenodd" fill-opacity="1" /><path clip-path="url(#clip860)" d="M2516.56 1859.6 L2521.44 1859.6 L2521.44 1865.48 L2516.56 1865.48 L2516.56 1859.6 Z" fill="#f8f8f2" fill-rule="evenodd" fill-opacity="1" /><path clip-path="url(#clip860)" d="M2541.62 1834 Q2538.01 1834 2536.19 1837.57 Q2534.38 1841.11 2534.38 1848.24 Q2534.38 1855.34 2536.19 1858.91 Q2538.01 1862.45 2541.62 1862.45 Q2545.26 1862.45 2547.06 1858.91 Q2548.89 1855.34 2548.89 1848.24 Q2548.89 1841.11 2547.06 1837.57 Q2545.26 1834 2541.62 1834 M2541.62 1830.3 Q2547.44 1830.3 2550.49 1834.9 Q2553.57 1839.49 2553.57 1848.24 Q2553.57 1856.96 2550.49 1861.57 Q2547.44 1866.15 2541.62 1866.15 Q2535.81 1866.15 2532.74 1861.57 Q2529.68 1856.96 2529.68 1848.24 Q2529.68 1839.49 2532.74 1834.9 Q2535.81 1830.3 2541.62 1830.3 Z" fill="#f8f8f2" fill-rule="evenodd" fill-opacity="1" /><polyline clip-path="url(#clip862)" style="stroke:#f8f8f2; stroke-linecap:round; stroke-linejoin:round; stroke-width:2; stroke-opacity:0.1; fill:none" points="172.001,1751.15 2640.76,1751.15 "/>
<polyline clip-path="url(#clip862)" style="stroke:#f8f8f2; stroke-linecap:round; stroke-linejoin:round; stroke-width:2; stroke-opacity:0.1; fill:none" points="172.001,1498.59 2640.76,1498.59 "/>
<polyline clip-path="url(#clip862)" style="stroke:#f8f8f2; stroke-linecap:round; stroke-linejoin:round; stroke-width:2; stroke-opacity:0.1; fill:none" points="172.001,1246.03 2640.76,1246.03 "/>
<polyline clip-path="url(#clip862)" style="stroke:#f8f8f2; stroke-linecap:round; stroke-linejoin:round; stroke-width:2; stroke-opacity:0.1; fill:none" points="172.001,993.466 2640.76,993.466 "/>
<polyline clip-path="url(#clip862)" style="stroke:#f8f8f2; stroke-linecap:round; stroke-linejoin:round; stroke-width:2; stroke-opacity:0.1; fill:none" points="172.001,740.905 2640.76,740.905 "/>
<polyline clip-path="url(#clip862)" style="stroke:#f8f8f2; stroke-linecap:round; stroke-linejoin:round; stroke-width:2; stroke-opacity:0.1; fill:none" points="172.001,488.343 2640.76,488.343 "/>
<polyline clip-path="url(#clip862)" style="stroke:#f8f8f2; stroke-linecap:round; stroke-linejoin:round; stroke-width:2; stroke-opacity:0.1; fill:none" points="172.001,235.781 2640.76,235.781 "/>
<polyline clip-path="url(#clip860)" style="stroke:#f8f8f2; stroke-linecap:round; stroke-linejoin:round; stroke-width:4; stroke-opacity:1; fill:none" points="172.001,1800.78 172.001,47.2441 "/>
<polyline clip-path="url(#clip860)" style="stroke:#f8f8f2; stroke-linecap:round; stroke-linejoin:round; stroke-width:4; stroke-opacity:1; fill:none" points="172.001,1751.15 190.899,1751.15 "/>
<polyline clip-path="url(#clip860)" style="stroke:#f8f8f2; stroke-linecap:round; stroke-linejoin:round; stroke-width:4; stroke-opacity:1; fill:none" points="172.001,1498.59 190.899,1498.59 "/>
<polyline clip-path="url(#clip860)" style="stroke:#f8f8f2; stroke-linecap:round; stroke-linejoin:round; stroke-width:4; stroke-opacity:1; fill:none" points="172.001,1246.03 190.899,1246.03 "/>
<polyline clip-path="url(#clip860)" style="stroke:#f8f8f2; stroke-linecap:round; stroke-linejoin:round; stroke-width:4; stroke-opacity:1; fill:none" points="172.001,993.466 190.899,993.466 "/>
<polyline clip-path="url(#clip860)" style="stroke:#f8f8f2; stroke-linecap:round; stroke-linejoin:round; stroke-width:4; stroke-opacity:1; fill:none" points="172.001,740.905 190.899,740.905 "/>
<polyline clip-path="url(#clip860)" style="stroke:#f8f8f2; stroke-linecap:round; stroke-linejoin:round; stroke-width:4; stroke-opacity:1; fill:none" points="172.001,488.343 190.899,488.343 "/>
<polyline clip-path="url(#clip860)" style="stroke:#f8f8f2; stroke-linecap:round; stroke-linejoin:round; stroke-width:4; stroke-opacity:1; fill:none" points="172.001,235.781 190.899,235.781 "/>
<path clip-path="url(#clip860)" d="M119.737 1736.95 Q116.126 1736.95 114.297 1740.51 Q112.492 1744.06 112.492 1751.19 Q112.492 1758.29 114.297 1761.86 Q116.126 1765.4 119.737 1765.4 Q123.371 1765.4 125.177 1761.86 Q127.005 1758.29 127.005 1751.19 Q127.005 1744.06 125.177 1740.51 Q123.371 1736.95 119.737 1736.95 M119.737 1733.25 Q125.547 1733.25 128.603 1737.85 Q131.681 1742.44 131.681 1751.19 Q131.681 1759.91 128.603 1764.52 Q125.547 1769.1 119.737 1769.1 Q113.927 1769.1 110.848 1764.52 Q107.793 1759.91 107.793 1751.19 Q107.793 1742.44 110.848 1737.85 Q113.927 1733.25 119.737 1733.25 Z" fill="#f8f8f2" fill-rule="evenodd" fill-opacity="1" /><path clip-path="url(#clip860)" d="M83.6029 1511.93 L99.9222 1511.93 L99.9222 1515.87 L77.9779 1515.87 L77.9779 1511.93 Q80.6399 1509.18 85.2232 1504.55 Q89.8297 1499.9 91.0102 1498.55 Q93.2556 1496.03 94.1352 1494.3 Q95.038 1492.54 95.038 1490.85 Q95.038 1488.09 93.0936 1486.36 Q91.1723 1484.62 88.0704 1484.62 Q85.8714 1484.62 83.4177 1485.38 Q80.9871 1486.15 78.2094 1487.7 L78.2094 1482.98 Q81.0334 1481.84 83.4871 1481.26 Q85.9408 1480.68 87.9778 1480.68 Q93.3482 1480.68 96.5426 1483.37 Q99.737 1486.05 99.737 1490.55 Q99.737 1492.68 98.9269 1494.6 Q98.1398 1496.49 96.0334 1499.09 Q95.4547 1499.76 92.3528 1502.98 Q89.251 1506.17 83.6029 1511.93 Z" fill="#f8f8f2" fill-rule="evenodd" fill-opacity="1" /><path clip-path="url(#clip860)" d="M119.737 1484.39 Q116.126 1484.39 114.297 1487.95 Q112.492 1491.49 112.492 1498.62 Q112.492 1505.73 114.297 1509.3 Q116.126 1512.84 119.737 1512.84 Q123.371 1512.84 125.177 1509.3 Q127.005 1505.73 127.005 1498.62 Q127.005 1491.49 125.177 1487.95 Q123.371 1484.39 119.737 1484.39 M119.737 1480.68 Q125.547 1480.68 128.603 1485.29 Q131.681 1489.87 131.681 1498.62 Q131.681 1507.35 128.603 1511.96 Q125.547 1516.54 119.737 1516.54 Q113.927 1516.54 110.848 1511.96 Q107.793 1507.35 107.793 1498.62 Q107.793 1489.87 110.848 1485.29 Q113.927 1480.68 119.737 1480.68 Z" fill="#f8f8f2" fill-rule="evenodd" fill-opacity="1" /><path clip-path="url(#clip860)" d="M92.4223 1232.82 L80.6168 1251.27 L92.4223 1251.27 L92.4223 1232.82 M91.1954 1228.75 L97.075 1228.75 L97.075 1251.27 L102.006 1251.27 L102.006 1255.16 L97.075 1255.16 L97.075 1263.31 L92.4223 1263.31 L92.4223 1255.16 L76.8205 1255.16 L76.8205 1250.65 L91.1954 1228.75 Z" fill="#f8f8f2" fill-rule="evenodd" fill-opacity="1" /><path clip-path="url(#clip860)" d="M119.737 1231.83 Q116.126 1231.83 114.297 1235.39 Q112.492 1238.93 112.492 1246.06 Q112.492 1253.17 114.297 1256.73 Q116.126 1260.28 119.737 1260.28 Q123.371 1260.28 125.177 1256.73 Q127.005 1253.17 127.005 1246.06 Q127.005 1238.93 125.177 1235.39 Q123.371 1231.83 119.737 1231.83 M119.737 1228.12 Q125.547 1228.12 128.603 1232.73 Q131.681 1237.31 131.681 1246.06 Q131.681 1254.79 128.603 1259.4 Q125.547 1263.98 119.737 1263.98 Q113.927 1263.98 110.848 1259.4 Q107.793 1254.79 107.793 1246.06 Q107.793 1237.31 110.848 1232.73 Q113.927 1228.12 119.737 1228.12 Z" fill="#f8f8f2" fill-rule="evenodd" fill-opacity="1" /><path clip-path="url(#clip860)" d="M90.1538 991.603 Q87.0056 991.603 85.1538 993.755 Q83.3251 995.908 83.3251 999.658 Q83.3251 1003.39 85.1538 1005.56 Q87.0056 1007.71 90.1538 1007.71 Q93.3019 1007.71 95.1306 1005.56 Q96.9824 1003.39 96.9824 999.658 Q96.9824 995.908 95.1306 993.755 Q93.3019 991.603 90.1538 991.603 M99.4361 976.95 L99.4361 981.209 Q97.6769 980.376 95.8713 979.936 Q94.0889 979.496 92.3297 979.496 Q87.7001 979.496 85.2464 982.621 Q82.8158 985.746 82.4686 992.066 Q83.8343 990.052 85.8945 988.987 Q87.9547 987.899 90.4315 987.899 Q95.6398 987.899 98.6491 991.07 Q101.681 994.218 101.681 999.658 Q101.681 1004.98 98.5333 1008.2 Q95.3852 1011.42 90.1538 1011.42 Q84.1584 1011.42 80.9871 1006.83 Q77.8159 1002.23 77.8159 993.501 Q77.8159 985.306 81.7047 980.445 Q85.5936 975.561 92.1445 975.561 Q93.9037 975.561 95.6861 975.908 Q97.4917 976.256 99.4361 976.95 Z" fill="#f8f8f2" fill-rule="evenodd" fill-opacity="1" /><path clip-path="url(#clip860)" d="M119.737 979.265 Q116.126 979.265 114.297 982.83 Q112.492 986.371 112.492 993.501 Q112.492 1000.61 114.297 1004.17 Q116.126 1007.71 119.737 1007.71 Q123.371 1007.71 125.177 1004.17 Q127.005 1000.61 127.005 993.501 Q127.005 986.371 125.177 982.83 Q123.371 979.265 119.737 979.265 M119.737 975.561 Q125.547 975.561 128.603 980.168 Q131.681 984.751 131.681 993.501 Q131.681 1002.23 128.603 1006.83 Q125.547 1011.42 119.737 1011.42 Q113.927 1011.42 110.848 1006.83 Q107.793 1002.23 107.793 993.501 Q107.793 984.751 110.848 980.168 Q113.927 975.561 119.737 975.561 Z" fill="#f8f8f2" fill-rule="evenodd" fill-opacity="1" /><path clip-path="url(#clip860)" d="M89.5751 741.773 Q86.2417 741.773 84.3205 743.555 Q82.4223 745.337 82.4223 748.462 Q82.4223 751.587 84.3205 753.37 Q86.2417 755.152 89.5751 755.152 Q92.9084 755.152 94.8297 753.37 Q96.7509 751.564 96.7509 748.462 Q96.7509 745.337 94.8297 743.555 Q92.9315 741.773 89.5751 741.773 M84.8992 739.782 Q81.8899 739.041 80.2001 736.981 Q78.5335 734.921 78.5335 731.958 Q78.5335 727.814 81.4733 725.407 Q84.4362 723 89.5751 723 Q94.7371 723 97.6769 725.407 Q100.617 727.814 100.617 731.958 Q100.617 734.921 98.9269 736.981 Q97.2602 739.041 94.2741 739.782 Q97.6537 740.569 99.5287 742.861 Q101.427 745.152 101.427 748.462 Q101.427 753.485 98.3482 756.171 Q95.2926 758.856 89.5751 758.856 Q83.8575 758.856 80.7788 756.171 Q77.7233 753.485 77.7233 748.462 Q77.7233 745.152 79.6214 742.861 Q81.5195 740.569 84.8992 739.782 M83.1862 732.398 Q83.1862 735.083 84.8529 736.587 Q86.5427 738.092 89.5751 738.092 Q92.5843 738.092 94.2741 736.587 Q95.9871 735.083 95.9871 732.398 Q95.9871 729.712 94.2741 728.208 Q92.5843 726.703 89.5751 726.703 Q86.5427 726.703 84.8529 728.208 Q83.1862 729.712 83.1862 732.398 Z" fill="#f8f8f2" fill-rule="evenodd" fill-opacity="1" /><path clip-path="url(#clip860)" d="M119.737 726.703 Q116.126 726.703 114.297 730.268 Q112.492 733.81 112.492 740.939 Q112.492 748.046 114.297 751.61 Q116.126 755.152 119.737 755.152 Q123.371 755.152 125.177 751.61 Q127.005 748.046 127.005 740.939 Q127.005 733.81 125.177 730.268 Q123.371 726.703 119.737 726.703 M119.737 723 Q125.547 723 128.603 727.606 Q131.681 732.189 131.681 740.939 Q131.681 749.666 128.603 754.273 Q125.547 758.856 119.737 758.856 Q113.927 758.856 110.848 754.273 Q107.793 749.666 107.793 740.939 Q107.793 732.189 110.848 727.606 Q113.927 723 119.737 723 Z" fill="#f8f8f2" fill-rule="evenodd" fill-opacity="1" /><path clip-path="url(#clip860)" d="M50.2234 501.688 L57.8623 501.688 L57.8623 475.322 L49.5521 476.989 L49.5521 472.73 L57.816 471.063 L62.4919 471.063 L62.4919 501.688 L70.1307 501.688 L70.1307 505.623 L50.2234 505.623 L50.2234 501.688 Z" fill="#f8f8f2" fill-rule="evenodd" fill-opacity="1" /><path clip-path="url(#clip860)" d="M89.5751 474.142 Q85.964 474.142 84.1353 477.706 Q82.3297 481.248 82.3297 488.378 Q82.3297 495.484 84.1353 499.049 Q85.964 502.591 89.5751 502.591 Q93.2093 502.591 95.0148 499.049 Q96.8435 495.484 96.8435 488.378 Q96.8435 481.248 95.0148 477.706 Q93.2093 474.142 89.5751 474.142 M89.5751 470.438 Q95.3852 470.438 98.4408 475.044 Q101.519 479.628 101.519 488.378 Q101.519 497.104 98.4408 501.711 Q95.3852 506.294 89.5751 506.294 Q83.7649 506.294 80.6862 501.711 Q77.6307 497.104 77.6307 488.378 Q77.6307 479.628 80.6862 475.044 Q83.7649 470.438 89.5751 470.438 Z" fill="#f8f8f2" fill-rule="evenodd" fill-opacity="1" /><path clip-path="url(#clip860)" d="M119.737 474.142 Q116.126 474.142 114.297 477.706 Q112.492 481.248 112.492 488.378 Q112.492 495.484 114.297 499.049 Q116.126 502.591 119.737 502.591 Q123.371 502.591 125.177 499.049 Q127.005 495.484 127.005 488.378 Q127.005 481.248 125.177 477.706 Q123.371 474.142 119.737 474.142 M119.737 470.438 Q125.547 470.438 128.603 475.044 Q131.681 479.628 131.681 488.378 Q131.681 497.104 128.603 501.711 Q125.547 506.294 119.737 506.294 Q113.927 506.294 110.848 501.711 Q107.793 497.104 107.793 488.378 Q107.793 479.628 110.848 475.044 Q113.927 470.438 119.737 470.438 Z" fill="#f8f8f2" fill-rule="evenodd" fill-opacity="1" /><path clip-path="url(#clip860)" d="M50.2234 249.126 L57.8623 249.126 L57.8623 222.761 L49.5521 224.427 L49.5521 220.168 L57.816 218.501 L62.4919 218.501 L62.4919 249.126 L70.1307 249.126 L70.1307 253.061 L50.2234 253.061 L50.2234 249.126 Z" fill="#f8f8f2" fill-rule="evenodd" fill-opacity="1" /><path clip-path="url(#clip860)" d="M83.6029 249.126 L99.9222 249.126 L99.9222 253.061 L77.9779 253.061 L77.9779 249.126 Q80.6399 246.372 85.2232 241.742 Q89.8297 237.089 91.0102 235.747 Q93.2556 233.223 94.1352 231.487 Q95.038 229.728 95.038 228.038 Q95.038 225.284 93.0936 223.548 Q91.1723 221.811 88.0704 221.811 Q85.8714 221.811 83.4177 222.575 Q80.9871 223.339 78.2094 224.89 L78.2094 220.168 Q81.0334 219.034 83.4871 218.455 Q85.9408 217.876 87.9778 217.876 Q93.3482 217.876 96.5426 220.562 Q99.737 223.247 99.737 227.737 Q99.737 229.867 98.9269 231.788 Q98.1398 233.686 96.0334 236.279 Q95.4547 236.95 92.3528 240.168 Q89.251 243.362 83.6029 249.126 Z" fill="#f8f8f2" fill-rule="evenodd" fill-opacity="1" /><path clip-path="url(#clip860)" d="M119.737 221.58 Q116.126 221.58 114.297 225.145 Q112.492 228.686 112.492 235.816 Q112.492 242.922 114.297 246.487 Q116.126 250.029 119.737 250.029 Q123.371 250.029 125.177 246.487 Q127.005 242.922 127.005 235.816 Q127.005 228.686 125.177 225.145 Q123.371 221.58 119.737 221.58 M119.737 217.876 Q125.547 217.876 128.603 222.483 Q131.681 227.066 131.681 235.816 Q131.681 244.543 128.603 249.149 Q125.547 253.733 119.737 253.733 Q113.927 253.733 110.848 249.149 Q107.793 244.543 107.793 235.816 Q107.793 227.066 110.848 222.483 Q113.927 217.876 119.737 217.876 Z" fill="#f8f8f2" fill-rule="evenodd" fill-opacity="1" /><path clip-path="url(#clip862)" d="M307.787 1738.52 L307.787 1751.15 L407.659 1751.15 L407.659 1738.52 L307.787 1738.52 L307.787 1738.52  Z" fill="#8be9fd" fill-rule="evenodd" fill-opacity="1"/>
<polyline clip-path="url(#clip862)" style="stroke:#f8f8f2; stroke-linecap:round; stroke-linejoin:round; stroke-width:4; stroke-opacity:1; fill:none" points="307.787,1738.52 307.787,1751.15 407.659,1751.15 407.659,1738.52 307.787,1738.52 "/>
<path clip-path="url(#clip862)" d="M407.659 1751.15 L407.659 1751.15 L507.531 1751.15 L507.531 1751.15 L407.659 1751.15 L407.659 1751.15  Z" fill="#8be9fd" fill-rule="evenodd" fill-opacity="1"/>
<polyline clip-path="url(#clip862)" style="stroke:#f8f8f2; stroke-linecap:round; stroke-linejoin:round; stroke-width:4; stroke-opacity:1; fill:none" points="407.659,1751.15 407.659,1751.15 507.531,1751.15 407.659,1751.15 "/>
<path clip-path="url(#clip862)" d="M507.531 1713.27 L507.531 1751.15 L607.403 1751.15 L607.403 1713.27 L507.531 1713.27 L507.531 1713.27  Z" fill="#8be9fd" fill-rule="evenodd" fill-opacity="1"/>
<polyline clip-path="url(#clip862)" style="stroke:#f8f8f2; stroke-linecap:round; stroke-linejoin:round; stroke-width:4; stroke-opacity:1; fill:none" points="507.531,1713.27 507.531,1751.15 607.403,1751.15 607.403,1713.27 507.531,1713.27 "/>
<path clip-path="url(#clip862)" d="M607.403 1688.01 L607.403 1751.15 L707.275 1751.15 L707.275 1688.01 L607.403 1688.01 L607.403 1688.01  Z" fill="#8be9fd" fill-rule="evenodd" fill-opacity="1"/>
<polyline clip-path="url(#clip862)" style="stroke:#f8f8f2; stroke-linecap:round; stroke-linejoin:round; stroke-width:4; stroke-opacity:1; fill:none" points="607.403,1688.01 607.403,1751.15 707.275,1751.15 707.275,1688.01 607.403,1688.01 "/>
<path clip-path="url(#clip862)" d="M707.275 1688.01 L707.275 1751.15 L807.147 1751.15 L807.147 1688.01 L707.275 1688.01 L707.275 1688.01  Z" fill="#8be9fd" fill-rule="evenodd" fill-opacity="1"/>
<polyline clip-path="url(#clip862)" style="stroke:#f8f8f2; stroke-linecap:round; stroke-linejoin:round; stroke-width:4; stroke-opacity:1; fill:none" points="707.275,1688.01 707.275,1751.15 807.147,1751.15 807.147,1688.01 707.275,1688.01 "/>
<path clip-path="url(#clip862)" d="M807.147 1599.61 L807.147 1751.15 L907.019 1751.15 L907.019 1599.61 L807.147 1599.61 L807.147 1599.61  Z" fill="#8be9fd" fill-rule="evenodd" fill-opacity="1"/>
<polyline clip-path="url(#clip862)" style="stroke:#f8f8f2; stroke-linecap:round; stroke-linejoin:round; stroke-width:4; stroke-opacity:1; fill:none" points="807.147,1599.61 807.147,1751.15 907.019,1751.15 907.019,1599.61 807.147,1599.61 "/>
<path clip-path="url(#clip862)" d="M907.019 1422.82 L907.019 1751.15 L1006.89 1751.15 L1006.89 1422.82 L907.019 1422.82 L907.019 1422.82  Z" fill="#8be9fd" fill-rule="evenodd" fill-opacity="1"/>
<polyline clip-path="url(#clip862)" style="stroke:#f8f8f2; stroke-linecap:round; stroke-linejoin:round; stroke-width:4; stroke-opacity:1; fill:none" points="907.019,1422.82 907.019,1751.15 1006.89,1751.15 1006.89,1422.82 907.019,1422.82 "/>
<path clip-path="url(#clip862)" d="M1006.89 1233.4 L1006.89 1751.15 L1106.76 1751.15 L1106.76 1233.4 L1006.89 1233.4 L1006.89 1233.4  Z" fill="#8be9fd" fill-rule="evenodd" fill-opacity="1"/>
<polyline clip-path="url(#clip862)" style="stroke:#f8f8f2; stroke-linecap:round; stroke-linejoin:round; stroke-width:4; stroke-opacity:1; fill:none" points="1006.89,1233.4 1006.89,1751.15 1106.76,1751.15 1106.76,1233.4 1006.89,1233.4 "/>
<path clip-path="url(#clip862)" d="M1106.76 766.161 L1106.76 1751.15 L1206.63 1751.15 L1206.63 766.161 L1106.76 766.161 L1106.76 766.161  Z" fill="#8be9fd" fill-rule="evenodd" fill-opacity="1"/>
<polyline clip-path="url(#clip862)" style="stroke:#f8f8f2; stroke-linecap:round; stroke-linejoin:round; stroke-width:4; stroke-opacity:1; fill:none" points="1106.76,766.161 1106.76,1751.15 1206.63,1751.15 1206.63,766.161 1106.76,766.161 "/>
<path clip-path="url(#clip862)" d="M1206.63 614.624 L1206.63 1751.15 L1306.51 1751.15 L1306.51 614.624 L1206.63 614.624 L1206.63 614.624  Z" fill="#8be9fd" fill-rule="evenodd" fill-opacity="1"/>
<polyline clip-path="url(#clip862)" style="stroke:#f8f8f2; stroke-linecap:round; stroke-linejoin:round; stroke-width:4; stroke-opacity:1; fill:none" points="1206.63,614.624 1206.63,1751.15 1306.51,1751.15 1306.51,614.624 1206.63,614.624 "/>
<path clip-path="url(#clip862)" d="M1306.51 362.062 L1306.51 1751.15 L1406.38 1751.15 L1406.38 362.062 L1306.51 362.062 L1306.51 362.062  Z" fill="#8be9fd" fill-rule="evenodd" fill-opacity="1"/>
<polyline clip-path="url(#clip862)" style="stroke:#f8f8f2; stroke-linecap:round; stroke-linejoin:round; stroke-width:4; stroke-opacity:1; fill:none" points="1306.51,362.062 1306.51,1751.15 1406.38,1751.15 1406.38,362.062 1306.51,362.062 "/>
<path clip-path="url(#clip862)" d="M1406.38 96.8724 L1406.38 1751.15 L1506.25 1751.15 L1506.25 96.8724 L1406.38 96.8724 L1406.38 96.8724  Z" fill="#8be9fd" fill-rule="evenodd" fill-opacity="1"/>
<polyline clip-path="url(#clip862)" style="stroke:#f8f8f2; stroke-linecap:round; stroke-linejoin:round; stroke-width:4; stroke-opacity:1; fill:none" points="1406.38,96.8724 1406.38,1751.15 1506.25,1751.15 1506.25,96.8724 1406.38,96.8724 "/>
<path clip-path="url(#clip862)" d="M1506.25 210.525 L1506.25 1751.15 L1606.12 1751.15 L1606.12 210.525 L1506.25 210.525 L1506.25 210.525  Z" fill="#8be9fd" fill-rule="evenodd" fill-opacity="1"/>
<polyline clip-path="url(#clip862)" style="stroke:#f8f8f2; stroke-linecap:round; stroke-linejoin:round; stroke-width:4; stroke-opacity:1; fill:none" points="1506.25,210.525 1506.25,1751.15 1606.12,1751.15 1606.12,210.525 1506.25,210.525 "/>
<path clip-path="url(#clip862)" d="M1606.12 336.806 L1606.12 1751.15 L1705.99 1751.15 L1705.99 336.806 L1606.12 336.806 L1606.12 336.806  Z" fill="#8be9fd" fill-rule="evenodd" fill-opacity="1"/>
<polyline clip-path="url(#clip862)" style="stroke:#f8f8f2; stroke-linecap:round; stroke-linejoin:round; stroke-width:4; stroke-opacity:1; fill:none" points="1606.12,336.806 1606.12,1751.15 1705.99,1751.15 1705.99,336.806 1606.12,336.806 "/>
<path clip-path="url(#clip862)" d="M1705.99 463.087 L1705.99 1751.15 L1805.87 1751.15 L1805.87 463.087 L1705.99 463.087 L1705.99 463.087  Z" fill="#8be9fd" fill-rule="evenodd" fill-opacity="1"/>
<polyline clip-path="url(#clip862)" style="stroke:#f8f8f2; stroke-linecap:round; stroke-linejoin:round; stroke-width:4; stroke-opacity:1; fill:none" points="1705.99,463.087 1705.99,1751.15 1805.87,1751.15 1805.87,463.087 1705.99,463.087 "/>
<path clip-path="url(#clip862)" d="M1805.87 968.21 L1805.87 1751.15 L1905.74 1751.15 L1905.74 968.21 L1805.87 968.21 L1805.87 968.21  Z" fill="#8be9fd" fill-rule="evenodd" fill-opacity="1"/>
<polyline clip-path="url(#clip862)" style="stroke:#f8f8f2; stroke-linecap:round; stroke-linejoin:round; stroke-width:4; stroke-opacity:1; fill:none" points="1805.87,968.21 1805.87,1751.15 1905.74,1751.15 1905.74,968.21 1805.87,968.21 "/>
<path clip-path="url(#clip862)" d="M1905.74 1182.89 L1905.74 1751.15 L2005.61 1751.15 L2005.61 1182.89 L1905.74 1182.89 L1905.74 1182.89  Z" fill="#8be9fd" fill-rule="evenodd" fill-opacity="1"/>
<polyline clip-path="url(#clip862)" style="stroke:#f8f8f2; stroke-linecap:round; stroke-linejoin:round; stroke-width:4; stroke-opacity:1; fill:none" points="1905.74,1182.89 1905.74,1751.15 2005.61,1751.15 2005.61,1182.89 1905.74,1182.89 "/>
<path clip-path="url(#clip862)" d="M2005.61 1435.45 L2005.61 1751.15 L2105.48 1751.15 L2105.48 1435.45 L2005.61 1435.45 L2005.61 1435.45  Z" fill="#8be9fd" fill-rule="evenodd" fill-opacity="1"/>
<polyline clip-path="url(#clip862)" style="stroke:#f8f8f2; stroke-linecap:round; stroke-linejoin:round; stroke-width:4; stroke-opacity:1; fill:none" points="2005.61,1435.45 2005.61,1751.15 2105.48,1751.15 2105.48,1435.45 2005.61,1435.45 "/>
<path clip-path="url(#clip862)" d="M2105.48 1473.33 L2105.48 1751.15 L2205.35 1751.15 L2205.35 1473.33 L2105.48 1473.33 L2105.48 1473.33  Z" fill="#8be9fd" fill-rule="evenodd" fill-opacity="1"/>
<polyline clip-path="url(#clip862)" style="stroke:#f8f8f2; stroke-linecap:round; stroke-linejoin:round; stroke-width:4; stroke-opacity:1; fill:none" points="2105.48,1473.33 2105.48,1751.15 2205.35,1751.15 2205.35,1473.33 2105.48,1473.33 "/>
<path clip-path="url(#clip862)" d="M2205.35 1700.64 L2205.35 1751.15 L2305.23 1751.15 L2305.23 1700.64 L2205.35 1700.64 L2205.35 1700.64  Z" fill="#8be9fd" fill-rule="evenodd" fill-opacity="1"/>
<polyline clip-path="url(#clip862)" style="stroke:#f8f8f2; stroke-linecap:round; stroke-linejoin:round; stroke-width:4; stroke-opacity:1; fill:none" points="2205.35,1700.64 2205.35,1751.15 2305.23,1751.15 2305.23,1700.64 2205.35,1700.64 "/>
<path clip-path="url(#clip862)" d="M2305.23 1713.27 L2305.23 1751.15 L2405.1 1751.15 L2405.1 1713.27 L2305.23 1713.27 L2305.23 1713.27  Z" fill="#8be9fd" fill-rule="evenodd" fill-opacity="1"/>
<polyline clip-path="url(#clip862)" style="stroke:#f8f8f2; stroke-linecap:round; stroke-linejoin:round; stroke-width:4; stroke-opacity:1; fill:none" points="2305.23,1713.27 2305.23,1751.15 2405.1,1751.15 2405.1,1713.27 2305.23,1713.27 "/>
<path clip-path="url(#clip862)" d="M2405.1 1738.52 L2405.1 1751.15 L2504.97 1751.15 L2504.97 1738.52 L2405.1 1738.52 L2405.1 1738.52  Z" fill="#8be9fd" fill-rule="evenodd" fill-opacity="1"/>
<polyline clip-path="url(#clip862)" style="stroke:#f8f8f2; stroke-linecap:round; stroke-linejoin:round; stroke-width:4; stroke-opacity:1; fill:none" points="2405.1,1738.52 2405.1,1751.15 2504.97,1751.15 2504.97,1738.52 2405.1,1738.52 "/>
<circle clip-path="url(#clip862)" style="fill:#8be9fd; stroke:none; fill-opacity:0" cx="357.723" cy="1738.52" r="2"/>
<circle clip-path="url(#clip862)" style="fill:#8be9fd; stroke:none; fill-opacity:0" cx="457.595" cy="1751.15" r="2"/>
<circle clip-path="url(#clip862)" style="fill:#8be9fd; stroke:none; fill-opacity:0" cx="557.467" cy="1713.27" r="2"/>
<circle clip-path="url(#clip862)" style="fill:#8be9fd; stroke:none; fill-opacity:0" cx="657.339" cy="1688.01" r="2"/>
<circle clip-path="url(#clip862)" style="fill:#8be9fd; stroke:none; fill-opacity:0" cx="757.211" cy="1688.01" r="2"/>
<circle clip-path="url(#clip862)" style="fill:#8be9fd; stroke:none; fill-opacity:0" cx="857.083" cy="1599.61" r="2"/>
<circle clip-path="url(#clip862)" style="fill:#8be9fd; stroke:none; fill-opacity:0" cx="956.955" cy="1422.82" r="2"/>
<circle clip-path="url(#clip862)" style="fill:#8be9fd; stroke:none; fill-opacity:0" cx="1056.83" cy="1233.4" r="2"/>
<circle clip-path="url(#clip862)" style="fill:#8be9fd; stroke:none; fill-opacity:0" cx="1156.7" cy="766.161" r="2"/>
<circle clip-path="url(#clip862)" style="fill:#8be9fd; stroke:none; fill-opacity:0" cx="1256.57" cy="614.624" r="2"/>
<circle clip-path="url(#clip862)" style="fill:#8be9fd; stroke:none; fill-opacity:0" cx="1356.44" cy="362.062" r="2"/>
<circle clip-path="url(#clip862)" style="fill:#8be9fd; stroke:none; fill-opacity:0" cx="1456.31" cy="96.8724" r="2"/>
<circle clip-path="url(#clip862)" style="fill:#8be9fd; stroke:none; fill-opacity:0" cx="1556.19" cy="210.525" r="2"/>
<circle clip-path="url(#clip862)" style="fill:#8be9fd; stroke:none; fill-opacity:0" cx="1656.06" cy="336.806" r="2"/>
<circle clip-path="url(#clip862)" style="fill:#8be9fd; stroke:none; fill-opacity:0" cx="1755.93" cy="463.087" r="2"/>
<circle clip-path="url(#clip862)" style="fill:#8be9fd; stroke:none; fill-opacity:0" cx="1855.8" cy="968.21" r="2"/>
<circle clip-path="url(#clip862)" style="fill:#8be9fd; stroke:none; fill-opacity:0" cx="1955.67" cy="1182.89" r="2"/>
<circle clip-path="url(#clip862)" style="fill:#8be9fd; stroke:none; fill-opacity:0" cx="2055.55" cy="1435.45" r="2"/>
<circle clip-path="url(#clip862)" style="fill:#8be9fd; stroke:none; fill-opacity:0" cx="2155.42" cy="1473.33" r="2"/>
<circle clip-path="url(#clip862)" style="fill:#8be9fd; stroke:none; fill-opacity:0" cx="2255.29" cy="1700.64" r="2"/>
<circle clip-path="url(#clip862)" style="fill:#8be9fd; stroke:none; fill-opacity:0" cx="2355.16" cy="1713.27" r="2"/>
<circle clip-path="url(#clip862)" style="fill:#8be9fd; stroke:none; fill-opacity:0" cx="2455.03" cy="1738.52" r="2"/>
<path clip-path="url(#clip860)" d="M2259.16 209.375 L2558.46 209.375 L2558.46 105.695 L2259.16 105.695  Z" fill="#282a36" fill-rule="evenodd" fill-opacity="1"/>
<polyline clip-path="url(#clip860)" style="stroke:#f8f8f2; stroke-linecap:round; stroke-linejoin:round; stroke-width:4; stroke-opacity:1; fill:none" points="2259.16,209.375 2558.46,209.375 2558.46,105.695 2259.16,105.695 2259.16,209.375 "/>
<path clip-path="url(#clip860)" d="M2286.59 178.271 L2451.17 178.271 L2451.17 136.799 L2286.59 136.799 L2286.59 178.271  Z" fill="#8be9fd" fill-rule="evenodd" fill-opacity="1"/>
<polyline clip-path="url(#clip860)" style="stroke:#f8f8f2; stroke-linecap:round; stroke-linejoin:round; stroke-width:4; stroke-opacity:1; fill:none" points="2286.59,178.271 2451.17,178.271 2451.17,136.799 2286.59,136.799 2286.59,178.271 "/>
<path clip-path="url(#clip860)" d="M2492.45 177.223 Q2490.64 181.852 2488.93 183.264 Q2487.21 184.676 2484.34 184.676 L2480.94 184.676 L2480.94 181.112 L2483.44 181.112 Q2485.2 181.112 2486.17 180.278 Q2487.14 179.445 2488.33 176.343 L2489.09 174.399 L2478.6 148.889 L2483.12 148.889 L2491.22 169.167 L2499.32 148.889 L2503.83 148.889 L2492.45 177.223 Z" fill="#f8f8f2" fill-rule="evenodd" fill-opacity="1" /><path clip-path="url(#clip860)" d="M2511.13 170.88 L2518.77 170.88 L2518.77 144.515 L2510.45 146.181 L2510.45 141.922 L2518.72 140.255 L2523.39 140.255 L2523.39 170.88 L2531.03 170.88 L2531.03 174.815 L2511.13 174.815 L2511.13 170.88 Z" fill="#f8f8f2" fill-rule="evenodd" fill-opacity="1" /></svg>
