<?xml version="1.0" encoding="utf-8"?>
<svg xmlns="http://www.w3.org/2000/svg" xmlns:xlink="http://www.w3.org/1999/xlink" width="600" height="400" viewBox="0 0 2400 1600">
<defs>
  <clipPath id="clip540">
    <rect x="0" y="0" width="2400" height="1600"/>
  </clipPath>
</defs>
<path clip-path="url(#clip540)" d="M0 1600 L2400 1600 L2400 0 L0 0  Z" fill="#282a36" fill-rule="evenodd" fill-opacity="1"/>
<defs>
  <clipPath id="clip541">
    <rect x="480" y="0" width="1681" height="1600"/>
  </clipPath>
</defs>
<path clip-path="url(#clip540)" d="M169.121 1486.45 L2352.76 1486.45 L2352.76 47.2441 L169.121 47.2441  Z" fill="#30343b" fill-rule="evenodd" fill-opacity="1"/>
<defs>
  <clipPath id="clip542">
    <rect x="169" y="47" width="2185" height="1440"/>
  </clipPath>
</defs>
<polyline clip-path="url(#clip542)" style="stroke:#f8f8f2; stroke-linecap:round; stroke-linejoin:round; stroke-width:2; stroke-opacity:0.1; fill:none" points="289.225,1486.45 289.225,47.2441 "/>
<polyline clip-path="url(#clip542)" style="stroke:#f8f8f2; stroke-linecap:round; stroke-linejoin:round; stroke-width:2; stroke-opacity:0.1; fill:none" points="800.653,1486.45 800.653,47.2441 "/>
<polyline clip-path="url(#clip542)" style="stroke:#f8f8f2; stroke-linecap:round; stroke-linejoin:round; stroke-width:2; stroke-opacity:0.1; fill:none" points="1312.08,1486.45 1312.08,47.2441 "/>
<polyline clip-path="url(#clip542)" style="stroke:#f8f8f2; stroke-linecap:round; stroke-linejoin:round; stroke-width:2; stroke-opacity:0.1; fill:none" points="1823.51,1486.45 1823.51,47.2441 "/>
<polyline clip-path="url(#clip542)" style="stroke:#f8f8f2; stroke-linecap:round; stroke-linejoin:round; stroke-width:2; stroke-opacity:0.1; fill:none" points="2334.94,1486.45 2334.94,47.2441 "/>
<polyline clip-path="url(#clip540)" style="stroke:#f8f8f2; stroke-linecap:round; stroke-linejoin:round; stroke-width:4; stroke-opacity:1; fill:none" points="169.121,1486.45 2352.76,1486.45 "/>
<polyline clip-path="url(#clip540)" style="stroke:#f8f8f2; stroke-linecap:round; stroke-linejoin:round; stroke-width:4; stroke-opacity:1; fill:none" points="289.225,1486.45 289.225,1467.55 "/>
<polyline clip-path="url(#clip540)" style="stroke:#f8f8f2; stroke-linecap:round; stroke-linejoin:round; stroke-width:4; stroke-opacity:1; fill:none" points="800.653,1486.45 800.653,1467.55 "/>
<polyline clip-path="url(#clip540)" style="stroke:#f8f8f2; stroke-linecap:round; stroke-linejoin:round; stroke-width:4; stroke-opacity:1; fill:none" points="1312.08,1486.45 1312.08,1467.55 "/>
<polyline clip-path="url(#clip540)" style="stroke:#f8f8f2; stroke-linecap:round; stroke-linejoin:round; stroke-width:4; stroke-opacity:1; fill:none" points="1823.51,1486.45 1823.51,1467.55 "/>
<polyline clip-path="url(#clip540)" style="stroke:#f8f8f2; stroke-linecap:round; stroke-linejoin:round; stroke-width:4; stroke-opacity:1; fill:none" points="2334.94,1486.45 2334.94,1467.55 "/>
<path clip-path="url(#clip540)" d="M266.609 1517.37 Q262.998 1517.37 261.17 1520.93 Q259.364 1524.47 259.364 1531.6 Q259.364 1538.71 261.17 1542.27 Q262.998 1545.82 266.609 1545.82 Q270.244 1545.82 272.049 1542.27 Q273.878 1538.71 273.878 1531.6 Q273.878 1524.47 272.049 1520.93 Q270.244 1517.37 266.609 1517.37 M266.609 1513.66 Q272.42 1513.66 275.475 1518.27 Q278.554 1522.85 278.554 1531.6 Q278.554 1540.33 275.475 1544.94 Q272.42 1549.52 266.609 1549.52 Q260.799 1549.52 257.721 1544.94 Q254.665 1540.33 254.665 1531.6 Q254.665 1522.85 257.721 1518.27 Q260.799 1513.66 266.609 1513.66 Z" fill="#f8f8f2" fill-rule="evenodd" fill-opacity="1" /><path clip-path="url(#clip540)" d="M286.771 1542.97 L291.656 1542.97 L291.656 1548.85 L286.771 1548.85 L286.771 1542.97 Z" fill="#f8f8f2" fill-rule="evenodd" fill-opacity="1" /><path clip-path="url(#clip540)" d="M311.841 1517.37 Q308.23 1517.37 306.401 1520.93 Q304.595 1524.47 304.595 1531.6 Q304.595 1538.71 306.401 1542.27 Q308.23 1545.82 311.841 1545.82 Q315.475 1545.82 317.281 1542.27 Q319.109 1538.71 319.109 1531.6 Q319.109 1524.47 317.281 1520.93 Q315.475 1517.37 311.841 1517.37 M311.841 1513.66 Q317.651 1513.66 320.706 1518.27 Q323.785 1522.85 323.785 1531.6 Q323.785 1540.33 320.706 1544.94 Q317.651 1549.52 311.841 1549.52 Q306.031 1549.52 302.952 1544.94 Q299.896 1540.33 299.896 1531.6 Q299.896 1522.85 302.952 1518.27 Q306.031 1513.66 311.841 1513.66 Z" fill="#f8f8f2" fill-rule="evenodd" fill-opacity="1" /><path clip-path="url(#clip540)" d="M772.39 1544.91 L788.709 1544.91 L788.709 1548.85 L766.765 1548.85 L766.765 1544.91 Q769.427 1542.16 774.01 1537.53 Q778.616 1532.88 779.797 1531.53 Q782.042 1529.01 782.922 1527.27 Q783.825 1525.51 783.825 1523.82 Q783.825 1521.07 781.88 1519.33 Q779.959 1517.6 776.857 1517.6 Q774.658 1517.6 772.204 1518.36 Q769.774 1519.13 766.996 1520.68 L766.996 1515.95 Q769.82 1514.82 772.274 1514.24 Q774.727 1513.66 776.765 1513.66 Q782.135 1513.66 785.329 1516.35 Q788.524 1519.03 788.524 1523.52 Q788.524 1525.65 787.714 1527.57 Q786.926 1529.47 784.82 1532.07 Q784.241 1532.74 781.139 1535.95 Q778.038 1539.15 772.39 1544.91 Z" fill="#f8f8f2" fill-rule="evenodd" fill-opacity="1" /><path clip-path="url(#clip540)" d="M798.524 1542.97 L803.408 1542.97 L803.408 1548.85 L798.524 1548.85 L798.524 1542.97 Z" fill="#f8f8f2" fill-rule="evenodd" fill-opacity="1" /><path clip-path="url(#clip540)" d="M813.639 1514.29 L831.996 1514.29 L831.996 1518.22 L817.922 1518.22 L817.922 1526.7 Q818.94 1526.35 819.959 1526.19 Q820.977 1526 821.996 1526 Q827.783 1526 831.162 1529.17 Q834.542 1532.34 834.542 1537.76 Q834.542 1543.34 831.07 1546.44 Q827.598 1549.52 821.278 1549.52 Q819.102 1549.52 816.834 1549.15 Q814.588 1548.78 812.181 1548.04 L812.181 1543.34 Q814.264 1544.47 816.487 1545.03 Q818.709 1545.58 821.186 1545.58 Q825.19 1545.58 827.528 1543.48 Q829.866 1541.37 829.866 1537.76 Q829.866 1534.15 827.528 1532.04 Q825.19 1529.94 821.186 1529.94 Q819.311 1529.94 817.436 1530.35 Q815.584 1530.77 813.639 1531.65 L813.639 1514.29 Z" fill="#f8f8f2" fill-rule="evenodd" fill-opacity="1" /><path clip-path="url(#clip540)" d="M1279.25 1514.29 L1297.6 1514.29 L1297.6 1518.22 L1283.53 1518.22 L1283.53 1526.7 Q1284.55 1526.35 1285.57 1526.19 Q1286.58 1526 1287.6 1526 Q1293.39 1526 1296.77 1529.17 Q1300.15 1532.34 1300.15 1537.76 Q1300.15 1543.34 1296.68 1546.44 Q1293.2 1549.52 1286.88 1549.52 Q1284.71 1549.52 1282.44 1549.15 Q1280.2 1548.78 1277.79 1548.04 L1277.79 1543.34 Q1279.87 1544.47 1282.09 1545.03 Q1284.32 1545.58 1286.79 1545.58 Q1290.8 1545.58 1293.13 1543.48 Q1295.47 1541.37 1295.47 1537.76 Q1295.47 1534.15 1293.13 1532.04 Q1290.8 1529.94 1286.79 1529.94 Q1284.92 1529.94 1283.04 1530.35 Q1281.19 1530.77 1279.25 1531.65 L1279.25 1514.29 Z" fill="#f8f8f2" fill-rule="evenodd" fill-opacity="1" /><path clip-path="url(#clip540)" d="M1309.36 1542.97 L1314.25 1542.97 L1314.25 1548.85 L1309.36 1548.85 L1309.36 1542.97 Z" fill="#f8f8f2" fill-rule="evenodd" fill-opacity="1" /><path clip-path="url(#clip540)" d="M1334.43 1517.37 Q1330.82 1517.37 1328.99 1520.93 Q1327.19 1524.47 1327.19 1531.6 Q1327.19 1538.71 1328.99 1542.27 Q1330.82 1545.82 1334.43 1545.82 Q1338.07 1545.82 1339.87 1542.27 Q1341.7 1538.71 1341.7 1531.6 Q1341.7 1524.47 1339.87 1520.93 Q1338.07 1517.37 1334.43 1517.37 M1334.43 1513.66 Q1340.24 1513.66 1343.3 1518.27 Q1346.38 1522.85 1346.38 1531.6 Q1346.38 1540.33 1343.3 1544.94 Q1340.24 1549.52 1334.43 1549.52 Q1328.62 1549.52 1325.54 1544.94 Q1322.49 1540.33 1322.49 1531.6 Q1322.49 1522.85 1325.54 1518.27 Q1328.62 1513.66 1334.43 1513.66 Z" fill="#f8f8f2" fill-rule="evenodd" fill-opacity="1" /><path clip-path="url(#clip540)" d="M1789.83 1514.29 L1812.05 1514.29 L1812.05 1516.28 L1799.51 1548.85 L1794.62 1548.85 L1806.43 1518.22 L1789.83 1518.22 L1789.83 1514.29 Z" fill="#f8f8f2" fill-rule="evenodd" fill-opacity="1" /><path clip-path="url(#clip540)" d="M1821.17 1542.97 L1826.06 1542.97 L1826.06 1548.85 L1821.17 1548.85 L1821.17 1542.97 Z" fill="#f8f8f2" fill-rule="evenodd" fill-opacity="1" /><path clip-path="url(#clip540)" d="M1836.29 1514.29 L1854.64 1514.29 L1854.64 1518.22 L1840.57 1518.22 L1840.57 1526.7 Q1841.59 1526.35 1842.61 1526.19 Q1843.63 1526 1844.64 1526 Q1850.43 1526 1853.81 1529.17 Q1857.19 1532.34 1857.19 1537.76 Q1857.19 1543.34 1853.72 1546.44 Q1850.25 1549.52 1843.93 1549.52 Q1841.75 1549.52 1839.48 1549.15 Q1837.24 1548.78 1834.83 1548.04 L1834.83 1543.34 Q1836.91 1544.47 1839.13 1545.03 Q1841.36 1545.58 1843.83 1545.58 Q1847.84 1545.58 1850.18 1543.48 Q1852.51 1541.37 1852.51 1537.76 Q1852.51 1534.15 1850.18 1532.04 Q1847.84 1529.94 1843.83 1529.94 Q1841.96 1529.94 1840.08 1530.35 Q1838.23 1530.77 1836.29 1531.65 L1836.29 1514.29 Z" fill="#f8f8f2" fill-rule="evenodd" fill-opacity="1" /><path clip-path="url(#clip540)" d="M2287.01 1544.91 L2294.65 1544.91 L2294.65 1518.55 L2286.34 1520.21 L2286.34 1515.95 L2294.6 1514.29 L2299.28 1514.29 L2299.28 1544.91 L2306.92 1544.91 L2306.92 1548.85 L2287.01 1548.85 L2287.01 1544.91 Z" fill="#f8f8f2" fill-rule="evenodd" fill-opacity="1" /><path clip-path="url(#clip540)" d="M2326.36 1517.37 Q2322.75 1517.37 2320.92 1520.93 Q2319.12 1524.47 2319.12 1531.6 Q2319.12 1538.71 2320.92 1542.27 Q2322.75 1545.82 2326.36 1545.82 Q2330 1545.82 2331.8 1542.27 Q2333.63 1538.71 2333.63 1531.6 Q2333.63 1524.47 2331.8 1520.93 Q2330 1517.37 2326.36 1517.37 M2326.36 1513.66 Q2332.17 1513.66 2335.23 1518.27 Q2338.31 1522.85 2338.31 1531.6 Q2338.31 1540.33 2335.23 1544.94 Q2332.17 1549.52 2326.36 1549.52 Q2320.55 1549.52 2317.47 1544.94 Q2314.42 1540.33 2314.42 1531.6 Q2314.42 1522.85 2317.47 1518.27 Q2320.55 1513.66 2326.36 1513.66 Z" fill="#f8f8f2" fill-rule="evenodd" fill-opacity="1" /><path clip-path="url(#clip540)" d="M2346.52 1542.97 L2351.41 1542.97 L2351.41 1548.85 L2346.52 1548.85 L2346.52 1542.97 Z" fill="#f8f8f2" fill-rule="evenodd" fill-opacity="1" /><path clip-path="url(#clip540)" d="M2371.59 1517.37 Q2367.98 1517.37 2366.15 1520.93 Q2364.35 1524.47 2364.35 1531.6 Q2364.35 1538.71 2366.15 1542.27 Q2367.98 1545.82 2371.59 1545.82 Q2375.23 1545.82 2377.03 1542.27 Q2378.86 1538.71 2378.86 1531.6 Q2378.86 1524.47 2377.03 1520.93 Q2375.23 1517.37 2371.59 1517.37 M2371.59 1513.66 Q2377.4 1513.66 2380.46 1518.27 Q2383.54 1522.85 2383.54 1531.6 Q2383.54 1540.33 2380.46 1544.94 Q2377.4 1549.52 2371.59 1549.52 Q2365.78 1549.52 2362.7 1544.94 Q2359.65 1540.33 2359.65 1531.6 Q2359.65 1522.85 2362.7 1518.27 Q2365.78 1513.66 2371.59 1513.66 Z" fill="#f8f8f2" fill-rule="evenodd" fill-opacity="1" /><polyline clip-path="url(#clip542)" style="stroke:#f8f8f2; stroke-linecap:round; stroke-linejoin:round; stroke-width:2; stroke-opacity:0.1; fill:none" points="169.121,1445.72 2352.76,1445.72 "/>
<polyline clip-path="url(#clip542)" style="stroke:#f8f8f2; stroke-linecap:round; stroke-linejoin:round; stroke-width:2; stroke-opacity:0.1; fill:none" points="169.121,1235.21 2352.76,1235.21 "/>
<polyline clip-path="url(#clip542)" style="stroke:#f8f8f2; stroke-linecap:round; stroke-linejoin:round; stroke-width:2; stroke-opacity:0.1; fill:none" points="169.121,1024.71 2352.76,1024.71 "/>
<polyline clip-path="url(#clip542)" style="stroke:#f8f8f2; stroke-linecap:round; stroke-linejoin:round; stroke-width:2; stroke-opacity:0.1; fill:none" points="169.121,814.209 2352.76,814.209 "/>
<polyline clip-path="url(#clip542)" style="stroke:#f8f8f2; stroke-linecap:round; stroke-linejoin:round; stroke-width:2; stroke-opacity:0.1; fill:none" points="169.121,603.707 2352.76,603.707 "/>
<polyline clip-path="url(#clip542)" style="stroke:#f8f8f2; stroke-linecap:round; stroke-linejoin:round; stroke-width:2; stroke-opacity:0.1; fill:none" points="169.121,393.205 2352.76,393.205 "/>
<polyline clip-path="url(#clip542)" style="stroke:#f8f8f2; stroke-linecap:round; stroke-linejoin:round; stroke-width:2; stroke-opacity:0.1; fill:none" points="169.121,182.702 2352.76,182.702 "/>
<polyline clip-path="url(#clip540)" style="stroke:#f8f8f2; stroke-linecap:round; stroke-linejoin:round; stroke-width:4; stroke-opacity:1; fill:none" points="169.121,1486.45 169.121,47.2441 "/>
<polyline clip-path="url(#clip540)" style="stroke:#f8f8f2; stroke-linecap:round; stroke-linejoin:round; stroke-width:4; stroke-opacity:1; fill:none" points="169.121,1445.72 188.019,1445.72 "/>
<polyline clip-path="url(#clip540)" style="stroke:#f8f8f2; stroke-linecap:round; stroke-linejoin:round; stroke-width:4; stroke-opacity:1; fill:none" points="169.121,1235.21 188.019,1235.21 "/>
<polyline clip-path="url(#clip540)" style="stroke:#f8f8f2; stroke-linecap:round; stroke-linejoin:round; stroke-width:4; stroke-opacity:1; fill:none" points="169.121,1024.71 188.019,1024.71 "/>
<polyline clip-path="url(#clip540)" style="stroke:#f8f8f2; stroke-linecap:round; stroke-linejoin:round; stroke-width:4; stroke-opacity:1; fill:none" points="169.121,814.209 188.019,814.209 "/>
<polyline clip-path="url(#clip540)" style="stroke:#f8f8f2; stroke-linecap:round; stroke-linejoin:round; stroke-width:4; stroke-opacity:1; fill:none" points="169.121,603.707 188.019,603.707 "/>
<polyline clip-path="url(#clip540)" style="stroke:#f8f8f2; stroke-linecap:round; stroke-linejoin:round; stroke-width:4; stroke-opacity:1; fill:none" points="169.121,393.205 188.019,393.205 "/>
<polyline clip-path="url(#clip540)" style="stroke:#f8f8f2; stroke-linecap:round; stroke-linejoin:round; stroke-width:4; stroke-opacity:1; fill:none" points="169.121,182.702 188.019,182.702 "/>
<path clip-path="url(#clip540)" d="M121.177 1431.51 Q117.566 1431.51 115.737 1435.08 Q113.932 1438.62 113.932 1445.75 Q113.932 1452.86 115.737 1456.42 Q117.566 1459.96 121.177 1459.96 Q124.811 1459.96 126.617 1456.42 Q128.445 1452.86 128.445 1445.75 Q128.445 1438.62 126.617 1435.08 Q124.811 1431.51 121.177 1431.51 M121.177 1427.81 Q126.987 1427.81 130.043 1432.42 Q133.121 1437 133.121 1445.75 Q133.121 1454.48 130.043 1459.08 Q126.987 1463.67 121.177 1463.67 Q115.367 1463.67 112.288 1459.08 Q109.233 1454.48 109.233 1445.75 Q109.233 1437 112.288 1432.42 Q115.367 1427.81 121.177 1427.81 Z" fill="#f8f8f2" fill-rule="evenodd" fill-opacity="1" /><path clip-path="url(#clip540)" d="M85.0429 1248.56 L101.362 1248.56 L101.362 1252.49 L79.4179 1252.49 L79.4179 1248.56 Q82.0799 1245.8 86.6632 1241.17 Q91.2697 1236.52 92.4502 1235.18 Q94.6956 1232.66 95.5752 1230.92 Q96.478 1229.16 96.478 1227.47 Q96.478 1224.72 94.5336 1222.98 Q92.6123 1221.24 89.5104 1221.24 Q87.3114 1221.24 84.8577 1222.01 Q82.4271 1222.77 79.6494 1224.32 L79.6494 1219.6 Q82.4734 1218.47 84.9271 1217.89 Q87.3808 1217.31 89.4178 1217.31 Q94.7882 1217.31 97.9826 1219.99 Q101.177 1222.68 101.177 1227.17 Q101.177 1229.3 100.367 1231.22 Q99.5798 1233.12 97.4734 1235.71 Q96.8947 1236.38 93.7928 1239.6 Q90.691 1242.79 85.0429 1248.56 Z" fill="#f8f8f2" fill-rule="evenodd" fill-opacity="1" /><path clip-path="url(#clip540)" d="M121.177 1221.01 Q117.566 1221.01 115.737 1224.58 Q113.932 1228.12 113.932 1235.25 Q113.932 1242.35 115.737 1245.92 Q117.566 1249.46 121.177 1249.46 Q124.811 1249.46 126.617 1245.92 Q128.445 1242.35 128.445 1235.25 Q128.445 1228.12 126.617 1224.58 Q124.811 1221.01 121.177 1221.01 M121.177 1217.31 Q126.987 1217.31 130.043 1221.91 Q133.121 1226.5 133.121 1235.25 Q133.121 1243.97 130.043 1248.58 Q126.987 1253.16 121.177 1253.16 Q115.367 1253.16 112.288 1248.58 Q109.233 1243.97 109.233 1235.25 Q109.233 1226.5 112.288 1221.91 Q115.367 1217.31 121.177 1217.31 Z" fill="#f8f8f2" fill-rule="evenodd" fill-opacity="1" /><path clip-path="url(#clip540)" d="M93.8623 1011.51 L82.0568 1029.95 L93.8623 1029.95 L93.8623 1011.51 M92.6354 1007.43 L98.515 1007.43 L98.515 1029.95 L103.446 1029.95 L103.446 1033.84 L98.515 1033.84 L98.515 1041.99 L93.8623 1041.99 L93.8623 1033.84 L78.2605 1033.84 L78.2605 1029.33 L92.6354 1007.43 Z" fill="#f8f8f2" fill-rule="evenodd" fill-opacity="1" /><path clip-path="url(#clip540)" d="M121.177 1010.51 Q117.566 1010.51 115.737 1014.07 Q113.932 1017.62 113.932 1024.75 Q113.932 1031.85 115.737 1035.42 Q117.566 1038.96 121.177 1038.96 Q124.811 1038.96 126.617 1035.42 Q128.445 1031.85 128.445 1024.75 Q128.445 1017.62 126.617 1014.07 Q124.811 1010.51 121.177 1010.51 M121.177 1006.81 Q126.987 1006.81 130.043 1011.41 Q133.121 1016 133.121 1024.75 Q133.121 1033.47 130.043 1038.08 Q126.987 1042.66 121.177 1042.66 Q115.367 1042.66 112.288 1038.08 Q109.233 1033.47 109.233 1024.75 Q109.233 1016 112.288 1011.41 Q115.367 1006.81 121.177 1006.81 Z" fill="#f8f8f2" fill-rule="evenodd" fill-opacity="1" /><path clip-path="url(#clip540)" d="M91.5938 812.346 Q88.4456 812.346 86.5938 814.498 Q84.7651 816.651 84.7651 820.401 Q84.7651 824.128 86.5938 826.304 Q88.4456 828.457 91.5938 828.457 Q94.7419 828.457 96.5706 826.304 Q98.4224 824.128 98.4224 820.401 Q98.4224 816.651 96.5706 814.498 Q94.7419 812.346 91.5938 812.346 M100.876 797.693 L100.876 801.952 Q99.1169 801.119 97.3113 800.679 Q95.5289 800.239 93.7697 800.239 Q89.1401 800.239 86.6864 803.364 Q84.2558 806.489 83.9086 812.809 Q85.2743 810.795 87.3345 809.73 Q89.3947 808.642 91.8715 808.642 Q97.0798 808.642 100.089 811.813 Q103.121 814.961 103.121 820.401 Q103.121 825.725 99.9733 828.943 Q96.8252 832.16 91.5938 832.16 Q85.5984 832.16 82.4271 827.577 Q79.2559 822.971 79.2559 814.244 Q79.2559 806.049 83.1447 801.188 Q87.0336 796.304 93.5845 796.304 Q95.3437 796.304 97.1261 796.651 Q98.9317 796.998 100.876 797.693 Z" fill="#f8f8f2" fill-rule="evenodd" fill-opacity="1" /><path clip-path="url(#clip540)" d="M121.177 800.008 Q117.566 800.008 115.737 803.572 Q113.932 807.114 113.932 814.244 Q113.932 821.35 115.737 824.915 Q117.566 828.457 121.177 828.457 Q124.811 828.457 126.617 824.915 Q128.445 821.35 128.445 814.244 Q128.445 807.114 126.617 803.572 Q124.811 800.008 121.177 800.008 M121.177 796.304 Q126.987 796.304 130.043 800.91 Q133.121 805.494 133.121 814.244 Q133.121 822.971 130.043 827.577 Q126.987 832.16 121.177 832.16 Q115.367 832.16 112.288 827.577 Q109.233 822.971 109.233 814.244 Q109.233 805.494 112.288 800.91 Q115.367 796.304 121.177 796.304 Z" fill="#f8f8f2" fill-rule="evenodd" fill-opacity="1" /><path clip-path="url(#clip540)" d="M91.0151 604.575 Q87.6817 604.575 85.7605 606.357 Q83.8623 608.14 83.8623 611.265 Q83.8623 614.39 85.7605 616.172 Q87.6817 617.954 91.0151 617.954 Q94.3484 617.954 96.2697 616.172 Q98.1909 614.366 98.1909 611.265 Q98.1909 608.14 96.2697 606.357 Q94.3715 604.575 91.0151 604.575 M86.3392 602.584 Q83.3299 601.843 81.6401 599.783 Q79.9735 597.723 79.9735 594.76 Q79.9735 590.617 82.9133 588.209 Q85.8762 585.802 91.0151 585.802 Q96.1771 585.802 99.1169 588.209 Q102.057 590.617 102.057 594.76 Q102.057 597.723 100.367 599.783 Q98.7002 601.843 95.7141 602.584 Q99.0937 603.371 100.969 605.663 Q102.867 607.954 102.867 611.265 Q102.867 616.288 99.7882 618.973 Q96.7326 621.658 91.0151 621.658 Q85.2975 621.658 82.2188 618.973 Q79.1633 616.288 79.1633 611.265 Q79.1633 607.954 81.0614 605.663 Q82.9595 603.371 86.3392 602.584 M84.6262 595.2 Q84.6262 597.885 86.2929 599.39 Q87.9827 600.894 91.0151 600.894 Q94.0243 600.894 95.7141 599.39 Q97.4271 597.885 97.4271 595.2 Q97.4271 592.515 95.7141 591.01 Q94.0243 589.505 91.0151 589.505 Q87.9827 589.505 86.2929 591.01 Q84.6262 592.515 84.6262 595.2 Z" fill="#f8f8f2" fill-rule="evenodd" fill-opacity="1" /><path clip-path="url(#clip540)" d="M121.177 589.505 Q117.566 589.505 115.737 593.07 Q113.932 596.612 113.932 603.741 Q113.932 610.848 115.737 614.413 Q117.566 617.954 121.177 617.954 Q124.811 617.954 126.617 614.413 Q128.445 610.848 128.445 603.741 Q128.445 596.612 126.617 593.07 Q124.811 589.505 121.177 589.505 M121.177 585.802 Q126.987 585.802 130.043 590.408 Q133.121 594.992 133.121 603.741 Q133.121 612.468 130.043 617.075 Q126.987 621.658 121.177 621.658 Q115.367 621.658 112.288 617.075 Q109.233 612.468 109.233 603.741 Q109.233 594.992 112.288 590.408 Q115.367 585.802 121.177 585.802 Z" fill="#f8f8f2" fill-rule="evenodd" fill-opacity="1" /><path clip-path="url(#clip540)" d="M51.6634 406.549 L59.3023 406.549 L59.3023 380.184 L50.9921 381.85 L50.9921 377.591 L59.256 375.925 L63.9319 375.925 L63.9319 406.549 L71.5707 406.549 L71.5707 410.485 L51.6634 410.485 L51.6634 406.549 Z" fill="#f8f8f2" fill-rule="evenodd" fill-opacity="1" /><path clip-path="url(#clip540)" d="M91.0151 379.003 Q87.404 379.003 85.5753 382.568 Q83.7697 386.11 83.7697 393.239 Q83.7697 400.346 85.5753 403.91 Q87.404 407.452 91.0151 407.452 Q94.6493 407.452 96.4548 403.91 Q98.2835 400.346 98.2835 393.239 Q98.2835 386.11 96.4548 382.568 Q94.6493 379.003 91.0151 379.003 M91.0151 375.3 Q96.8252 375.3 99.8808 379.906 Q102.959 384.489 102.959 393.239 Q102.959 401.966 99.8808 406.573 Q96.8252 411.156 91.0151 411.156 Q85.2049 411.156 82.1262 406.573 Q79.0707 401.966 79.0707 393.239 Q79.0707 384.489 82.1262 379.906 Q85.2049 375.3 91.0151 375.3 Z" fill="#f8f8f2" fill-rule="evenodd" fill-opacity="1" /><path clip-path="url(#clip540)" d="M121.177 379.003 Q117.566 379.003 115.737 382.568 Q113.932 386.11 113.932 393.239 Q113.932 400.346 115.737 403.91 Q117.566 407.452 121.177 407.452 Q124.811 407.452 126.617 403.91 Q128.445 400.346 128.445 393.239 Q128.445 386.11 126.617 382.568 Q124.811 379.003 121.177 379.003 M121.177 375.3 Q126.987 375.3 130.043 379.906 Q133.121 384.489 133.121 393.239 Q133.121 401.966 130.043 406.573 Q126.987 411.156 121.177 411.156 Q115.367 411.156 112.288 406.573 Q109.233 401.966 109.233 393.239 Q109.233 384.489 112.288 379.906 Q115.367 375.3 121.177 375.3 Z" fill="#f8f8f2" fill-rule="evenodd" fill-opacity="1" /><path clip-path="url(#clip540)" d="M51.6634 196.047 L59.3023 196.047 L59.3023 169.682 L50.9921 171.348 L50.9921 167.089 L59.256 165.422 L63.9319 165.422 L63.9319 196.047 L71.5707 196.047 L71.5707 199.982 L51.6634 199.982 L51.6634 196.047 Z" fill="#f8f8f2" fill-rule="evenodd" fill-opacity="1" /><path clip-path="url(#clip540)" d="M85.0429 196.047 L101.362 196.047 L101.362 199.982 L79.4179 199.982 L79.4179 196.047 Q82.0799 193.293 86.6632 188.663 Q91.2697 184.01 92.4502 182.668 Q94.6956 180.144 95.5752 178.408 Q96.478 176.649 96.478 174.959 Q96.478 172.205 94.5336 170.469 Q92.6123 168.732 89.5104 168.732 Q87.3114 168.732 84.8577 169.496 Q82.4271 170.26 79.6494 171.811 L79.6494 167.089 Q82.4734 165.955 84.9271 165.376 Q87.3808 164.797 89.4178 164.797 Q94.7882 164.797 97.9826 167.482 Q101.177 170.168 101.177 174.658 Q101.177 176.788 100.367 178.709 Q99.5798 180.607 97.4734 183.2 Q96.8947 183.871 93.7928 187.089 Q90.691 190.283 85.0429 196.047 Z" fill="#f8f8f2" fill-rule="evenodd" fill-opacity="1" /><path clip-path="url(#clip540)" d="M121.177 168.501 Q117.566 168.501 115.737 172.066 Q113.932 175.607 113.932 182.737 Q113.932 189.843 115.737 193.408 Q117.566 196.95 121.177 196.95 Q124.811 196.95 126.617 193.408 Q128.445 189.843 128.445 182.737 Q128.445 175.607 126.617 172.066 Q124.811 168.501 121.177 168.501 M121.177 164.797 Q126.987 164.797 130.043 169.404 Q133.121 173.987 133.121 182.737 Q133.121 191.464 130.043 196.07 Q126.987 200.654 121.177 200.654 Q115.367 200.654 112.288 196.07 Q109.233 191.464 109.233 182.737 Q109.233 173.987 112.288 169.404 Q115.367 164.797 121.177 164.797 Z" fill="#f8f8f2" fill-rule="evenodd" fill-opacity="1" /><path clip-path="url(#clip542)" d="M289.225 1435.19 L289.225 1445.72 L391.511 1445.72 L391.511 1435.19 L289.225 1435.19 L289.225 1435.19  Z" fill="#8be9fd" fill-rule="evenodd" fill-opacity="1"/>
<polyline clip-path="url(#clip542)" style="stroke:#f8f8f2; stroke-linecap:round; stroke-linejoin:round; stroke-width:4; stroke-opacity:1; fill:none" points="289.225,1435.19 289.225,1445.72 391.511,1445.72 391.511,1435.19 289.225,1435.19 "/>
<path clip-path="url(#clip542)" d="M391.511 1414.14 L391.511 1445.72 L493.796 1445.72 L493.796 1414.14 L391.511 1414.14 L391.511 1414.14  Z" fill="#8be9fd" fill-rule="evenodd" fill-opacity="1"/>
<polyline clip-path="url(#clip542)" style="stroke:#f8f8f2; stroke-linecap:round; stroke-linejoin:round; stroke-width:4; stroke-opacity:1; fill:none" points="391.511,1414.14 391.511,1445.72 493.796,1445.72 493.796,1414.14 391.511,1414.14 "/>
<path clip-path="url(#clip542)" d="M493.796 1350.99 L493.796 1445.72 L596.082 1445.72 L596.082 1350.99 L493.796 1350.99 L493.796 1350.99  Z" fill="#8be9fd" fill-rule="evenodd" fill-opacity="1"/>
<polyline clip-path="url(#clip542)" style="stroke:#f8f8f2; stroke-linecap:round; stroke-linejoin:round; stroke-width:4; stroke-opacity:1; fill:none" points="493.796,1350.99 493.796,1445.72 596.082,1445.72 596.082,1350.99 493.796,1350.99 "/>
<path clip-path="url(#clip542)" d="M596.082 1350.99 L596.082 1445.72 L698.368 1445.72 L698.368 1350.99 L596.082 1350.99 L596.082 1350.99  Z" fill="#8be9fd" fill-rule="evenodd" fill-opacity="1"/>
<polyline clip-path="url(#clip542)" style="stroke:#f8f8f2; stroke-linecap:round; stroke-linejoin:round; stroke-width:4; stroke-opacity:1; fill:none" points="596.082,1350.99 596.082,1445.72 698.368,1445.72 698.368,1350.99 596.082,1350.99 "/>
<path clip-path="url(#clip542)" d="M698.368 1214.16 L698.368 1445.72 L800.653 1445.72 L800.653 1214.16 L698.368 1214.16 L698.368 1214.16  Z" fill="#8be9fd" fill-rule="evenodd" fill-opacity="1"/>
<polyline clip-path="url(#clip542)" style="stroke:#f8f8f2; stroke-linecap:round; stroke-linejoin:round; stroke-width:4; stroke-opacity:1; fill:none" points="698.368,1214.16 698.368,1445.72 800.653,1445.72 800.653,1214.16 698.368,1214.16 "/>
<path clip-path="url(#clip542)" d="M800.653 1014.19 L800.653 1445.72 L902.939 1445.72 L902.939 1014.19 L800.653 1014.19 L800.653 1014.19  Z" fill="#8be9fd" fill-rule="evenodd" fill-opacity="1"/>
<polyline clip-path="url(#clip542)" style="stroke:#f8f8f2; stroke-linecap:round; stroke-linejoin:round; stroke-width:4; stroke-opacity:1; fill:none" points="800.653,1014.19 800.653,1445.72 902.939,1445.72 902.939,1014.19 800.653,1014.19 "/>
<path clip-path="url(#clip542)" d="M902.939 803.684 L902.939 1445.72 L1005.22 1445.72 L1005.22 803.684 L902.939 803.684 L902.939 803.684  Z" fill="#8be9fd" fill-rule="evenodd" fill-opacity="1"/>
<polyline clip-path="url(#clip542)" style="stroke:#f8f8f2; stroke-linecap:round; stroke-linejoin:round; stroke-width:4; stroke-opacity:1; fill:none" points="902.939,803.684 902.939,1445.72 1005.22,1445.72 1005.22,803.684 902.939,803.684 "/>
<path clip-path="url(#clip542)" d="M1005.22 466.88 L1005.22 1445.72 L1107.51 1445.72 L1107.51 466.88 L1005.22 466.88 L1005.22 466.88  Z" fill="#8be9fd" fill-rule="evenodd" fill-opacity="1"/>
<polyline clip-path="url(#clip542)" style="stroke:#f8f8f2; stroke-linecap:round; stroke-linejoin:round; stroke-width:4; stroke-opacity:1; fill:none" points="1005.22,466.88 1005.22,1445.72 1107.51,1445.72 1107.51,466.88 1005.22,466.88 "/>
<path clip-path="url(#clip542)" d="M1107.51 277.428 L1107.51 1445.72 L1209.8 1445.72 L1209.8 277.428 L1107.51 277.428 L1107.51 277.428  Z" fill="#8be9fd" fill-rule="evenodd" fill-opacity="1"/>
<polyline clip-path="url(#clip542)" style="stroke:#f8f8f2; stroke-linecap:round; stroke-linejoin:round; stroke-width:4; stroke-opacity:1; fill:none" points="1107.51,277.428 1107.51,1445.72 1209.8,1445.72 1209.8,277.428 1107.51,277.428 "/>
<path clip-path="url(#clip542)" d="M1209.8 87.9763 L1209.8 1445.72 L1312.08 1445.72 L1312.08 87.9763 L1209.8 87.9763 L1209.8 87.9763  Z" fill="#8be9fd" fill-rule="evenodd" fill-opacity="1"/>
<polyline clip-path="url(#clip542)" style="stroke:#f8f8f2; stroke-linecap:round; stroke-linejoin:round; stroke-width:4; stroke-opacity:1; fill:none" points="1209.8,87.9763 1209.8,1445.72 1312.08,1445.72 1312.08,87.9763 1209.8,87.9763 "/>
<path clip-path="url(#clip542)" d="M1312.08 130.077 L1312.08 1445.72 L1414.37 1445.72 L1414.37 130.077 L1312.08 130.077 L1312.08 130.077  Z" fill="#8be9fd" fill-rule="evenodd" fill-opacity="1"/>
<polyline clip-path="url(#clip542)" style="stroke:#f8f8f2; stroke-linecap:round; stroke-linejoin:round; stroke-width:4; stroke-opacity:1; fill:none" points="1312.08,130.077 1312.08,1445.72 1414.37,1445.72 1414.37,130.077 1312.08,130.077 "/>
<path clip-path="url(#clip542)" d="M1414.37 266.903 L1414.37 1445.72 L1516.65 1445.72 L1516.65 266.903 L1414.37 266.903 L1414.37 266.903  Z" fill="#8be9fd" fill-rule="evenodd" fill-opacity="1"/>
<polyline clip-path="url(#clip542)" style="stroke:#f8f8f2; stroke-linecap:round; stroke-linejoin:round; stroke-width:4; stroke-opacity:1; fill:none" points="1414.37,266.903 1414.37,1445.72 1516.65,1445.72 1516.65,266.903 1414.37,266.903 "/>
<path clip-path="url(#clip542)" d="M1516.65 330.054 L1516.65 1445.72 L1618.94 1445.72 L1618.94 330.054 L1516.65 330.054 L1516.65 330.054  Z" fill="#8be9fd" fill-rule="evenodd" fill-opacity="1"/>
<polyline clip-path="url(#clip542)" style="stroke:#f8f8f2; stroke-linecap:round; stroke-linejoin:round; stroke-width:4; stroke-opacity:1; fill:none" points="1516.65,330.054 1516.65,1445.72 1618.94,1445.72 1618.94,330.054 1516.65,330.054 "/>
<path clip-path="url(#clip542)" d="M1618.94 508.981 L1618.94 1445.72 L1721.22 1445.72 L1721.22 508.981 L1618.94 508.981 L1618.94 508.981  Z" fill="#8be9fd" fill-rule="evenodd" fill-opacity="1"/>
<polyline clip-path="url(#clip542)" style="stroke:#f8f8f2; stroke-linecap:round; stroke-linejoin:round; stroke-width:4; stroke-opacity:1; fill:none" points="1618.94,508.981 1618.94,1445.72 1721.22,1445.72 1721.22,508.981 1618.94,508.981 "/>
<path clip-path="url(#clip542)" d="M1721.22 1014.19 L1721.22 1445.72 L1823.51 1445.72 L1823.51 1014.19 L1721.22 1014.19 L1721.22 1014.19  Z" fill="#8be9fd" fill-rule="evenodd" fill-opacity="1"/>
<polyline clip-path="url(#clip542)" style="stroke:#f8f8f2; stroke-linecap:round; stroke-linejoin:round; stroke-width:4; stroke-opacity:1; fill:none" points="1721.22,1014.19 1721.22,1445.72 1823.51,1445.72 1823.51,1014.19 1721.22,1014.19 "/>
<path clip-path="url(#clip542)" d="M1823.51 1161.54 L1823.51 1445.72 L1925.8 1445.72 L1925.8 1161.54 L1823.51 1161.54 L1823.51 1161.54  Z" fill="#8be9fd" fill-rule="evenodd" fill-opacity="1"/>
<polyline clip-path="url(#clip542)" style="stroke:#f8f8f2; stroke-linecap:round; stroke-linejoin:round; stroke-width:4; stroke-opacity:1; fill:none" points="1823.51,1161.54 1823.51,1445.72 1925.8,1445.72 1925.8,1161.54 1823.51,1161.54 "/>
<path clip-path="url(#clip542)" d="M1925.8 1340.46 L1925.8 1445.72 L2028.08 1445.72 L2028.08 1340.46 L1925.8 1340.46 L1925.8 1340.46  Z" fill="#8be9fd" fill-rule="evenodd" fill-opacity="1"/>
<polyline clip-path="url(#clip542)" style="stroke:#f8f8f2; stroke-linecap:round; stroke-linejoin:round; stroke-width:4; stroke-opacity:1; fill:none" points="1925.8,1340.46 1925.8,1445.72 2028.08,1445.72 2028.08,1340.46 1925.8,1340.46 "/>
<path clip-path="url(#clip542)" d="M2028.08 1372.04 L2028.08 1445.72 L2130.37 1445.72 L2130.37 1372.04 L2028.08 1372.04 L2028.08 1372.04  Z" fill="#8be9fd" fill-rule="evenodd" fill-opacity="1"/>
<polyline clip-path="url(#clip542)" style="stroke:#f8f8f2; stroke-linecap:round; stroke-linejoin:round; stroke-width:4; stroke-opacity:1; fill:none" points="2028.08,1372.04 2028.08,1445.72 2130.37,1445.72 2130.37,1372.04 2028.08,1372.04 "/>
<path clip-path="url(#clip542)" d="M2130.37 1403.62 L2130.37 1445.72 L2232.65 1445.72 L2232.65 1403.62 L2130.37 1403.62 L2130.37 1403.62  Z" fill="#8be9fd" fill-rule="evenodd" fill-opacity="1"/>
<polyline clip-path="url(#clip542)" style="stroke:#f8f8f2; stroke-linecap:round; stroke-linejoin:round; stroke-width:4; stroke-opacity:1; fill:none" points="2130.37,1403.62 2130.37,1445.72 2232.65,1445.72 2232.65,1403.62 2130.37,1403.62 "/>
<circle clip-path="url(#clip542)" style="fill:#8be9fd; stroke:none; fill-opacity:0" cx="340.368" cy="1435.19" r="2"/>
<circle clip-path="url(#clip542)" style="fill:#8be9fd; stroke:none; fill-opacity:0" cx="442.654" cy="1414.14" r="2"/>
<circle clip-path="url(#clip542)" style="fill:#8be9fd; stroke:none; fill-opacity:0" cx="544.939" cy="1350.99" r="2"/>
<circle clip-path="url(#clip542)" style="fill:#8be9fd; stroke:none; fill-opacity:0" cx="647.225" cy="1350.99" r="2"/>
<circle clip-path="url(#clip542)" style="fill:#8be9fd; stroke:none; fill-opacity:0" cx="749.51" cy="1214.16" r="2"/>
<circle clip-path="url(#clip542)" style="fill:#8be9fd; stroke:none; fill-opacity:0" cx="851.796" cy="1014.19" r="2"/>
<circle clip-path="url(#clip542)" style="fill:#8be9fd; stroke:none; fill-opacity:0" cx="954.082" cy="803.684" r="2"/>
<circle clip-path="url(#clip542)" style="fill:#8be9fd; stroke:none; fill-opacity:0" cx="1056.37" cy="466.88" r="2"/>
<circle clip-path="url(#clip542)" style="fill:#8be9fd; stroke:none; fill-opacity:0" cx="1158.65" cy="277.428" r="2"/>
<circle clip-path="url(#clip542)" style="fill:#8be9fd; stroke:none; fill-opacity:0" cx="1260.94" cy="87.9763" r="2"/>
<circle clip-path="url(#clip542)" style="fill:#8be9fd; stroke:none; fill-opacity:0" cx="1363.22" cy="130.077" r="2"/>
<circle clip-path="url(#clip542)" style="fill:#8be9fd; stroke:none; fill-opacity:0" cx="1465.51" cy="266.903" r="2"/>
<circle clip-path="url(#clip542)" style="fill:#8be9fd; stroke:none; fill-opacity:0" cx="1567.8" cy="330.054" r="2"/>
<circle clip-path="url(#clip542)" style="fill:#8be9fd; stroke:none; fill-opacity:0" cx="1670.08" cy="508.981" r="2"/>
<circle clip-path="url(#clip542)" style="fill:#8be9fd; stroke:none; fill-opacity:0" cx="1772.37" cy="1014.19" r="2"/>
<circle clip-path="url(#clip542)" style="fill:#8be9fd; stroke:none; fill-opacity:0" cx="1874.65" cy="1161.54" r="2"/>
<circle clip-path="url(#clip542)" style="fill:#8be9fd; stroke:none; fill-opacity:0" cx="1976.94" cy="1340.46" r="2"/>
<circle clip-path="url(#clip542)" style="fill:#8be9fd; stroke:none; fill-opacity:0" cx="2079.22" cy="1372.04" r="2"/>
<circle clip-path="url(#clip542)" style="fill:#8be9fd; stroke:none; fill-opacity:0" cx="2181.51" cy="1403.62" r="2"/>
<path clip-path="url(#clip540)" d="M2009.17 198.898 L2279.97 198.898 L2279.97 95.2176 L2009.17 95.2176  Z" fill="#282a36" fill-rule="evenodd" fill-opacity="1"/>
<polyline clip-path="url(#clip540)" style="stroke:#f8f8f2; stroke-linecap:round; stroke-linejoin:round; stroke-width:4; stroke-opacity:1; fill:none" points="2009.17,198.898 2279.97,198.898 2279.97,95.2176 2009.17,95.2176 2009.17,198.898 "/>
<path clip-path="url(#clip540)" d="M2033.44 167.794 L2179.01 167.794 L2179.01 126.322 L2033.44 126.322 L2033.44 167.794  Z" fill="#8be9fd" fill-rule="evenodd" fill-opacity="1"/>
<polyline clip-path="url(#clip540)" style="stroke:#f8f8f2; stroke-linecap:round; stroke-linejoin:round; stroke-width:4; stroke-opacity:1; fill:none" points="2033.44,167.794 2179.01,167.794 2179.01,126.322 2033.44,126.322 2033.44,167.794 "/>
<path clip-path="url(#clip540)" d="M2217.12 166.745 Q2215.31 171.375 2213.6 172.787 Q2211.89 174.199 2209.02 174.199 L2205.61 174.199 L2205.61 170.634 L2208.11 170.634 Q2209.87 170.634 2210.84 169.8 Q2211.82 168.967 2213 165.865 L2213.76 163.921 L2203.28 138.412 L2207.79 138.412 L2215.89 158.689 L2223.99 138.412 L2228.51 138.412 L2217.12 166.745 Z" fill="#f8f8f2" fill-rule="evenodd" fill-opacity="1" /><path clip-path="url(#clip540)" d="M2235.8 160.402 L2243.44 160.402 L2243.44 134.037 L2235.13 135.703 L2235.13 131.444 L2243.39 129.778 L2248.07 129.778 L2248.07 160.402 L2255.71 160.402 L2255.71 164.338 L2235.8 164.338 L2235.8 160.402 Z" fill="#f8f8f2" fill-rule="evenodd" fill-opacity="1" /></svg>
