<?xml version="1.0" encoding="utf-8"?>
<svg xmlns="http://www.w3.org/2000/svg" xmlns:xlink="http://www.w3.org/1999/xlink" width="600" height="400" viewBox="0 0 2400 1600">
<defs>
  <clipPath id="clip580">
    <rect x="0" y="0" width="2400" height="1600"/>
  </clipPath>
</defs>
<path clip-path="url(#clip580)" d="M0 1600 L2400 1600 L2400 0 L0 0  Z" fill="#282a36" fill-rule="evenodd" fill-opacity="1"/>
<defs>
  <clipPath id="clip581">
    <rect x="480" y="0" width="1681" height="1600"/>
  </clipPath>
</defs>
<path clip-path="url(#clip580)" d="M169.121 1486.45 L2352.76 1486.45 L2352.76 47.2441 L169.121 47.2441  Z" fill="#30343b" fill-rule="evenodd" fill-opacity="1"/>
<defs>
  <clipPath id="clip582">
    <rect x="169" y="47" width="2185" height="1440"/>
  </clipPath>
</defs>
<polyline clip-path="url(#clip582)" style="stroke:#f8f8f2; stroke-linecap:round; stroke-linejoin:round; stroke-width:2; stroke-opacity:0.1; fill:none" points="186.939,1486.45 186.939,47.2441 "/>
<polyline clip-path="url(#clip582)" style="stroke:#f8f8f2; stroke-linecap:round; stroke-linejoin:round; stroke-width:2; stroke-opacity:0.1; fill:none" points="698.368,1486.45 698.368,47.2441 "/>
<polyline clip-path="url(#clip582)" style="stroke:#f8f8f2; stroke-linecap:round; stroke-linejoin:round; stroke-width:2; stroke-opacity:0.1; fill:none" points="1209.8,1486.45 1209.8,47.2441 "/>
<polyline clip-path="url(#clip582)" style="stroke:#f8f8f2; stroke-linecap:round; stroke-linejoin:round; stroke-width:2; stroke-opacity:0.1; fill:none" points="1721.22,1486.45 1721.22,47.2441 "/>
<polyline clip-path="url(#clip582)" style="stroke:#f8f8f2; stroke-linecap:round; stroke-linejoin:round; stroke-width:2; stroke-opacity:0.1; fill:none" points="2232.65,1486.45 2232.65,47.2441 "/>
<polyline clip-path="url(#clip580)" style="stroke:#f8f8f2; stroke-linecap:round; stroke-linejoin:round; stroke-width:4; stroke-opacity:1; fill:none" points="169.121,1486.45 2352.76,1486.45 "/>
<polyline clip-path="url(#clip580)" style="stroke:#f8f8f2; stroke-linecap:round; stroke-linejoin:round; stroke-width:4; stroke-opacity:1; fill:none" points="186.939,1486.45 186.939,1467.55 "/>
<polyline clip-path="url(#clip580)" style="stroke:#f8f8f2; stroke-linecap:round; stroke-linejoin:round; stroke-width:4; stroke-opacity:1; fill:none" points="698.368,1486.45 698.368,1467.55 "/>
<polyline clip-path="url(#clip580)" style="stroke:#f8f8f2; stroke-linecap:round; stroke-linejoin:round; stroke-width:4; stroke-opacity:1; fill:none" points="1209.8,1486.45 1209.8,1467.55 "/>
<polyline clip-path="url(#clip580)" style="stroke:#f8f8f2; stroke-linecap:round; stroke-linejoin:round; stroke-width:4; stroke-opacity:1; fill:none" points="1721.22,1486.45 1721.22,1467.55 "/>
<polyline clip-path="url(#clip580)" style="stroke:#f8f8f2; stroke-linecap:round; stroke-linejoin:round; stroke-width:4; stroke-opacity:1; fill:none" points="2232.65,1486.45 2232.65,1467.55 "/>
<path clip-path="url(#clip580)" d="M164.324 1517.37 Q160.713 1517.37 158.884 1520.93 Q157.079 1524.47 157.079 1531.6 Q157.079 1538.71 158.884 1542.27 Q160.713 1545.82 164.324 1545.82 Q167.958 1545.82 169.764 1542.27 Q171.592 1538.71 171.592 1531.6 Q171.592 1524.47 169.764 1520.93 Q167.958 1517.37 164.324 1517.37 M164.324 1513.66 Q170.134 1513.66 173.19 1518.27 Q176.268 1522.85 176.268 1531.6 Q176.268 1540.33 173.19 1544.94 Q170.134 1549.52 164.324 1549.52 Q158.514 1549.52 155.435 1544.94 Q152.379 1540.33 152.379 1531.6 Q152.379 1522.85 155.435 1518.27 Q158.514 1513.66 164.324 1513.66 Z" fill="#f8f8f2" fill-rule="evenodd" fill-opacity="1" /><path clip-path="url(#clip580)" d="M184.486 1542.97 L189.37 1542.97 L189.37 1548.85 L184.486 1548.85 L184.486 1542.97 Z" fill="#f8f8f2" fill-rule="evenodd" fill-opacity="1" /><path clip-path="url(#clip580)" d="M209.555 1517.37 Q205.944 1517.37 204.115 1520.93 Q202.31 1524.47 202.31 1531.6 Q202.31 1538.71 204.115 1542.27 Q205.944 1545.82 209.555 1545.82 Q213.189 1545.82 214.995 1542.27 Q216.824 1538.71 216.824 1531.6 Q216.824 1524.47 214.995 1520.93 Q213.189 1517.37 209.555 1517.37 M209.555 1513.66 Q215.365 1513.66 218.421 1518.27 Q221.499 1522.85 221.499 1531.6 Q221.499 1540.33 218.421 1544.94 Q215.365 1549.52 209.555 1549.52 Q203.745 1549.52 200.666 1544.94 Q197.611 1540.33 197.611 1531.6 Q197.611 1522.85 200.666 1518.27 Q203.745 1513.66 209.555 1513.66 Z" fill="#f8f8f2" fill-rule="evenodd" fill-opacity="1" /><path clip-path="url(#clip580)" d="M670.104 1544.91 L686.423 1544.91 L686.423 1548.85 L664.479 1548.85 L664.479 1544.91 Q667.141 1542.16 671.724 1537.53 Q676.331 1532.88 677.511 1531.53 Q679.757 1529.01 680.636 1527.27 Q681.539 1525.51 681.539 1523.82 Q681.539 1521.07 679.595 1519.33 Q677.673 1517.6 674.571 1517.6 Q672.372 1517.6 669.919 1518.36 Q667.488 1519.13 664.71 1520.68 L664.71 1515.95 Q667.534 1514.82 669.988 1514.24 Q672.442 1513.66 674.479 1513.66 Q679.849 1513.66 683.044 1516.35 Q686.238 1519.03 686.238 1523.52 Q686.238 1525.65 685.428 1527.57 Q684.641 1529.47 682.534 1532.07 Q681.956 1532.74 678.854 1535.95 Q675.752 1539.15 670.104 1544.91 Z" fill="#f8f8f2" fill-rule="evenodd" fill-opacity="1" /><path clip-path="url(#clip580)" d="M696.238 1542.97 L701.122 1542.97 L701.122 1548.85 L696.238 1548.85 L696.238 1542.97 Z" fill="#f8f8f2" fill-rule="evenodd" fill-opacity="1" /><path clip-path="url(#clip580)" d="M711.354 1514.29 L729.71 1514.29 L729.71 1518.22 L715.636 1518.22 L715.636 1526.7 Q716.655 1526.35 717.673 1526.19 Q718.692 1526 719.71 1526 Q725.497 1526 728.877 1529.17 Q732.256 1532.34 732.256 1537.76 Q732.256 1543.34 728.784 1546.44 Q725.312 1549.52 718.993 1549.52 Q716.817 1549.52 714.548 1549.15 Q712.303 1548.78 709.895 1548.04 L709.895 1543.34 Q711.979 1544.47 714.201 1545.03 Q716.423 1545.58 718.9 1545.58 Q722.905 1545.58 725.242 1543.48 Q727.58 1541.37 727.58 1537.76 Q727.58 1534.15 725.242 1532.04 Q722.905 1529.94 718.9 1529.94 Q717.025 1529.94 715.15 1530.35 Q713.298 1530.77 711.354 1531.65 L711.354 1514.29 Z" fill="#f8f8f2" fill-rule="evenodd" fill-opacity="1" /><path clip-path="url(#clip580)" d="M1176.96 1514.29 L1195.32 1514.29 L1195.32 1518.22 L1181.24 1518.22 L1181.24 1526.7 Q1182.26 1526.35 1183.28 1526.19 Q1184.3 1526 1185.32 1526 Q1191.1 1526 1194.48 1529.17 Q1197.86 1532.34 1197.86 1537.76 Q1197.86 1543.34 1194.39 1546.44 Q1190.92 1549.52 1184.6 1549.52 Q1182.42 1549.52 1180.15 1549.15 Q1177.91 1548.78 1175.5 1548.04 L1175.5 1543.34 Q1177.59 1544.47 1179.81 1545.03 Q1182.03 1545.58 1184.51 1545.58 Q1188.51 1545.58 1190.85 1543.48 Q1193.19 1541.37 1193.19 1537.76 Q1193.19 1534.15 1190.85 1532.04 Q1188.51 1529.94 1184.51 1529.94 Q1182.63 1529.94 1180.76 1530.35 Q1178.9 1530.77 1176.96 1531.65 L1176.96 1514.29 Z" fill="#f8f8f2" fill-rule="evenodd" fill-opacity="1" /><path clip-path="url(#clip580)" d="M1207.08 1542.97 L1211.96 1542.97 L1211.96 1548.85 L1207.08 1548.85 L1207.08 1542.97 Z" fill="#f8f8f2" fill-rule="evenodd" fill-opacity="1" /><path clip-path="url(#clip580)" d="M1232.15 1517.37 Q1228.53 1517.37 1226.71 1520.93 Q1224.9 1524.47 1224.9 1531.6 Q1224.9 1538.71 1226.71 1542.27 Q1228.53 1545.82 1232.15 1545.82 Q1235.78 1545.82 1237.58 1542.27 Q1239.41 1538.71 1239.41 1531.6 Q1239.41 1524.47 1237.58 1520.93 Q1235.78 1517.37 1232.15 1517.37 M1232.15 1513.66 Q1237.96 1513.66 1241.01 1518.27 Q1244.09 1522.85 1244.09 1531.6 Q1244.09 1540.33 1241.01 1544.94 Q1237.96 1549.52 1232.15 1549.52 Q1226.34 1549.52 1223.26 1544.94 Q1220.2 1540.33 1220.2 1531.6 Q1220.2 1522.85 1223.26 1518.27 Q1226.34 1513.66 1232.15 1513.66 Z" fill="#f8f8f2" fill-rule="evenodd" fill-opacity="1" /><path clip-path="url(#clip580)" d="M1687.54 1514.29 L1709.77 1514.29 L1709.77 1516.28 L1697.22 1548.85 L1692.34 1548.85 L1704.14 1518.22 L1687.54 1518.22 L1687.54 1514.29 Z" fill="#f8f8f2" fill-rule="evenodd" fill-opacity="1" /><path clip-path="url(#clip580)" d="M1718.89 1542.97 L1723.77 1542.97 L1723.77 1548.85 L1718.89 1548.85 L1718.89 1542.97 Z" fill="#f8f8f2" fill-rule="evenodd" fill-opacity="1" /><path clip-path="url(#clip580)" d="M1734 1514.29 L1752.36 1514.29 L1752.36 1518.22 L1738.28 1518.22 L1738.28 1526.7 Q1739.3 1526.35 1740.32 1526.19 Q1741.34 1526 1742.36 1526 Q1748.15 1526 1751.52 1529.17 Q1754.9 1532.34 1754.9 1537.76 Q1754.9 1543.34 1751.43 1546.44 Q1747.96 1549.52 1741.64 1549.52 Q1739.46 1549.52 1737.2 1549.15 Q1734.95 1548.78 1732.54 1548.04 L1732.54 1543.34 Q1734.63 1544.47 1736.85 1545.03 Q1739.07 1545.58 1741.55 1545.58 Q1745.55 1545.58 1747.89 1543.48 Q1750.23 1541.37 1750.23 1537.76 Q1750.23 1534.15 1747.89 1532.04 Q1745.55 1529.94 1741.55 1529.94 Q1739.67 1529.94 1737.8 1530.35 Q1735.95 1530.77 1734 1531.65 L1734 1514.29 Z" fill="#f8f8f2" fill-rule="evenodd" fill-opacity="1" /><path clip-path="url(#clip580)" d="M2184.72 1544.91 L2192.36 1544.91 L2192.36 1518.55 L2184.05 1520.21 L2184.05 1515.95 L2192.32 1514.29 L2196.99 1514.29 L2196.99 1544.91 L2204.63 1544.91 L2204.63 1548.85 L2184.72 1548.85 L2184.72 1544.91 Z" fill="#f8f8f2" fill-rule="evenodd" fill-opacity="1" /><path clip-path="url(#clip580)" d="M2224.08 1517.37 Q2220.46 1517.37 2218.64 1520.93 Q2216.83 1524.47 2216.83 1531.6 Q2216.83 1538.71 2218.64 1542.27 Q2220.46 1545.82 2224.08 1545.82 Q2227.71 1545.82 2229.52 1542.27 Q2231.34 1538.71 2231.34 1531.6 Q2231.34 1524.47 2229.52 1520.93 Q2227.71 1517.37 2224.08 1517.37 M2224.08 1513.66 Q2229.89 1513.66 2232.94 1518.27 Q2236.02 1522.85 2236.02 1531.6 Q2236.02 1540.33 2232.94 1544.94 Q2229.89 1549.52 2224.08 1549.52 Q2218.27 1549.52 2215.19 1544.94 Q2212.13 1540.33 2212.13 1531.6 Q2212.13 1522.85 2215.19 1518.27 Q2218.27 1513.66 2224.08 1513.66 Z" fill="#f8f8f2" fill-rule="evenodd" fill-opacity="1" /><path clip-path="url(#clip580)" d="M2244.24 1542.97 L2249.12 1542.97 L2249.12 1548.85 L2244.24 1548.85 L2244.24 1542.97 Z" fill="#f8f8f2" fill-rule="evenodd" fill-opacity="1" /><path clip-path="url(#clip580)" d="M2269.31 1517.37 Q2265.7 1517.37 2263.87 1520.93 Q2262.06 1524.47 2262.06 1531.6 Q2262.06 1538.71 2263.87 1542.27 Q2265.7 1545.82 2269.31 1545.82 Q2272.94 1545.82 2274.75 1542.27 Q2276.58 1538.71 2276.58 1531.6 Q2276.58 1524.47 2274.75 1520.93 Q2272.94 1517.37 2269.31 1517.37 M2269.31 1513.66 Q2275.12 1513.66 2278.17 1518.27 Q2281.25 1522.85 2281.25 1531.6 Q2281.25 1540.33 2278.17 1544.94 Q2275.12 1549.52 2269.31 1549.52 Q2263.5 1549.52 2260.42 1544.94 Q2257.36 1540.33 2257.36 1531.6 Q2257.36 1522.85 2260.42 1518.27 Q2263.5 1513.66 2269.31 1513.66 Z" fill="#f8f8f2" fill-rule="evenodd" fill-opacity="1" /><polyline clip-path="url(#clip582)" style="stroke:#f8f8f2; stroke-linecap:round; stroke-linejoin:round; stroke-width:2; stroke-opacity:0.1; fill:none" points="169.121,1445.72 2352.76,1445.72 "/>
<polyline clip-path="url(#clip582)" style="stroke:#f8f8f2; stroke-linecap:round; stroke-linejoin:round; stroke-width:2; stroke-opacity:0.1; fill:none" points="169.121,1231.9 2352.76,1231.9 "/>
<polyline clip-path="url(#clip582)" style="stroke:#f8f8f2; stroke-linecap:round; stroke-linejoin:round; stroke-width:2; stroke-opacity:0.1; fill:none" points="169.121,1018.08 2352.76,1018.08 "/>
<polyline clip-path="url(#clip582)" style="stroke:#f8f8f2; stroke-linecap:round; stroke-linejoin:round; stroke-width:2; stroke-opacity:0.1; fill:none" points="169.121,804.264 2352.76,804.264 "/>
<polyline clip-path="url(#clip582)" style="stroke:#f8f8f2; stroke-linecap:round; stroke-linejoin:round; stroke-width:2; stroke-opacity:0.1; fill:none" points="169.121,590.447 2352.76,590.447 "/>
<polyline clip-path="url(#clip582)" style="stroke:#f8f8f2; stroke-linecap:round; stroke-linejoin:round; stroke-width:2; stroke-opacity:0.1; fill:none" points="169.121,376.63 2352.76,376.63 "/>
<polyline clip-path="url(#clip582)" style="stroke:#f8f8f2; stroke-linecap:round; stroke-linejoin:round; stroke-width:2; stroke-opacity:0.1; fill:none" points="169.121,162.812 2352.76,162.812 "/>
<polyline clip-path="url(#clip580)" style="stroke:#f8f8f2; stroke-linecap:round; stroke-linejoin:round; stroke-width:4; stroke-opacity:1; fill:none" points="169.121,1486.45 169.121,47.2441 "/>
<polyline clip-path="url(#clip580)" style="stroke:#f8f8f2; stroke-linecap:round; stroke-linejoin:round; stroke-width:4; stroke-opacity:1; fill:none" points="169.121,1445.72 188.019,1445.72 "/>
<polyline clip-path="url(#clip580)" style="stroke:#f8f8f2; stroke-linecap:round; stroke-linejoin:round; stroke-width:4; stroke-opacity:1; fill:none" points="169.121,1231.9 188.019,1231.9 "/>
<polyline clip-path="url(#clip580)" style="stroke:#f8f8f2; stroke-linecap:round; stroke-linejoin:round; stroke-width:4; stroke-opacity:1; fill:none" points="169.121,1018.08 188.019,1018.08 "/>
<polyline clip-path="url(#clip580)" style="stroke:#f8f8f2; stroke-linecap:round; stroke-linejoin:round; stroke-width:4; stroke-opacity:1; fill:none" points="169.121,804.264 188.019,804.264 "/>
<polyline clip-path="url(#clip580)" style="stroke:#f8f8f2; stroke-linecap:round; stroke-linejoin:round; stroke-width:4; stroke-opacity:1; fill:none" points="169.121,590.447 188.019,590.447 "/>
<polyline clip-path="url(#clip580)" style="stroke:#f8f8f2; stroke-linecap:round; stroke-linejoin:round; stroke-width:4; stroke-opacity:1; fill:none" points="169.121,376.63 188.019,376.63 "/>
<polyline clip-path="url(#clip580)" style="stroke:#f8f8f2; stroke-linecap:round; stroke-linejoin:round; stroke-width:4; stroke-opacity:1; fill:none" points="169.121,162.812 188.019,162.812 "/>
<path clip-path="url(#clip580)" d="M121.177 1431.51 Q117.566 1431.51 115.737 1435.08 Q113.932 1438.62 113.932 1445.75 Q113.932 1452.86 115.737 1456.42 Q117.566 1459.96 121.177 1459.96 Q124.811 1459.96 126.617 1456.42 Q128.445 1452.86 128.445 1445.75 Q128.445 1438.62 126.617 1435.08 Q124.811 1431.51 121.177 1431.51 M121.177 1427.81 Q126.987 1427.81 130.043 1432.42 Q133.121 1437 133.121 1445.75 Q133.121 1454.48 130.043 1459.08 Q126.987 1463.67 121.177 1463.67 Q115.367 1463.67 112.288 1459.08 Q109.233 1454.48 109.233 1445.75 Q109.233 1437 112.288 1432.42 Q115.367 1427.81 121.177 1427.81 Z" fill="#f8f8f2" fill-rule="evenodd" fill-opacity="1" /><path clip-path="url(#clip580)" d="M85.0429 1245.24 L101.362 1245.24 L101.362 1249.18 L79.4179 1249.18 L79.4179 1245.24 Q82.0799 1242.49 86.6632 1237.86 Q91.2697 1233.21 92.4502 1231.86 Q94.6956 1229.34 95.5752 1227.6 Q96.478 1225.85 96.478 1224.16 Q96.478 1221.4 94.5336 1219.66 Q92.6123 1217.93 89.5104 1217.93 Q87.3114 1217.93 84.8577 1218.69 Q82.4271 1219.46 79.6494 1221.01 L79.6494 1216.29 Q82.4734 1215.15 84.9271 1214.57 Q87.3808 1213.99 89.4178 1213.99 Q94.7882 1213.99 97.9826 1216.68 Q101.177 1219.36 101.177 1223.85 Q101.177 1225.98 100.367 1227.91 Q99.5798 1229.8 97.4734 1232.4 Q96.8947 1233.07 93.7928 1236.29 Q90.691 1239.48 85.0429 1245.24 Z" fill="#f8f8f2" fill-rule="evenodd" fill-opacity="1" /><path clip-path="url(#clip580)" d="M121.177 1217.7 Q117.566 1217.7 115.737 1221.26 Q113.932 1224.8 113.932 1231.93 Q113.932 1239.04 115.737 1242.6 Q117.566 1246.15 121.177 1246.15 Q124.811 1246.15 126.617 1242.6 Q128.445 1239.04 128.445 1231.93 Q128.445 1224.8 126.617 1221.26 Q124.811 1217.7 121.177 1217.7 M121.177 1213.99 Q126.987 1213.99 130.043 1218.6 Q133.121 1223.18 133.121 1231.93 Q133.121 1240.66 130.043 1245.27 Q126.987 1249.85 121.177 1249.85 Q115.367 1249.85 112.288 1245.27 Q109.233 1240.66 109.233 1231.93 Q109.233 1223.18 112.288 1218.6 Q115.367 1213.99 121.177 1213.99 Z" fill="#f8f8f2" fill-rule="evenodd" fill-opacity="1" /><path clip-path="url(#clip580)" d="M93.8623 1004.88 L82.0568 1023.32 L93.8623 1023.32 L93.8623 1004.88 M92.6354 1000.8 L98.515 1000.8 L98.515 1023.32 L103.446 1023.32 L103.446 1027.21 L98.515 1027.21 L98.515 1035.36 L93.8623 1035.36 L93.8623 1027.21 L78.2605 1027.21 L78.2605 1022.7 L92.6354 1000.8 Z" fill="#f8f8f2" fill-rule="evenodd" fill-opacity="1" /><path clip-path="url(#clip580)" d="M121.177 1003.88 Q117.566 1003.88 115.737 1007.44 Q113.932 1010.99 113.932 1018.12 Q113.932 1025.22 115.737 1028.79 Q117.566 1032.33 121.177 1032.33 Q124.811 1032.33 126.617 1028.79 Q128.445 1025.22 128.445 1018.12 Q128.445 1010.99 126.617 1007.44 Q124.811 1003.88 121.177 1003.88 M121.177 1000.18 Q126.987 1000.18 130.043 1004.78 Q133.121 1009.37 133.121 1018.12 Q133.121 1026.84 130.043 1031.45 Q126.987 1036.03 121.177 1036.03 Q115.367 1036.03 112.288 1031.45 Q109.233 1026.84 109.233 1018.12 Q109.233 1009.37 112.288 1004.78 Q115.367 1000.18 121.177 1000.18 Z" fill="#f8f8f2" fill-rule="evenodd" fill-opacity="1" /><path clip-path="url(#clip580)" d="M91.5938 802.401 Q88.4456 802.401 86.5938 804.553 Q84.7651 806.706 84.7651 810.456 Q84.7651 814.183 86.5938 816.359 Q88.4456 818.512 91.5938 818.512 Q94.7419 818.512 96.5706 816.359 Q98.4224 814.183 98.4224 810.456 Q98.4224 806.706 96.5706 804.553 Q94.7419 802.401 91.5938 802.401 M100.876 787.748 L100.876 792.007 Q99.1169 791.174 97.3113 790.734 Q95.5289 790.294 93.7697 790.294 Q89.1401 790.294 86.6864 793.419 Q84.2558 796.544 83.9086 802.864 Q85.2743 800.85 87.3345 799.785 Q89.3947 798.697 91.8715 798.697 Q97.0798 798.697 100.089 801.868 Q103.121 805.016 103.121 810.456 Q103.121 815.78 99.9733 818.998 Q96.8252 822.215 91.5938 822.215 Q85.5984 822.215 82.4271 817.632 Q79.2559 813.026 79.2559 804.299 Q79.2559 796.104 83.1447 791.243 Q87.0336 786.359 93.5845 786.359 Q95.3437 786.359 97.1261 786.706 Q98.9317 787.053 100.876 787.748 Z" fill="#f8f8f2" fill-rule="evenodd" fill-opacity="1" /><path clip-path="url(#clip580)" d="M121.177 790.063 Q117.566 790.063 115.737 793.627 Q113.932 797.169 113.932 804.299 Q113.932 811.405 115.737 814.97 Q117.566 818.512 121.177 818.512 Q124.811 818.512 126.617 814.97 Q128.445 811.405 128.445 804.299 Q128.445 797.169 126.617 793.627 Q124.811 790.063 121.177 790.063 M121.177 786.359 Q126.987 786.359 130.043 790.965 Q133.121 795.549 133.121 804.299 Q133.121 813.026 130.043 817.632 Q126.987 822.215 121.177 822.215 Q115.367 822.215 112.288 817.632 Q109.233 813.026 109.233 804.299 Q109.233 795.549 112.288 790.965 Q115.367 786.359 121.177 786.359 Z" fill="#f8f8f2" fill-rule="evenodd" fill-opacity="1" /><path clip-path="url(#clip580)" d="M91.0151 591.315 Q87.6817 591.315 85.7605 593.097 Q83.8623 594.88 83.8623 598.005 Q83.8623 601.13 85.7605 602.912 Q87.6817 604.694 91.0151 604.694 Q94.3484 604.694 96.2697 602.912 Q98.1909 601.106 98.1909 598.005 Q98.1909 594.88 96.2697 593.097 Q94.3715 591.315 91.0151 591.315 M86.3392 589.324 Q83.3299 588.583 81.6401 586.523 Q79.9735 584.463 79.9735 581.5 Q79.9735 577.357 82.9133 574.949 Q85.8762 572.542 91.0151 572.542 Q96.1771 572.542 99.1169 574.949 Q102.057 577.357 102.057 581.5 Q102.057 584.463 100.367 586.523 Q98.7002 588.583 95.7141 589.324 Q99.0937 590.111 100.969 592.403 Q102.867 594.694 102.867 598.005 Q102.867 603.028 99.7882 605.713 Q96.7326 608.398 91.0151 608.398 Q85.2975 608.398 82.2188 605.713 Q79.1633 603.028 79.1633 598.005 Q79.1633 594.694 81.0614 592.403 Q82.9595 590.111 86.3392 589.324 M84.6262 581.94 Q84.6262 584.625 86.2929 586.13 Q87.9827 587.634 91.0151 587.634 Q94.0243 587.634 95.7141 586.13 Q97.4271 584.625 97.4271 581.94 Q97.4271 579.255 95.7141 577.75 Q94.0243 576.245 91.0151 576.245 Q87.9827 576.245 86.2929 577.75 Q84.6262 579.255 84.6262 581.94 Z" fill="#f8f8f2" fill-rule="evenodd" fill-opacity="1" /><path clip-path="url(#clip580)" d="M121.177 576.245 Q117.566 576.245 115.737 579.81 Q113.932 583.352 113.932 590.481 Q113.932 597.588 115.737 601.153 Q117.566 604.694 121.177 604.694 Q124.811 604.694 126.617 601.153 Q128.445 597.588 128.445 590.481 Q128.445 583.352 126.617 579.81 Q124.811 576.245 121.177 576.245 M121.177 572.542 Q126.987 572.542 130.043 577.148 Q133.121 581.732 133.121 590.481 Q133.121 599.208 130.043 603.815 Q126.987 608.398 121.177 608.398 Q115.367 608.398 112.288 603.815 Q109.233 599.208 109.233 590.481 Q109.233 581.732 112.288 577.148 Q115.367 572.542 121.177 572.542 Z" fill="#f8f8f2" fill-rule="evenodd" fill-opacity="1" /><path clip-path="url(#clip580)" d="M51.6634 389.974 L59.3023 389.974 L59.3023 363.609 L50.9921 365.275 L50.9921 361.016 L59.256 359.35 L63.9319 359.35 L63.9319 389.974 L71.5707 389.974 L71.5707 393.91 L51.6634 393.91 L51.6634 389.974 Z" fill="#f8f8f2" fill-rule="evenodd" fill-opacity="1" /><path clip-path="url(#clip580)" d="M91.0151 362.428 Q87.404 362.428 85.5753 365.993 Q83.7697 369.535 83.7697 376.664 Q83.7697 383.771 85.5753 387.335 Q87.404 390.877 91.0151 390.877 Q94.6493 390.877 96.4548 387.335 Q98.2835 383.771 98.2835 376.664 Q98.2835 369.535 96.4548 365.993 Q94.6493 362.428 91.0151 362.428 M91.0151 358.725 Q96.8252 358.725 99.8808 363.331 Q102.959 367.914 102.959 376.664 Q102.959 385.391 99.8808 389.998 Q96.8252 394.581 91.0151 394.581 Q85.2049 394.581 82.1262 389.998 Q79.0707 385.391 79.0707 376.664 Q79.0707 367.914 82.1262 363.331 Q85.2049 358.725 91.0151 358.725 Z" fill="#f8f8f2" fill-rule="evenodd" fill-opacity="1" /><path clip-path="url(#clip580)" d="M121.177 362.428 Q117.566 362.428 115.737 365.993 Q113.932 369.535 113.932 376.664 Q113.932 383.771 115.737 387.335 Q117.566 390.877 121.177 390.877 Q124.811 390.877 126.617 387.335 Q128.445 383.771 128.445 376.664 Q128.445 369.535 126.617 365.993 Q124.811 362.428 121.177 362.428 M121.177 358.725 Q126.987 358.725 130.043 363.331 Q133.121 367.914 133.121 376.664 Q133.121 385.391 130.043 389.998 Q126.987 394.581 121.177 394.581 Q115.367 394.581 112.288 389.998 Q109.233 385.391 109.233 376.664 Q109.233 367.914 112.288 363.331 Q115.367 358.725 121.177 358.725 Z" fill="#f8f8f2" fill-rule="evenodd" fill-opacity="1" /><path clip-path="url(#clip580)" d="M51.6634 176.157 L59.3023 176.157 L59.3023 149.792 L50.9921 151.458 L50.9921 147.199 L59.256 145.532 L63.9319 145.532 L63.9319 176.157 L71.5707 176.157 L71.5707 180.092 L51.6634 180.092 L51.6634 176.157 Z" fill="#f8f8f2" fill-rule="evenodd" fill-opacity="1" /><path clip-path="url(#clip580)" d="M85.0429 176.157 L101.362 176.157 L101.362 180.092 L79.4179 180.092 L79.4179 176.157 Q82.0799 173.403 86.6632 168.773 Q91.2697 164.12 92.4502 162.778 Q94.6956 160.254 95.5752 158.518 Q96.478 156.759 96.478 155.069 Q96.478 152.315 94.5336 150.579 Q92.6123 148.842 89.5104 148.842 Q87.3114 148.842 84.8577 149.606 Q82.4271 150.37 79.6494 151.921 L79.6494 147.199 Q82.4734 146.065 84.9271 145.486 Q87.3808 144.907 89.4178 144.907 Q94.7882 144.907 97.9826 147.592 Q101.177 150.278 101.177 154.768 Q101.177 156.898 100.367 158.819 Q99.5798 160.717 97.4734 163.31 Q96.8947 163.981 93.7928 167.199 Q90.691 170.393 85.0429 176.157 Z" fill="#f8f8f2" fill-rule="evenodd" fill-opacity="1" /><path clip-path="url(#clip580)" d="M121.177 148.611 Q117.566 148.611 115.737 152.176 Q113.932 155.717 113.932 162.847 Q113.932 169.953 115.737 173.518 Q117.566 177.06 121.177 177.06 Q124.811 177.06 126.617 173.518 Q128.445 169.953 128.445 162.847 Q128.445 155.717 126.617 152.176 Q124.811 148.611 121.177 148.611 M121.177 144.907 Q126.987 144.907 130.043 149.514 Q133.121 154.097 133.121 162.847 Q133.121 171.574 130.043 176.18 Q126.987 180.764 121.177 180.764 Q115.367 180.764 112.288 176.18 Q109.233 171.574 109.233 162.847 Q109.233 154.097 112.288 149.514 Q115.367 144.907 121.177 144.907 Z" fill="#f8f8f2" fill-rule="evenodd" fill-opacity="1" /><path clip-path="url(#clip582)" d="M289.225 1435.02 L289.225 1445.72 L391.511 1445.72 L391.511 1435.02 L289.225 1435.02 L289.225 1435.02  Z" fill="#8be9fd" fill-rule="evenodd" fill-opacity="1"/>
<polyline clip-path="url(#clip582)" style="stroke:#f8f8f2; stroke-linecap:round; stroke-linejoin:round; stroke-width:4; stroke-opacity:1; fill:none" points="289.225,1435.02 289.225,1445.72 391.511,1445.72 391.511,1435.02 289.225,1435.02 "/>
<path clip-path="url(#clip582)" d="M391.511 1413.64 L391.511 1445.72 L493.796 1445.72 L493.796 1413.64 L391.511 1413.64 L391.511 1413.64  Z" fill="#8be9fd" fill-rule="evenodd" fill-opacity="1"/>
<polyline clip-path="url(#clip582)" style="stroke:#f8f8f2; stroke-linecap:round; stroke-linejoin:round; stroke-width:4; stroke-opacity:1; fill:none" points="391.511,1413.64 391.511,1445.72 493.796,1445.72 493.796,1413.64 391.511,1413.64 "/>
<path clip-path="url(#clip582)" d="M493.796 1349.5 L493.796 1445.72 L596.082 1445.72 L596.082 1349.5 L493.796 1349.5 L493.796 1349.5  Z" fill="#8be9fd" fill-rule="evenodd" fill-opacity="1"/>
<polyline clip-path="url(#clip582)" style="stroke:#f8f8f2; stroke-linecap:round; stroke-linejoin:round; stroke-width:4; stroke-opacity:1; fill:none" points="493.796,1349.5 493.796,1445.72 596.082,1445.72 596.082,1349.5 493.796,1349.5 "/>
<path clip-path="url(#clip582)" d="M596.082 1157.06 L596.082 1445.72 L698.368 1445.72 L698.368 1157.06 L596.082 1157.06 L596.082 1157.06  Z" fill="#8be9fd" fill-rule="evenodd" fill-opacity="1"/>
<polyline clip-path="url(#clip582)" style="stroke:#f8f8f2; stroke-linecap:round; stroke-linejoin:round; stroke-width:4; stroke-opacity:1; fill:none" points="596.082,1157.06 596.082,1445.72 698.368,1445.72 698.368,1157.06 596.082,1157.06 "/>
<path clip-path="url(#clip582)" d="M698.368 1103.61 L698.368 1445.72 L800.653 1445.72 L800.653 1103.61 L698.368 1103.61 L698.368 1103.61  Z" fill="#8be9fd" fill-rule="evenodd" fill-opacity="1"/>
<polyline clip-path="url(#clip582)" style="stroke:#f8f8f2; stroke-linecap:round; stroke-linejoin:round; stroke-width:4; stroke-opacity:1; fill:none" points="698.368,1103.61 698.368,1445.72 800.653,1445.72 800.653,1103.61 698.368,1103.61 "/>
<path clip-path="url(#clip582)" d="M800.653 675.974 L800.653 1445.72 L902.939 1445.72 L902.939 675.974 L800.653 675.974 L800.653 675.974  Z" fill="#8be9fd" fill-rule="evenodd" fill-opacity="1"/>
<polyline clip-path="url(#clip582)" style="stroke:#f8f8f2; stroke-linecap:round; stroke-linejoin:round; stroke-width:4; stroke-opacity:1; fill:none" points="800.653,675.974 800.653,1445.72 902.939,1445.72 902.939,675.974 800.653,675.974 "/>
<path clip-path="url(#clip582)" d="M902.939 387.32 L902.939 1445.72 L1005.22 1445.72 L1005.22 387.32 L902.939 387.32 L902.939 387.32  Z" fill="#8be9fd" fill-rule="evenodd" fill-opacity="1"/>
<polyline clip-path="url(#clip582)" style="stroke:#f8f8f2; stroke-linecap:round; stroke-linejoin:round; stroke-width:4; stroke-opacity:1; fill:none" points="902.939,387.32 902.939,1445.72 1005.22,1445.72 1005.22,387.32 902.939,387.32 "/>
<path clip-path="url(#clip582)" d="M1005.22 87.9763 L1005.22 1445.72 L1107.51 1445.72 L1107.51 87.9763 L1005.22 87.9763 L1005.22 87.9763  Z" fill="#8be9fd" fill-rule="evenodd" fill-opacity="1"/>
<polyline clip-path="url(#clip582)" style="stroke:#f8f8f2; stroke-linecap:round; stroke-linejoin:round; stroke-width:4; stroke-opacity:1; fill:none" points="1005.22,87.9763 1005.22,1445.72 1107.51,1445.72 1107.51,87.9763 1005.22,87.9763 "/>
<path clip-path="url(#clip582)" d="M1107.51 141.431 L1107.51 1445.72 L1209.8 1445.72 L1209.8 141.431 L1107.51 141.431 L1107.51 141.431  Z" fill="#8be9fd" fill-rule="evenodd" fill-opacity="1"/>
<polyline clip-path="url(#clip582)" style="stroke:#f8f8f2; stroke-linecap:round; stroke-linejoin:round; stroke-width:4; stroke-opacity:1; fill:none" points="1107.51,141.431 1107.51,1445.72 1209.8,1445.72 1209.8,141.431 1107.51,141.431 "/>
<path clip-path="url(#clip582)" d="M1209.8 173.503 L1209.8 1445.72 L1312.08 1445.72 L1312.08 173.503 L1209.8 173.503 L1209.8 173.503  Z" fill="#8be9fd" fill-rule="evenodd" fill-opacity="1"/>
<polyline clip-path="url(#clip582)" style="stroke:#f8f8f2; stroke-linecap:round; stroke-linejoin:round; stroke-width:4; stroke-opacity:1; fill:none" points="1209.8,173.503 1209.8,1445.72 1312.08,1445.72 1312.08,173.503 1209.8,173.503 "/>
<path clip-path="url(#clip582)" d="M1312.08 216.267 L1312.08 1445.72 L1414.37 1445.72 L1414.37 216.267 L1312.08 216.267 L1312.08 216.267  Z" fill="#8be9fd" fill-rule="evenodd" fill-opacity="1"/>
<polyline clip-path="url(#clip582)" style="stroke:#f8f8f2; stroke-linecap:round; stroke-linejoin:round; stroke-width:4; stroke-opacity:1; fill:none" points="1312.08,216.267 1312.08,1445.72 1414.37,1445.72 1414.37,216.267 1312.08,216.267 "/>
<path clip-path="url(#clip582)" d="M1414.37 376.63 L1414.37 1445.72 L1516.65 1445.72 L1516.65 376.63 L1414.37 376.63 L1414.37 376.63  Z" fill="#8be9fd" fill-rule="evenodd" fill-opacity="1"/>
<polyline clip-path="url(#clip582)" style="stroke:#f8f8f2; stroke-linecap:round; stroke-linejoin:round; stroke-width:4; stroke-opacity:1; fill:none" points="1414.37,376.63 1414.37,1445.72 1516.65,1445.72 1516.65,376.63 1414.37,376.63 "/>
<path clip-path="url(#clip582)" d="M1516.65 654.592 L1516.65 1445.72 L1618.94 1445.72 L1618.94 654.592 L1516.65 654.592 L1516.65 654.592  Z" fill="#8be9fd" fill-rule="evenodd" fill-opacity="1"/>
<polyline clip-path="url(#clip582)" style="stroke:#f8f8f2; stroke-linecap:round; stroke-linejoin:round; stroke-width:4; stroke-opacity:1; fill:none" points="1516.65,654.592 1516.65,1445.72 1618.94,1445.72 1618.94,654.592 1516.65,654.592 "/>
<path clip-path="url(#clip582)" d="M1618.94 964.627 L1618.94 1445.72 L1721.22 1445.72 L1721.22 964.627 L1618.94 964.627 L1618.94 964.627  Z" fill="#8be9fd" fill-rule="evenodd" fill-opacity="1"/>
<polyline clip-path="url(#clip582)" style="stroke:#f8f8f2; stroke-linecap:round; stroke-linejoin:round; stroke-width:4; stroke-opacity:1; fill:none" points="1618.94,964.627 1618.94,1445.72 1721.22,1445.72 1721.22,964.627 1618.94,964.627 "/>
<path clip-path="url(#clip582)" d="M1721.22 1210.52 L1721.22 1445.72 L1823.51 1445.72 L1823.51 1210.52 L1721.22 1210.52 L1721.22 1210.52  Z" fill="#8be9fd" fill-rule="evenodd" fill-opacity="1"/>
<polyline clip-path="url(#clip582)" style="stroke:#f8f8f2; stroke-linecap:round; stroke-linejoin:round; stroke-width:4; stroke-opacity:1; fill:none" points="1721.22,1210.52 1721.22,1445.72 1823.51,1445.72 1823.51,1210.52 1721.22,1210.52 "/>
<path clip-path="url(#clip582)" d="M1823.51 1296.04 L1823.51 1445.72 L1925.8 1445.72 L1925.8 1296.04 L1823.51 1296.04 L1823.51 1296.04  Z" fill="#8be9fd" fill-rule="evenodd" fill-opacity="1"/>
<polyline clip-path="url(#clip582)" style="stroke:#f8f8f2; stroke-linecap:round; stroke-linejoin:round; stroke-width:4; stroke-opacity:1; fill:none" points="1823.51,1296.04 1823.51,1445.72 1925.8,1445.72 1925.8,1296.04 1823.51,1296.04 "/>
<path clip-path="url(#clip582)" d="M1925.8 1285.35 L1925.8 1445.72 L2028.08 1445.72 L2028.08 1285.35 L1925.8 1285.35 L1925.8 1285.35  Z" fill="#8be9fd" fill-rule="evenodd" fill-opacity="1"/>
<polyline clip-path="url(#clip582)" style="stroke:#f8f8f2; stroke-linecap:round; stroke-linejoin:round; stroke-width:4; stroke-opacity:1; fill:none" points="1925.8,1285.35 1925.8,1445.72 2028.08,1445.72 2028.08,1285.35 1925.8,1285.35 "/>
<path clip-path="url(#clip582)" d="M2028.08 1413.64 L2028.08 1445.72 L2130.37 1445.72 L2130.37 1413.64 L2028.08 1413.64 L2028.08 1413.64  Z" fill="#8be9fd" fill-rule="evenodd" fill-opacity="1"/>
<polyline clip-path="url(#clip582)" style="stroke:#f8f8f2; stroke-linecap:round; stroke-linejoin:round; stroke-width:4; stroke-opacity:1; fill:none" points="2028.08,1413.64 2028.08,1445.72 2130.37,1445.72 2130.37,1413.64 2028.08,1413.64 "/>
<path clip-path="url(#clip582)" d="M2130.37 1435.02 L2130.37 1445.72 L2232.65 1445.72 L2232.65 1435.02 L2130.37 1435.02 L2130.37 1435.02  Z" fill="#8be9fd" fill-rule="evenodd" fill-opacity="1"/>
<polyline clip-path="url(#clip582)" style="stroke:#f8f8f2; stroke-linecap:round; stroke-linejoin:round; stroke-width:4; stroke-opacity:1; fill:none" points="2130.37,1435.02 2130.37,1445.72 2232.65,1445.72 2232.65,1435.02 2130.37,1435.02 "/>
<circle clip-path="url(#clip582)" style="fill:#8be9fd; stroke:none; fill-opacity:0" cx="340.368" cy="1435.02" r="2"/>
<circle clip-path="url(#clip582)" style="fill:#8be9fd; stroke:none; fill-opacity:0" cx="442.654" cy="1413.64" r="2"/>
<circle clip-path="url(#clip582)" style="fill:#8be9fd; stroke:none; fill-opacity:0" cx="544.939" cy="1349.5" r="2"/>
<circle clip-path="url(#clip582)" style="fill:#8be9fd; stroke:none; fill-opacity:0" cx="647.225" cy="1157.06" r="2"/>
<circle clip-path="url(#clip582)" style="fill:#8be9fd; stroke:none; fill-opacity:0" cx="749.51" cy="1103.61" r="2"/>
<circle clip-path="url(#clip582)" style="fill:#8be9fd; stroke:none; fill-opacity:0" cx="851.796" cy="675.974" r="2"/>
<circle clip-path="url(#clip582)" style="fill:#8be9fd; stroke:none; fill-opacity:0" cx="954.082" cy="387.32" r="2"/>
<circle clip-path="url(#clip582)" style="fill:#8be9fd; stroke:none; fill-opacity:0" cx="1056.37" cy="87.9763" r="2"/>
<circle clip-path="url(#clip582)" style="fill:#8be9fd; stroke:none; fill-opacity:0" cx="1158.65" cy="141.431" r="2"/>
<circle clip-path="url(#clip582)" style="fill:#8be9fd; stroke:none; fill-opacity:0" cx="1260.94" cy="173.503" r="2"/>
<circle clip-path="url(#clip582)" style="fill:#8be9fd; stroke:none; fill-opacity:0" cx="1363.22" cy="216.267" r="2"/>
<circle clip-path="url(#clip582)" style="fill:#8be9fd; stroke:none; fill-opacity:0" cx="1465.51" cy="376.63" r="2"/>
<circle clip-path="url(#clip582)" style="fill:#8be9fd; stroke:none; fill-opacity:0" cx="1567.8" cy="654.592" r="2"/>
<circle clip-path="url(#clip582)" style="fill:#8be9fd; stroke:none; fill-opacity:0" cx="1670.08" cy="964.627" r="2"/>
<circle clip-path="url(#clip582)" style="fill:#8be9fd; stroke:none; fill-opacity:0" cx="1772.37" cy="1210.52" r="2"/>
<circle clip-path="url(#clip582)" style="fill:#8be9fd; stroke:none; fill-opacity:0" cx="1874.65" cy="1296.04" r="2"/>
<circle clip-path="url(#clip582)" style="fill:#8be9fd; stroke:none; fill-opacity:0" cx="1976.94" cy="1285.35" r="2"/>
<circle clip-path="url(#clip582)" style="fill:#8be9fd; stroke:none; fill-opacity:0" cx="2079.22" cy="1413.64" r="2"/>
<circle clip-path="url(#clip582)" style="fill:#8be9fd; stroke:none; fill-opacity:0" cx="2181.51" cy="1435.02" r="2"/>
<path clip-path="url(#clip580)" d="M2009.17 198.898 L2279.97 198.898 L2279.97 95.2176 L2009.17 95.2176  Z" fill="#282a36" fill-rule="evenodd" fill-opacity="1"/>
<polyline clip-path="url(#clip580)" style="stroke:#f8f8f2; stroke-linecap:round; stroke-linejoin:round; stroke-width:4; stroke-opacity:1; fill:none" points="2009.17,198.898 2279.97,198.898 2279.97,95.2176 2009.17,95.2176 2009.17,198.898 "/>
<path clip-path="url(#clip580)" d="M2033.44 167.794 L2179.01 167.794 L2179.01 126.322 L2033.44 126.322 L2033.44 167.794  Z" fill="#8be9fd" fill-rule="evenodd" fill-opacity="1"/>
<polyline clip-path="url(#clip580)" style="stroke:#f8f8f2; stroke-linecap:round; stroke-linejoin:round; stroke-width:4; stroke-opacity:1; fill:none" points="2033.44,167.794 2179.01,167.794 2179.01,126.322 2033.44,126.322 2033.44,167.794 "/>
<path clip-path="url(#clip580)" d="M2217.12 166.745 Q2215.31 171.375 2213.6 172.787 Q2211.89 174.199 2209.02 174.199 L2205.61 174.199 L2205.61 170.634 L2208.11 170.634 Q2209.87 170.634 2210.84 169.8 Q2211.82 168.967 2213 165.865 L2213.76 163.921 L2203.28 138.412 L2207.79 138.412 L2215.89 158.689 L2223.99 138.412 L2228.51 138.412 L2217.12 166.745 Z" fill="#f8f8f2" fill-rule="evenodd" fill-opacity="1" /><path clip-path="url(#clip580)" d="M2235.8 160.402 L2243.44 160.402 L2243.44 134.037 L2235.13 135.703 L2235.13 131.444 L2243.39 129.778 L2248.07 129.778 L2248.07 160.402 L2255.71 160.402 L2255.71 164.338 L2235.8 164.338 L2235.8 160.402 Z" fill="#f8f8f2" fill-rule="evenodd" fill-opacity="1" /></svg>
